<svg width="496" height="320" viewBox="0 0 496 320" fill="none" xmlns="http://www.w3.org/2000/svg">
<rect width="496" height="320" fill="white"/>
<path d="M0 5C0 2.23858 2.23858 0 5 0H431C433.761 0 436 2.23858 436 5V315C436 317.761 433.761 320 431 320H4.99999C2.23857 320 0 317.761 0 315V5Z" fill="#EBEBEB"/>
<path d="M2 6.99999C2 4.23857 4.23858 2 7 2H429C431.761 2 434 4.23858 434 7V315C434 316.657 432.657 318 431 318H7.00001C4.23858 318 2 315.761 2 313V6.99999Z" fill="#EBEBEB"/>
<path d="M2 31H434V318H4.99999C3.34313 318 2 316.657 2 315V31Z" fill="white"/>
<rect x="335" y="81" width="161" height="113" rx="5" fill="url(#paint0_linear_27_57)"/>
<path d="M2 7C2 4.23858 4.23858 2 7 2H429C431.761 2 434 4.23858 434 7V31H2V7Z" fill="#EBEBEB"/>
<circle cx="16.5" cy="16.5" r="4.5" fill="#C44F59"/>
<circle cx="31.5" cy="16.5" r="4.5" fill="#FFCE1C"/>
<circle cx="46.5" cy="16.5" r="4.5" fill="#65DC90"/>
<rect x="27" y="53" width="20" height="4" fill="#EBEBEB"/>
<rect x="52" y="53" width="20" height="4" fill="#EBEBEB"/>
<rect x="76" y="53" width="20" height="4" fill="#EBEBEB"/>
<rect x="366" y="53" width="18" height="5" rx="1" fill="#65DC90"/>
<rect x="391" y="53" width="18" height="5" rx="1" fill="#65DC90"/>
<path d="M209.064 56.7811C209.411 55.9776 210.551 55.9776 210.899 56.7811L215.962 68.4748H204L209.064 56.7811Z" fill="#65DC90"/>
<path d="M219.629 46.7597C220.293 45.0647 222.691 45.0647 223.354 46.7597L231.852 68.4748H211.132L219.629 46.7597Z" fill="#65DC90"/>
<rect x="143" y="110" width="150" height="24" rx="5" fill="#EBEBEB"/>
<path d="M270 110H288C290.761 110 293 112.239 293 115V129C293 131.761 290.761 134 288 134H270V110Z" fill="#F3592A"/>
<path d="M285 120.5C285 122.985 282.985 125 280.5 125C278.015 125 276 122.985 276 120.5C276 118.015 278.015 116 280.5 116C282.985 116 285 118.015 285 120.5ZM277.004 120.5C277.004 122.431 278.569 123.996 280.5 123.996C282.431 123.996 283.996 122.431 283.996 120.5C283.996 118.569 282.431 117.004 280.5 117.004C278.569 117.004 277.004 118.569 277.004 120.5Z" fill="white"/>
<line x1="283.014" y1="124.075" x2="287.052" y2="128.513" stroke="#EBEBEB" stroke-linecap="round"/>
<path d="M358 136.03C358.36 136.03 358.713 136.123 359.06 136.31C359.407 136.497 359.673 136.763 359.86 137.11C360.053 137.45 360.15 137.807 360.15 138.18C360.15 138.773 359.94 139.28 359.52 139.7C359.1 140.12 358.593 140.33 358 140.33C357.407 140.33 356.9 140.12 356.48 139.7C356.06 139.28 355.85 138.773 355.85 138.18C355.85 137.807 355.947 137.45 356.14 137.11C356.333 136.763 356.6 136.497 356.94 136.31C357.287 136.123 357.64 136.03 358 136.03ZM368.172 139.9H369.312V135.1H368.352V136.31H367.252V134H372.732V136.31H371.632V135.1H370.682V139.9H371.812V141H368.172V139.9ZM373.338 138.5C373.338 138.08 373.402 137.707 373.528 137.38C373.655 137.053 373.835 136.777 374.068 136.55C374.302 136.323 374.578 136.153 374.898 136.04C375.225 135.92 375.588 135.86 375.988 135.86C376.408 135.86 376.782 135.923 377.108 136.05C377.442 136.177 377.722 136.357 377.948 136.59C378.175 136.817 378.345 137.093 378.458 137.42C378.578 137.747 378.638 138.107 378.638 138.5C378.638 138.92 378.575 139.293 378.448 139.62C378.322 139.947 378.142 140.223 377.908 140.45C377.675 140.677 377.395 140.85 377.068 140.97C376.748 141.083 376.388 141.14 375.988 141.14C375.568 141.14 375.192 141.077 374.858 140.95C374.532 140.823 374.255 140.647 374.028 140.42C373.802 140.187 373.628 139.907 373.508 139.58C373.395 139.253 373.338 138.893 373.338 138.5ZM374.678 138.5C374.678 138.72 374.708 138.923 374.768 139.11C374.828 139.297 374.915 139.46 375.028 139.6C375.142 139.74 375.278 139.85 375.438 139.93C375.598 140.003 375.782 140.04 375.988 140.04C376.375 140.04 376.688 139.917 376.928 139.67C377.175 139.423 377.298 139.033 377.298 138.5C377.298 138.04 377.185 137.67 376.958 137.39C376.732 137.103 376.408 136.96 375.988 136.96C375.802 136.96 375.628 136.99 375.468 137.05C375.308 137.103 375.168 137.193 375.048 137.32C374.935 137.447 374.845 137.607 374.778 137.8C374.712 137.993 374.678 138.227 374.678 138.5ZM384.284 141C384.284 141.36 384.221 141.673 384.094 141.94C383.974 142.207 383.804 142.427 383.584 142.6C383.371 142.78 383.114 142.91 382.814 142.99C382.521 143.077 382.198 143.12 381.844 143.12C381.604 143.12 381.378 143.1 381.164 143.06C380.958 143.027 380.764 142.98 380.584 142.92C380.411 142.86 380.258 142.793 380.124 142.72C379.991 142.653 379.884 142.587 379.804 142.52L380.304 141.6C380.464 141.707 380.654 141.807 380.874 141.9C381.101 142 381.384 142.05 381.724 142.05C382.144 142.05 382.464 141.953 382.684 141.76C382.904 141.567 383.014 141.29 383.014 140.93V140.61H382.974C382.854 140.77 382.678 140.89 382.444 140.97C382.211 141.043 381.941 141.08 381.634 141.08C381.314 141.08 381.018 141.03 380.744 140.93C380.478 140.83 380.244 140.68 380.044 140.48C379.844 140.273 379.688 140.013 379.574 139.7C379.468 139.387 379.414 139.02 379.414 138.6C379.414 138.16 379.478 137.77 379.604 137.43C379.738 137.09 379.921 136.807 380.154 136.58C380.394 136.347 380.678 136.173 381.004 136.06C381.338 135.94 381.708 135.88 382.114 135.88C382.328 135.88 382.541 135.89 382.754 135.91C382.968 135.923 383.168 135.943 383.354 135.97C383.548 135.997 383.724 136.03 383.884 136.07C384.044 136.103 384.178 136.14 384.284 136.18V141ZM381.884 140.04C382.138 140.04 382.364 139.983 382.564 139.87C382.771 139.757 382.911 139.587 382.984 139.36V137.11C382.891 137.07 382.758 137.04 382.584 137.02C382.418 136.993 382.258 136.98 382.104 136.98C381.918 136.98 381.741 137.01 381.574 137.07C381.414 137.13 381.271 137.227 381.144 137.36C381.024 137.487 380.928 137.65 380.854 137.85C380.788 138.043 380.754 138.277 380.754 138.55C380.754 138.79 380.784 139.003 380.844 139.19C380.904 139.377 380.988 139.533 381.094 139.66C381.201 139.787 381.321 139.883 381.454 139.95C381.588 140.01 381.731 140.04 381.884 140.04ZM390.28 141C390.28 141.36 390.217 141.673 390.09 141.94C389.97 142.207 389.8 142.427 389.58 142.6C389.367 142.78 389.11 142.91 388.81 142.99C388.517 143.077 388.194 143.12 387.84 143.12C387.6 143.12 387.374 143.1 387.16 143.06C386.954 143.027 386.76 142.98 386.58 142.92C386.407 142.86 386.254 142.793 386.12 142.72C385.987 142.653 385.88 142.587 385.8 142.52L386.3 141.6C386.46 141.707 386.65 141.807 386.87 141.9C387.097 142 387.38 142.05 387.72 142.05C388.14 142.05 388.46 141.953 388.68 141.76C388.9 141.567 389.01 141.29 389.01 140.93V140.61H388.97C388.85 140.77 388.674 140.89 388.44 140.97C388.207 141.043 387.937 141.08 387.63 141.08C387.31 141.08 387.014 141.03 386.74 140.93C386.474 140.83 386.24 140.68 386.04 140.48C385.84 140.273 385.684 140.013 385.57 139.7C385.464 139.387 385.41 139.02 385.41 138.6C385.41 138.16 385.474 137.77 385.6 137.43C385.734 137.09 385.917 136.807 386.15 136.58C386.39 136.347 386.674 136.173 387 136.06C387.334 135.94 387.704 135.88 388.11 135.88C388.324 135.88 388.537 135.89 388.75 135.91C388.964 135.923 389.164 135.943 389.35 135.97C389.544 135.997 389.72 136.03 389.88 136.07C390.04 136.103 390.174 136.14 390.28 136.18V141ZM387.88 140.04C388.134 140.04 388.36 139.983 388.56 139.87C388.767 139.757 388.907 139.587 388.98 139.36V137.11C388.887 137.07 388.754 137.04 388.58 137.02C388.414 136.993 388.254 136.98 388.1 136.98C387.914 136.98 387.737 137.01 387.57 137.07C387.41 137.13 387.267 137.227 387.14 137.36C387.02 137.487 386.924 137.65 386.85 137.85C386.784 138.043 386.75 138.277 386.75 138.55C386.75 138.79 386.78 139.003 386.84 139.19C386.9 139.377 386.984 139.533 387.09 139.66C387.197 139.787 387.317 139.883 387.45 139.95C387.584 140.01 387.727 140.04 387.88 140.04ZM391.847 134H393.977V138.62C393.977 139.133 394.04 139.49 394.167 139.69C394.293 139.89 394.497 139.99 394.777 139.99C394.983 139.99 395.153 139.97 395.287 139.93C395.42 139.883 395.553 139.82 395.687 139.74L396.177 140.64C396.063 140.713 395.95 140.783 395.837 140.85C395.723 140.91 395.603 140.96 395.477 141C395.35 141.047 395.21 141.08 395.057 141.1C394.91 141.127 394.743 141.14 394.557 141.14C393.93 141.14 393.46 140.98 393.147 140.66C392.833 140.34 392.677 139.887 392.677 139.3V135.1H391.847V134ZM402.313 140.47C402.226 140.55 402.113 140.63 401.973 140.71C401.839 140.783 401.679 140.853 401.493 140.92C401.313 140.987 401.113 141.04 400.893 141.08C400.673 141.12 400.439 141.14 400.193 141.14C399.766 141.14 399.383 141.08 399.043 140.96C398.709 140.84 398.426 140.667 398.193 140.44C397.959 140.207 397.779 139.93 397.653 139.61C397.533 139.283 397.473 138.913 397.473 138.5C397.473 138.06 397.543 137.677 397.683 137.35C397.823 137.017 398.013 136.74 398.253 136.52C398.499 136.3 398.786 136.137 399.113 136.03C399.439 135.917 399.793 135.86 400.173 135.86C400.426 135.86 400.686 135.893 400.953 135.96C401.226 136.027 401.476 136.143 401.703 136.31C401.929 136.47 402.113 136.687 402.253 136.96C402.399 137.233 402.473 137.58 402.473 138C402.473 138.287 402.439 138.597 402.373 138.93H398.773C398.779 139.143 398.823 139.323 398.903 139.47C398.989 139.617 399.099 139.737 399.233 139.83C399.373 139.923 399.529 139.993 399.703 140.04C399.883 140.08 400.073 140.1 400.273 140.1C400.673 140.1 400.999 140.053 401.253 139.96C401.513 139.867 401.723 139.753 401.883 139.62L402.313 140.47ZM400.153 136.9C399.979 136.9 399.816 136.923 399.663 136.97C399.509 137.017 399.369 137.087 399.243 137.18C399.123 137.267 399.023 137.377 398.943 137.51C398.863 137.643 398.816 137.793 398.803 137.96H401.263C401.263 137.633 401.169 137.377 400.983 137.19C400.803 136.997 400.526 136.9 400.153 136.9ZM413.095 138.07H410.835V141H409.465V134H410.835V136.85H413.095V134H414.465V141H413.095V138.07ZM415.551 139.9H417.311V137.1H415.551V136H418.611V139.9H420.461V141H415.551V139.9ZM417.071 134.64C417.071 134.433 417.148 134.257 417.301 134.11C417.454 133.963 417.668 133.89 417.941 133.89C418.221 133.89 418.444 133.963 418.611 134.11C418.778 134.257 418.861 134.433 418.861 134.64C418.861 134.853 418.778 135.03 418.611 135.17C418.444 135.303 418.221 135.37 417.941 135.37C417.668 135.37 417.454 135.303 417.301 135.17C417.148 135.03 417.071 134.853 417.071 134.64ZM420.957 134H423.077V137.99H423.377L425.017 136H426.547L424.527 138.28L425.837 139.9H426.767V141H425.147L423.427 138.93H423.077V141H421.777V135.1H420.957V134ZM432.293 140.47C432.206 140.55 432.093 140.63 431.953 140.71C431.82 140.783 431.66 140.853 431.473 140.92C431.293 140.987 431.093 141.04 430.873 141.08C430.653 141.12 430.42 141.14 430.173 141.14C429.746 141.14 429.363 141.08 429.023 140.96C428.69 140.84 428.406 140.667 428.173 140.44C427.94 140.207 427.76 139.93 427.633 139.61C427.513 139.283 427.453 138.913 427.453 138.5C427.453 138.06 427.523 137.677 427.663 137.35C427.803 137.017 427.993 136.74 428.233 136.52C428.48 136.3 428.766 136.137 429.093 136.03C429.42 135.917 429.773 135.86 430.153 135.86C430.406 135.86 430.666 135.893 430.933 135.96C431.206 136.027 431.456 136.143 431.683 136.31C431.91 136.47 432.093 136.687 432.233 136.96C432.38 137.233 432.453 137.58 432.453 138C432.453 138.287 432.42 138.597 432.353 138.93H428.753C428.76 139.143 428.803 139.323 428.883 139.47C428.97 139.617 429.08 139.737 429.213 139.83C429.353 139.923 429.51 139.993 429.683 140.04C429.863 140.08 430.053 140.1 430.253 140.1C430.653 140.1 430.98 140.053 431.233 139.96C431.493 139.867 431.703 139.753 431.863 139.62L432.293 140.47ZM430.133 136.9C429.96 136.9 429.796 136.923 429.643 136.97C429.49 137.017 429.35 137.087 429.223 137.18C429.103 137.267 429.003 137.377 428.923 137.51C428.843 137.643 428.796 137.793 428.783 137.96H431.243C431.243 137.633 431.15 137.377 430.963 137.19C430.783 136.997 430.506 136.9 430.133 136.9ZM436.969 139.62C436.969 139.487 436.886 139.38 436.719 139.3C436.559 139.22 436.359 139.147 436.119 139.08C435.879 139.013 435.616 138.947 435.329 138.88C435.043 138.807 434.779 138.71 434.539 138.59C434.299 138.463 434.096 138.307 433.929 138.12C433.769 137.927 433.689 137.68 433.689 137.38C433.689 137.133 433.743 136.917 433.849 136.73C433.963 136.543 434.113 136.387 434.299 136.26C434.493 136.127 434.719 136.027 434.979 135.96C435.246 135.893 435.533 135.86 435.839 135.86C436.166 135.86 436.453 135.883 436.699 135.93C436.946 135.977 437.159 136.033 437.339 136.1C437.526 136.167 437.683 136.243 437.809 136.33C437.943 136.41 438.056 136.483 438.149 136.55L437.599 137.44C437.499 137.38 437.383 137.32 437.249 137.26C437.123 137.193 436.986 137.133 436.839 137.08C436.699 137.027 436.549 136.983 436.389 136.95C436.236 136.917 436.083 136.9 435.929 136.9C435.649 136.9 435.423 136.937 435.249 137.01C435.076 137.083 434.989 137.197 434.989 137.35C434.989 137.47 435.069 137.567 435.229 137.64C435.396 137.713 435.599 137.783 435.839 137.85C436.079 137.91 436.343 137.977 436.629 138.05C436.916 138.123 437.179 138.22 437.419 138.34C437.659 138.453 437.859 138.603 438.019 138.79C438.186 138.977 438.269 139.217 438.269 139.51C438.269 140.017 438.083 140.417 437.709 140.71C437.343 140.997 436.796 141.14 436.069 141.14C435.496 141.14 434.999 141.057 434.579 140.89C434.166 140.717 433.833 140.517 433.579 140.29L434.179 139.35C434.266 139.423 434.379 139.507 434.519 139.6C434.666 139.687 434.829 139.767 435.009 139.84C435.189 139.913 435.379 139.977 435.579 140.03C435.786 140.077 435.989 140.1 436.189 140.1C436.403 140.1 436.586 140.063 436.739 139.99C436.893 139.917 436.969 139.793 436.969 139.62ZM449.081 138.15H450.321V141H445.721V134H447.091V139.78H449.081V138.15ZM451.528 139.9H453.288V137.1H451.528V136H454.588V139.9H456.438V141H451.528V139.9ZM453.048 134.64C453.048 134.433 453.124 134.257 453.278 134.11C453.431 133.963 453.644 133.89 453.918 133.89C454.198 133.89 454.421 133.963 454.588 134.11C454.754 134.257 454.838 134.433 454.838 134.64C454.838 134.853 454.754 135.03 454.588 135.17C454.421 135.303 454.198 135.37 453.918 135.37C453.644 135.37 453.431 135.303 453.278 135.17C453.124 135.03 453.048 134.853 453.048 134.64ZM460.954 139.62C460.954 139.487 460.87 139.38 460.704 139.3C460.544 139.22 460.344 139.147 460.104 139.08C459.864 139.013 459.6 138.947 459.314 138.88C459.027 138.807 458.764 138.71 458.524 138.59C458.284 138.463 458.08 138.307 457.914 138.12C457.754 137.927 457.674 137.68 457.674 137.38C457.674 137.133 457.727 136.917 457.834 136.73C457.947 136.543 458.097 136.387 458.284 136.26C458.477 136.127 458.704 136.027 458.964 135.96C459.23 135.893 459.517 135.86 459.824 135.86C460.15 135.86 460.437 135.883 460.684 135.93C460.93 135.977 461.144 136.033 461.324 136.1C461.51 136.167 461.667 136.243 461.794 136.33C461.927 136.41 462.04 136.483 462.134 136.55L461.584 137.44C461.484 137.38 461.367 137.32 461.234 137.26C461.107 137.193 460.97 137.133 460.824 137.08C460.684 137.027 460.534 136.983 460.374 136.95C460.22 136.917 460.067 136.9 459.914 136.9C459.634 136.9 459.407 136.937 459.234 137.01C459.06 137.083 458.974 137.197 458.974 137.35C458.974 137.47 459.054 137.567 459.214 137.64C459.38 137.713 459.584 137.783 459.824 137.85C460.064 137.91 460.327 137.977 460.614 138.05C460.9 138.123 461.164 138.22 461.404 138.34C461.644 138.453 461.844 138.603 462.004 138.79C462.17 138.977 462.254 139.217 462.254 139.51C462.254 140.017 462.067 140.417 461.694 140.71C461.327 140.997 460.78 141.14 460.054 141.14C459.48 141.14 458.984 141.057 458.564 140.89C458.15 140.717 457.817 140.517 457.564 140.29L458.164 139.35C458.25 139.423 458.364 139.507 458.504 139.6C458.65 139.687 458.814 139.767 458.994 139.84C459.174 139.913 459.364 139.977 459.564 140.03C459.77 140.077 459.974 140.1 460.174 140.1C460.387 140.1 460.57 140.063 460.724 139.99C460.877 139.917 460.954 139.793 460.954 139.62ZM464.09 137.1H463.1V136H464.09V134.86L465.39 134.49V136H468.01V137.1H465.39V138.53C465.39 139.043 465.486 139.417 465.68 139.65C465.873 139.877 466.143 139.99 466.49 139.99C466.67 139.99 466.833 139.97 466.98 139.93C467.126 139.883 467.256 139.827 467.37 139.76C467.49 139.693 467.596 139.62 467.69 139.54C467.79 139.46 467.88 139.387 467.96 139.32L468.56 140.22C468.446 140.353 468.303 140.477 468.13 140.59C467.963 140.697 467.78 140.793 467.58 140.88C467.386 140.96 467.183 141.023 466.97 141.07C466.756 141.117 466.546 141.14 466.34 141.14C465.593 141.14 465.03 140.933 464.65 140.52C464.276 140.1 464.09 139.437 464.09 138.53V137.1Z" fill="#FF7575"/>
<path d="M360.29 160.37C360.17 160.477 360.027 160.577 359.86 160.67C359.7 160.763 359.523 160.843 359.33 160.91C359.137 160.977 358.933 161.027 358.72 161.06C358.513 161.1 358.303 161.12 358.09 161.12C357.69 161.12 357.337 161.06 357.03 160.94C356.723 160.813 356.467 160.637 356.26 160.41C356.053 160.177 355.897 159.9 355.79 159.58C355.683 159.26 355.63 158.9 355.63 158.5C355.63 158.08 355.687 157.707 355.8 157.38C355.92 157.053 356.09 156.78 356.31 156.56C356.53 156.34 356.797 156.173 357.11 156.06C357.423 155.94 357.773 155.88 358.16 155.88C358.44 155.88 358.717 155.917 358.99 155.99C359.263 156.063 359.503 156.203 359.71 156.41C359.923 156.61 360.087 156.89 360.2 157.25C360.313 157.603 360.353 158.063 360.32 158.63H356.45C356.45 159.23 356.61 159.68 356.93 159.98C357.257 160.273 357.69 160.42 358.23 160.42C358.41 160.42 358.587 160.4 358.76 160.36C358.94 160.313 359.11 160.26 359.27 160.2C359.43 160.14 359.57 160.073 359.69 160C359.817 159.927 359.913 159.86 359.98 159.8L360.29 160.37ZM358.18 156.54C357.96 156.54 357.75 156.563 357.55 156.61C357.357 156.657 357.183 156.737 357.03 156.85C356.883 156.957 356.76 157.1 356.66 157.28C356.567 157.453 356.507 157.67 356.48 157.93H359.59C359.557 157.49 359.413 157.15 359.16 156.91C358.913 156.663 358.587 156.54 358.18 156.54ZM363.526 158.44L361.596 156H362.596L364.036 157.88L365.516 156H366.416L364.486 158.4L366.536 161H365.576L363.986 158.95L362.366 161H361.456L363.526 158.44ZM367.952 157.75C367.952 157.69 367.949 157.613 367.942 157.52C367.942 157.42 367.939 157.32 367.932 157.22C367.926 157.113 367.916 157.01 367.902 156.91C367.896 156.81 367.886 156.723 367.872 156.65H367.202V156H368.532L368.632 156.7H368.682C368.862 156.467 369.089 156.273 369.362 156.12C369.642 155.96 369.982 155.88 370.382 155.88C371.096 155.88 371.632 156.077 371.992 156.47C372.352 156.863 372.532 157.507 372.532 158.4C372.532 158.82 372.469 159.2 372.342 159.54C372.222 159.873 372.049 160.157 371.822 160.39C371.596 160.623 371.322 160.803 371.002 160.93C370.682 161.057 370.329 161.12 369.942 161.12C369.802 161.12 369.676 161.113 369.562 161.1C369.456 161.093 369.356 161.08 369.262 161.06C369.176 161.047 369.089 161.027 369.002 161C368.916 160.973 368.822 160.94 368.722 160.9V163H367.952V157.75ZM370.252 156.61C370.052 156.61 369.862 156.647 369.682 156.72C369.509 156.793 369.352 156.89 369.212 157.01C369.079 157.13 368.969 157.263 368.882 157.41C368.796 157.557 368.742 157.703 368.722 157.85V160.13C368.869 160.23 369.032 160.31 369.212 160.37C369.399 160.423 369.642 160.45 369.942 160.45C370.476 160.45 370.902 160.277 371.222 159.93C371.542 159.577 371.702 159.063 371.702 158.39C371.702 157.823 371.589 157.387 371.362 157.08C371.142 156.767 370.772 156.61 370.252 156.61ZM378.278 160.37C378.158 160.477 378.015 160.577 377.848 160.67C377.688 160.763 377.512 160.843 377.318 160.91C377.125 160.977 376.922 161.027 376.708 161.06C376.502 161.1 376.292 161.12 376.078 161.12C375.678 161.12 375.325 161.06 375.018 160.94C374.712 160.813 374.455 160.637 374.248 160.41C374.042 160.177 373.885 159.9 373.778 159.58C373.672 159.26 373.618 158.9 373.618 158.5C373.618 158.08 373.675 157.707 373.788 157.38C373.908 157.053 374.078 156.78 374.298 156.56C374.518 156.34 374.785 156.173 375.098 156.06C375.412 155.94 375.762 155.88 376.148 155.88C376.428 155.88 376.705 155.917 376.978 155.99C377.252 156.063 377.492 156.203 377.698 156.41C377.912 156.61 378.075 156.89 378.188 157.25C378.302 157.603 378.342 158.063 378.308 158.63H374.438C374.438 159.23 374.598 159.68 374.918 159.98C375.245 160.273 375.678 160.42 376.218 160.42C376.398 160.42 376.575 160.4 376.748 160.36C376.928 160.313 377.098 160.26 377.258 160.2C377.418 160.14 377.558 160.073 377.678 160C377.805 159.927 377.902 159.86 377.968 159.8L378.278 160.37ZM376.168 156.54C375.948 156.54 375.738 156.563 375.538 156.61C375.345 156.657 375.172 156.737 375.018 156.85C374.872 156.957 374.748 157.1 374.648 157.28C374.555 157.453 374.495 157.67 374.468 157.93H377.578C377.545 157.49 377.402 157.15 377.148 156.91C376.902 156.663 376.575 156.54 376.168 156.54ZM383.374 156.77C383.221 156.717 383.054 156.673 382.874 156.64C382.701 156.6 382.528 156.58 382.354 156.58C381.701 156.58 381.214 156.733 380.894 157.04C380.574 157.347 380.414 157.833 380.414 158.5C380.414 158.793 380.461 159.057 380.554 159.29C380.648 159.517 380.781 159.71 380.954 159.87C381.128 160.03 381.334 160.153 381.574 160.24C381.821 160.327 382.091 160.37 382.384 160.37C382.698 160.37 383.001 160.317 383.294 160.21C383.594 160.103 383.844 159.963 384.044 159.79L384.394 160.37C384.301 160.45 384.184 160.533 384.044 160.62C383.904 160.707 383.741 160.79 383.554 160.87C383.374 160.943 383.171 161.003 382.944 161.05C382.724 161.097 382.484 161.12 382.224 161.12C381.791 161.12 381.408 161.06 381.074 160.94C380.748 160.813 380.474 160.637 380.254 160.41C380.034 160.177 379.868 159.9 379.754 159.58C379.641 159.253 379.584 158.893 379.584 158.5C379.584 158.08 379.641 157.707 379.754 157.38C379.874 157.053 380.044 156.78 380.264 156.56C380.484 156.34 380.751 156.173 381.064 156.06C381.378 155.94 381.728 155.88 382.114 155.88C382.608 155.88 383.008 155.923 383.314 156.01C383.628 156.097 383.891 156.193 384.104 156.3L384.094 156.33V157.72H383.374V156.77ZM385.29 156H386.48V155.01L387.26 154.79V156H389.93V156.67H387.26V159.03C387.26 159.517 387.377 159.877 387.61 160.11C387.85 160.343 388.19 160.46 388.63 160.46C388.93 160.46 389.19 160.403 389.41 160.29C389.637 160.177 389.84 160.053 390.02 159.92L390.28 160.51C390.047 160.697 389.767 160.847 389.44 160.96C389.12 161.073 388.79 161.13 388.45 161.13C388.184 161.13 387.93 161.09 387.69 161.01C387.457 160.937 387.25 160.82 387.07 160.66C386.89 160.5 386.747 160.297 386.64 160.05C386.534 159.797 386.48 159.497 386.48 159.15V156.67H385.29V156ZM395.297 163.12C394.85 163.007 394.43 162.837 394.037 162.61C393.65 162.39 393.31 162.1 393.017 161.74C392.73 161.38 392.5 160.94 392.327 160.42C392.16 159.9 392.077 159.283 392.077 158.57C392.077 157.863 392.163 157.247 392.337 156.72C392.51 156.187 392.743 155.737 393.037 155.37C393.33 154.997 393.67 154.7 394.057 154.48C394.45 154.253 394.863 154.093 395.297 154L395.547 154.63C395.153 154.743 394.793 154.893 394.467 155.08C394.14 155.26 393.857 155.503 393.617 155.81C393.383 156.11 393.2 156.487 393.067 156.94C392.94 157.387 392.877 157.93 392.877 158.57C392.877 159.217 392.953 159.77 393.107 160.23C393.267 160.683 393.473 161.06 393.727 161.36C393.987 161.667 394.273 161.903 394.587 162.07C394.907 162.243 395.227 162.363 395.547 162.43L395.297 163.12ZM470.356 162.43C470.676 162.363 470.992 162.243 471.306 162.07C471.626 161.903 471.912 161.667 472.166 161.36C472.426 161.06 472.632 160.683 472.786 160.23C472.946 159.77 473.026 159.217 473.026 158.57C473.026 157.93 472.959 157.387 472.826 156.94C472.699 156.487 472.516 156.11 472.276 155.81C472.042 155.503 471.762 155.26 471.436 155.08C471.109 154.893 470.749 154.743 470.356 154.63L470.606 154C471.039 154.093 471.449 154.253 471.836 154.48C472.229 154.7 472.572 154.997 472.866 155.37C473.159 155.737 473.392 156.187 473.566 156.72C473.739 157.247 473.826 157.863 473.826 158.57C473.826 159.283 473.739 159.9 473.566 160.42C473.399 160.94 473.169 161.38 472.876 161.74C472.589 162.1 472.249 162.39 471.856 162.61C471.469 162.837 471.052 163.007 470.606 163.12L470.356 162.43ZM381.314 171.45C381.314 171.237 381.374 171.073 381.494 170.96C381.614 170.84 381.774 170.78 381.974 170.78C382.188 170.78 382.354 170.84 382.474 170.96C382.594 171.073 382.654 171.237 382.654 171.45C382.654 171.643 382.594 171.803 382.474 171.93C382.354 172.057 382.188 172.12 381.974 172.12C381.774 172.12 381.614 172.057 381.494 171.93C381.374 171.803 381.314 171.643 381.314 171.45ZM385.29 167H386.48V166.01L387.26 165.79V167H389.93V167.67H387.26V170.03C387.26 170.517 387.377 170.877 387.61 171.11C387.85 171.343 388.19 171.46 388.63 171.46C388.93 171.46 389.19 171.403 389.41 171.29C389.637 171.177 389.84 171.053 390.02 170.92L390.28 171.51C390.047 171.697 389.767 171.847 389.44 171.96C389.12 172.073 388.79 172.13 388.45 172.13C388.184 172.13 387.93 172.09 387.69 172.01C387.457 171.937 387.25 171.82 387.07 171.66C386.89 171.5 386.747 171.297 386.64 171.05C386.534 170.797 386.48 170.497 386.48 170.15V167.67H385.29V167ZM391.547 169.5C391.547 168.693 391.757 168.057 392.177 167.59C392.597 167.117 393.197 166.88 393.977 166.88C394.397 166.88 394.757 166.95 395.057 167.09C395.363 167.223 395.617 167.407 395.817 167.64C396.017 167.873 396.163 168.15 396.257 168.47C396.357 168.79 396.407 169.133 396.407 169.5C396.407 169.9 396.353 170.263 396.247 170.59C396.14 170.91 395.983 171.183 395.777 171.41C395.57 171.637 395.313 171.813 395.007 171.94C394.707 172.06 394.363 172.12 393.977 172.12C393.563 172.12 393.203 172.053 392.897 171.92C392.59 171.78 392.337 171.593 392.137 171.36C391.937 171.127 391.787 170.85 391.687 170.53C391.593 170.21 391.547 169.867 391.547 169.5ZM392.377 169.5C392.377 169.733 392.403 169.967 392.457 170.2C392.517 170.433 392.61 170.643 392.737 170.83C392.863 171.017 393.027 171.167 393.227 171.28C393.433 171.393 393.683 171.45 393.977 171.45C394.51 171.45 394.91 171.287 395.177 170.96C395.45 170.627 395.587 170.14 395.587 169.5C395.587 169.26 395.557 169.027 395.497 168.8C395.443 168.567 395.35 168.357 395.217 168.17C395.09 167.983 394.923 167.833 394.717 167.72C394.517 167.607 394.27 167.55 393.977 167.55C393.443 167.55 393.043 167.713 392.777 168.04C392.51 168.367 392.377 168.853 392.377 169.5ZM402.193 166.6C402.193 166.767 402.166 166.937 402.113 167.11C402.059 167.283 401.979 167.447 401.873 167.6C401.766 167.747 401.629 167.877 401.463 167.99C401.296 168.103 401.099 168.19 400.873 168.25V168.29C401.073 168.323 401.263 168.38 401.443 168.46C401.629 168.54 401.793 168.65 401.933 168.79C402.073 168.93 402.186 169.1 402.273 169.3C402.359 169.5 402.403 169.737 402.403 170.01C402.403 170.37 402.326 170.683 402.173 170.95C402.026 171.21 401.829 171.423 401.583 171.59C401.343 171.757 401.066 171.88 400.753 171.96C400.439 172.04 400.119 172.08 399.793 172.08C399.679 172.08 399.546 172.08 399.393 172.08C399.239 172.08 399.079 172.073 398.913 172.06C398.746 172.053 398.579 172.04 398.413 172.02C398.246 172.007 398.099 171.983 397.973 171.95V165.06C398.219 165.02 398.506 164.987 398.833 164.96C399.159 164.933 399.516 164.92 399.903 164.92C400.163 164.92 400.426 164.943 400.693 164.99C400.966 165.03 401.213 165.113 401.433 165.24C401.653 165.36 401.833 165.53 401.973 165.75C402.119 165.97 402.193 166.253 402.193 166.6ZM399.873 171.36C400.086 171.36 400.293 171.333 400.493 171.28C400.693 171.227 400.869 171.147 401.023 171.04C401.176 170.933 401.296 170.8 401.383 170.64C401.476 170.48 401.523 170.29 401.523 170.07C401.523 169.797 401.466 169.577 401.353 169.41C401.246 169.243 401.103 169.113 400.923 169.02C400.749 168.927 400.553 168.863 400.333 168.83C400.113 168.797 399.893 168.78 399.673 168.78H398.803V171.29C398.849 171.303 398.916 171.313 399.003 171.32C399.089 171.327 399.183 171.333 399.283 171.34C399.383 171.347 399.486 171.353 399.593 171.36C399.699 171.36 399.793 171.36 399.873 171.36ZM399.323 168.08C399.436 168.08 399.573 168.077 399.733 168.07C399.893 168.063 400.026 168.053 400.133 168.04C400.293 167.987 400.443 167.923 400.583 167.85C400.723 167.77 400.846 167.677 400.953 167.57C401.066 167.463 401.153 167.343 401.213 167.21C401.279 167.077 401.313 166.93 401.313 166.77C401.313 166.55 401.269 166.367 401.183 166.22C401.103 166.073 400.993 165.957 400.853 165.87C400.713 165.783 400.553 165.723 400.373 165.69C400.193 165.657 400.009 165.64 399.823 165.64C399.603 165.64 399.399 165.647 399.213 165.66C399.033 165.667 398.896 165.68 398.803 165.7V168.08H399.323ZM408.259 171.37C408.139 171.477 407.995 171.577 407.829 171.67C407.669 171.763 407.492 171.843 407.299 171.91C407.105 171.977 406.902 172.027 406.689 172.06C406.482 172.1 406.272 172.12 406.059 172.12C405.659 172.12 405.305 172.06 404.999 171.94C404.692 171.813 404.435 171.637 404.229 171.41C404.022 171.177 403.865 170.9 403.759 170.58C403.652 170.26 403.599 169.9 403.599 169.5C403.599 169.08 403.655 168.707 403.769 168.38C403.889 168.053 404.059 167.78 404.279 167.56C404.499 167.34 404.765 167.173 405.079 167.06C405.392 166.94 405.742 166.88 406.129 166.88C406.409 166.88 406.685 166.917 406.959 166.99C407.232 167.063 407.472 167.203 407.679 167.41C407.892 167.61 408.055 167.89 408.169 168.25C408.282 168.603 408.322 169.063 408.289 169.63H404.419C404.419 170.23 404.579 170.68 404.899 170.98C405.225 171.273 405.659 171.42 406.199 171.42C406.379 171.42 406.555 171.4 406.729 171.36C406.909 171.313 407.079 171.26 407.239 171.2C407.399 171.14 407.539 171.073 407.659 171C407.785 170.927 407.882 170.86 407.949 170.8L408.259 171.37ZM406.149 167.54C405.929 167.54 405.719 167.563 405.519 167.61C405.325 167.657 405.152 167.737 404.999 167.85C404.852 167.957 404.729 168.1 404.629 168.28C404.535 168.453 404.475 168.67 404.449 168.93H407.559C407.525 168.49 407.382 168.15 407.129 167.91C406.882 167.663 406.555 167.54 406.149 167.54ZM411.985 170.97H412.095L413.995 165H414.825L412.475 172H411.505L409.105 165H410.015L411.985 170.97ZM416.011 172V171.33H417.751V167.67H416.011V167H418.551V171.33H420.251V172H416.011ZM417.481 165.58C417.481 165.4 417.541 165.247 417.661 165.12C417.781 164.987 417.934 164.92 418.121 164.92C418.314 164.92 418.474 164.987 418.601 165.12C418.734 165.247 418.801 165.4 418.801 165.58C418.801 165.753 418.734 165.9 418.601 166.02C418.474 166.14 418.314 166.2 418.121 166.2C417.934 166.2 417.781 166.14 417.661 166.02C417.541 165.9 417.481 165.753 417.481 165.58ZM425.337 170.65C425.337 170.437 425.254 170.273 425.087 170.16C424.92 170.04 424.714 169.947 424.467 169.88C424.22 169.807 423.95 169.74 423.657 169.68C423.37 169.62 423.104 169.54 422.857 169.44C422.61 169.34 422.404 169.207 422.237 169.04C422.07 168.867 421.987 168.627 421.987 168.32C421.987 168.067 422.04 167.85 422.147 167.67C422.26 167.49 422.407 167.343 422.587 167.23C422.767 167.11 422.977 167.023 423.217 166.97C423.457 166.91 423.707 166.88 423.967 166.88C424.434 166.88 424.834 166.94 425.167 167.06C425.507 167.173 425.777 167.293 425.977 167.42L425.657 168.05C425.437 167.93 425.197 167.817 424.937 167.71C424.684 167.597 424.364 167.54 423.977 167.54C423.83 167.54 423.684 167.557 423.537 167.59C423.397 167.617 423.267 167.66 423.147 167.72C423.034 167.78 422.94 167.86 422.867 167.96C422.8 168.053 422.767 168.17 422.767 168.31C422.767 168.483 422.85 168.617 423.017 168.71C423.184 168.803 423.39 168.883 423.637 168.95C423.884 169.01 424.15 169.07 424.437 169.13C424.73 169.183 425 169.263 425.247 169.37C425.494 169.477 425.7 169.62 425.867 169.8C426.034 169.98 426.117 170.223 426.117 170.53C426.117 170.99 425.934 171.37 425.567 171.67C425.207 171.97 424.664 172.12 423.937 172.12C423.717 172.12 423.5 172.1 423.287 172.06C423.074 172.02 422.874 171.967 422.687 171.9C422.5 171.833 422.33 171.76 422.177 171.68C422.024 171.593 421.897 171.507 421.797 171.42L422.197 170.77C422.277 170.85 422.384 170.933 422.517 171.02C422.65 171.1 422.797 171.173 422.957 171.24C423.117 171.307 423.287 171.36 423.467 171.4C423.654 171.44 423.84 171.46 424.027 171.46C424.207 171.46 424.374 171.447 424.527 171.42C424.687 171.387 424.827 171.34 424.947 171.28C425.067 171.213 425.16 171.13 425.227 171.03C425.3 170.923 425.337 170.797 425.337 170.65ZM428.003 172V171.33H429.743V167.67H428.003V167H430.543V171.33H432.243V172H428.003ZM429.473 165.58C429.473 165.4 429.533 165.247 429.653 165.12C429.773 164.987 429.926 164.92 430.113 164.92C430.306 164.92 430.466 164.987 430.593 165.12C430.726 165.247 430.793 165.4 430.793 165.58C430.793 165.753 430.726 165.9 430.593 166.02C430.466 166.14 430.306 166.2 430.113 166.2C429.926 166.2 429.773 166.14 429.653 166.02C429.533 165.9 429.473 165.753 429.473 165.58ZM432.969 165H434.569V167.57H434.619C434.793 167.35 435.016 167.18 435.289 167.06C435.563 166.94 435.859 166.88 436.179 166.88C437.646 166.88 438.379 167.727 438.379 169.42C438.379 170.28 438.143 170.94 437.669 171.4C437.196 171.853 436.523 172.08 435.649 172.08C435.236 172.08 434.863 172.04 434.529 171.96C434.196 171.88 433.953 171.787 433.799 171.68V165.67H432.969V165ZM436.079 167.55C435.679 167.55 435.356 167.663 435.109 167.89C434.863 168.117 434.683 168.437 434.569 168.85V171.15C434.723 171.23 434.906 171.293 435.119 171.34C435.333 171.387 435.556 171.41 435.789 171.41C436.056 171.41 436.296 171.373 436.509 171.3C436.729 171.22 436.916 171.1 437.069 170.94C437.223 170.773 437.339 170.563 437.419 170.31C437.506 170.057 437.549 169.757 437.549 169.41C437.549 169.157 437.523 168.917 437.469 168.69C437.416 168.463 437.329 168.267 437.209 168.1C437.096 167.927 436.946 167.793 436.759 167.7C436.573 167.6 436.346 167.55 436.079 167.55ZM440.135 165H441.795V170.32C441.795 170.727 441.862 171.013 441.995 171.18C442.135 171.347 442.339 171.43 442.605 171.43C442.792 171.43 442.969 171.397 443.135 171.33C443.309 171.263 443.499 171.15 443.705 170.99L444.065 171.54C443.959 171.633 443.842 171.717 443.715 171.79C443.589 171.863 443.459 171.927 443.325 171.98C443.192 172.027 443.059 172.063 442.925 172.09C442.792 172.117 442.669 172.13 442.555 172.13C442.309 172.13 442.089 172.097 441.895 172.03C441.702 171.97 441.539 171.87 441.405 171.73C441.279 171.59 441.182 171.407 441.115 171.18C441.049 170.947 441.015 170.66 441.015 170.32V165.67H440.135V165ZM450.231 171.37C450.111 171.477 449.968 171.577 449.801 171.67C449.641 171.763 449.465 171.843 449.271 171.91C449.078 171.977 448.875 172.027 448.661 172.06C448.455 172.1 448.245 172.12 448.031 172.12C447.631 172.12 447.278 172.06 446.971 171.94C446.665 171.813 446.408 171.637 446.201 171.41C445.995 171.177 445.838 170.9 445.731 170.58C445.625 170.26 445.571 169.9 445.571 169.5C445.571 169.08 445.628 168.707 445.741 168.38C445.861 168.053 446.031 167.78 446.251 167.56C446.471 167.34 446.738 167.173 447.051 167.06C447.365 166.94 447.715 166.88 448.101 166.88C448.381 166.88 448.658 166.917 448.931 166.99C449.205 167.063 449.445 167.203 449.651 167.41C449.865 167.61 450.028 167.89 450.141 168.25C450.255 168.603 450.295 169.063 450.261 169.63H446.391C446.391 170.23 446.551 170.68 446.871 170.98C447.198 171.273 447.631 171.42 448.171 171.42C448.351 171.42 448.528 171.4 448.701 171.36C448.881 171.313 449.051 171.26 449.211 171.2C449.371 171.14 449.511 171.073 449.631 171C449.758 170.927 449.855 170.86 449.921 170.8L450.231 171.37ZM448.121 167.54C447.901 167.54 447.691 167.563 447.491 167.61C447.298 167.657 447.125 167.737 446.971 167.85C446.825 167.957 446.701 168.1 446.601 168.28C446.508 168.453 446.448 168.67 446.421 168.93H449.531C449.498 168.49 449.355 168.15 449.101 167.91C448.855 167.663 448.528 167.54 448.121 167.54ZM455.258 174.12C454.811 174.007 454.391 173.837 453.998 173.61C453.611 173.39 453.271 173.1 452.978 172.74C452.691 172.38 452.461 171.94 452.288 171.42C452.121 170.9 452.038 170.283 452.038 169.57C452.038 168.863 452.124 168.247 452.298 167.72C452.471 167.187 452.704 166.737 452.998 166.37C453.291 165.997 453.631 165.7 454.018 165.48C454.411 165.253 454.824 165.093 455.258 165L455.508 165.63C455.114 165.743 454.754 165.893 454.428 166.08C454.101 166.26 453.818 166.503 453.577 166.81C453.344 167.11 453.161 167.487 453.028 167.94C452.901 168.387 452.838 168.93 452.838 169.57C452.838 170.217 452.914 170.77 453.068 171.23C453.228 171.683 453.434 172.06 453.688 172.36C453.948 172.667 454.234 172.903 454.548 173.07C454.868 173.243 455.188 173.363 455.508 173.43L455.258 174.12ZM458.364 173.43C458.684 173.363 459 173.243 459.314 173.07C459.634 172.903 459.92 172.667 460.174 172.36C460.434 172.06 460.64 171.683 460.794 171.23C460.954 170.77 461.034 170.217 461.034 169.57C461.034 168.93 460.967 168.387 460.834 167.94C460.707 167.487 460.524 167.11 460.284 166.81C460.05 166.503 459.77 166.26 459.444 166.08C459.117 165.893 458.757 165.743 458.364 165.63L458.614 165C459.047 165.093 459.457 165.253 459.844 165.48C460.237 165.7 460.58 165.997 460.874 166.37C461.167 166.737 461.4 167.187 461.574 167.72C461.747 168.247 461.834 168.863 461.834 169.57C461.834 170.283 461.747 170.9 461.574 171.42C461.407 171.94 461.177 172.38 460.884 172.74C460.597 173.1 460.257 173.39 459.864 173.61C459.477 173.837 459.06 174.007 458.614 174.12L458.364 173.43Z" fill="white"/>
<path d="M397.013 154H398.573V156.62H398.623C398.829 156.387 399.069 156.207 399.343 156.08C399.616 155.947 399.956 155.88 400.363 155.88C400.683 155.88 400.959 155.913 401.193 155.98C401.433 156.047 401.626 156.163 401.773 156.33C401.926 156.497 402.039 156.727 402.113 157.02C402.186 157.307 402.223 157.673 402.223 158.12V161H401.443V158.27C401.443 157.983 401.426 157.733 401.393 157.52C401.359 157.307 401.293 157.13 401.193 156.99C401.099 156.843 400.969 156.733 400.803 156.66C400.636 156.587 400.423 156.55 400.163 156.55C399.983 156.55 399.806 156.583 399.633 156.65C399.459 156.71 399.299 156.797 399.153 156.91C399.013 157.017 398.889 157.15 398.783 157.31C398.683 157.463 398.613 157.633 398.573 157.82V161H397.803V154.67H397.013V154ZM404.019 161V160.33H405.759V156.67H404.019V156H406.559V160.33H408.259V161H404.019ZM405.489 154.58C405.489 154.4 405.549 154.247 405.669 154.12C405.789 153.987 405.942 153.92 406.129 153.92C406.322 153.92 406.482 153.987 406.609 154.12C406.742 154.247 406.809 154.4 406.809 154.58C406.809 154.753 406.742 154.9 406.609 155.02C406.482 155.14 406.322 155.2 406.129 155.2C405.942 155.2 405.789 155.14 405.669 155.02C405.549 154.9 405.489 154.753 405.489 154.58ZM409.205 154H410.825V158.14H411.375L413.345 156H414.285L412.075 158.37L413.895 160.33H414.545V161H413.515L411.375 158.74H410.825V161H410.055V154.67H409.205V154ZM420.251 160.37C420.131 160.477 419.988 160.577 419.821 160.67C419.661 160.763 419.484 160.843 419.291 160.91C419.098 160.977 418.894 161.027 418.681 161.06C418.474 161.1 418.264 161.12 418.051 161.12C417.651 161.12 417.298 161.06 416.991 160.94C416.684 160.813 416.428 160.637 416.221 160.41C416.014 160.177 415.858 159.9 415.751 159.58C415.644 159.26 415.591 158.9 415.591 158.5C415.591 158.08 415.648 157.707 415.761 157.38C415.881 157.053 416.051 156.78 416.271 156.56C416.491 156.34 416.758 156.173 417.071 156.06C417.384 155.94 417.734 155.88 418.121 155.88C418.401 155.88 418.678 155.917 418.951 155.99C419.224 156.063 419.464 156.203 419.671 156.41C419.884 156.61 420.048 156.89 420.161 157.25C420.274 157.603 420.314 158.063 420.281 158.63H416.411C416.411 159.23 416.571 159.68 416.891 159.98C417.218 160.273 417.651 160.42 418.191 160.42C418.371 160.42 418.548 160.4 418.721 160.36C418.901 160.313 419.071 160.26 419.231 160.2C419.391 160.14 419.531 160.073 419.651 160C419.778 159.927 419.874 159.86 419.941 159.8L420.251 160.37ZM418.141 156.54C417.921 156.54 417.711 156.563 417.511 156.61C417.318 156.657 417.144 156.737 416.991 156.85C416.844 156.957 416.721 157.1 416.621 157.28C416.528 157.453 416.468 157.67 416.441 157.93H419.551C419.518 157.49 419.374 157.15 419.121 156.91C418.874 156.663 418.548 156.54 418.141 156.54ZM425.337 159.65C425.337 159.437 425.254 159.273 425.087 159.16C424.92 159.04 424.714 158.947 424.467 158.88C424.22 158.807 423.95 158.74 423.657 158.68C423.37 158.62 423.104 158.54 422.857 158.44C422.61 158.34 422.404 158.207 422.237 158.04C422.07 157.867 421.987 157.627 421.987 157.32C421.987 157.067 422.04 156.85 422.147 156.67C422.26 156.49 422.407 156.343 422.587 156.23C422.767 156.11 422.977 156.023 423.217 155.97C423.457 155.91 423.707 155.88 423.967 155.88C424.434 155.88 424.834 155.94 425.167 156.06C425.507 156.173 425.777 156.293 425.977 156.42L425.657 157.05C425.437 156.93 425.197 156.817 424.937 156.71C424.684 156.597 424.364 156.54 423.977 156.54C423.83 156.54 423.684 156.557 423.537 156.59C423.397 156.617 423.267 156.66 423.147 156.72C423.034 156.78 422.94 156.86 422.867 156.96C422.8 157.053 422.767 157.17 422.767 157.31C422.767 157.483 422.85 157.617 423.017 157.71C423.184 157.803 423.39 157.883 423.637 157.95C423.884 158.01 424.15 158.07 424.437 158.13C424.73 158.183 425 158.263 425.247 158.37C425.494 158.477 425.7 158.62 425.867 158.8C426.034 158.98 426.117 159.223 426.117 159.53C426.117 159.99 425.934 160.37 425.567 160.67C425.207 160.97 424.664 161.12 423.937 161.12C423.717 161.12 423.5 161.1 423.287 161.06C423.074 161.02 422.874 160.967 422.687 160.9C422.5 160.833 422.33 160.76 422.177 160.68C422.024 160.593 421.897 160.507 421.797 160.42L422.197 159.77C422.277 159.85 422.384 159.933 422.517 160.02C422.65 160.1 422.797 160.173 422.957 160.24C423.117 160.307 423.287 160.36 423.467 160.4C423.654 160.44 423.84 160.46 424.027 160.46C424.207 160.46 424.374 160.447 424.527 160.42C424.687 160.387 424.827 160.34 424.947 160.28C425.067 160.213 425.16 160.13 425.227 160.03C425.3 159.923 425.337 159.797 425.337 159.65ZM431.523 157.79H428.383V161H427.553V154H428.383V157.05H431.523V154H432.353V161H431.523V157.79ZM438.239 160.37C438.119 160.477 437.976 160.577 437.809 160.67C437.649 160.763 437.473 160.843 437.279 160.91C437.086 160.977 436.883 161.027 436.669 161.06C436.463 161.1 436.253 161.12 436.039 161.12C435.639 161.12 435.286 161.06 434.979 160.94C434.673 160.813 434.416 160.637 434.209 160.41C434.003 160.177 433.846 159.9 433.739 159.58C433.633 159.26 433.579 158.9 433.579 158.5C433.579 158.08 433.636 157.707 433.749 157.38C433.869 157.053 434.039 156.78 434.259 156.56C434.479 156.34 434.746 156.173 435.059 156.06C435.373 155.94 435.723 155.88 436.109 155.88C436.389 155.88 436.666 155.917 436.939 155.99C437.213 156.063 437.453 156.203 437.659 156.41C437.873 156.61 438.036 156.89 438.149 157.25C438.263 157.603 438.303 158.063 438.269 158.63H434.399C434.399 159.23 434.559 159.68 434.879 159.98C435.206 160.273 435.639 160.42 436.179 160.42C436.359 160.42 436.536 160.4 436.709 160.36C436.889 160.313 437.059 160.26 437.219 160.2C437.379 160.14 437.519 160.073 437.639 160C437.766 159.927 437.863 159.86 437.929 159.8L438.239 160.37ZM436.129 156.54C435.909 156.54 435.699 156.563 435.499 156.61C435.306 156.657 435.133 156.737 434.979 156.85C434.833 156.957 434.709 157.1 434.609 157.28C434.516 157.453 434.456 157.67 434.429 157.93H437.539C437.506 157.49 437.363 157.15 437.109 156.91C436.863 156.663 436.536 156.54 436.129 156.54ZM440.025 156.39C440.312 156.223 440.635 156.103 440.995 156.03C441.355 155.957 441.709 155.92 442.055 155.92C442.395 155.92 442.672 155.973 442.885 156.08C443.105 156.187 443.275 156.327 443.395 156.5C443.522 156.667 443.605 156.86 443.645 157.08C443.692 157.293 443.715 157.51 443.715 157.73C443.715 157.983 443.709 158.253 443.695 158.54C443.682 158.827 443.672 159.113 443.665 159.4C443.665 159.733 443.685 160.05 443.725 160.35H444.395V161H443.065L442.975 160.25H442.925C442.885 160.31 442.825 160.387 442.745 160.48C442.665 160.573 442.559 160.667 442.425 160.76C442.299 160.847 442.142 160.923 441.955 160.99C441.769 161.057 441.549 161.09 441.295 161.09C440.802 161.09 440.412 160.963 440.125 160.71C439.839 160.457 439.695 160.11 439.695 159.67C439.695 159.33 439.769 159.047 439.915 158.82C440.069 158.593 440.285 158.42 440.565 158.3C440.845 158.18 441.182 158.11 441.575 158.09C441.975 158.07 442.422 158.097 442.915 158.17C442.949 157.863 442.952 157.61 442.925 157.41C442.905 157.203 442.852 157.04 442.765 156.92C442.685 156.8 442.569 156.717 442.415 156.67C442.269 156.617 442.085 156.59 441.865 156.59C441.565 156.59 441.279 156.633 441.005 156.72C440.732 156.8 440.489 156.883 440.275 156.97L440.025 156.39ZM441.495 160.42C441.682 160.42 441.855 160.39 442.015 160.33C442.175 160.27 442.315 160.193 442.435 160.1C442.555 160.007 442.655 159.907 442.735 159.8C442.815 159.687 442.875 159.58 442.915 159.48V158.78C442.569 158.72 442.249 158.69 441.955 158.69C441.662 158.69 441.409 158.723 441.195 158.79C440.982 158.85 440.815 158.947 440.695 159.08C440.575 159.213 440.515 159.387 440.515 159.6C440.515 159.82 440.589 160.013 440.735 160.18C440.889 160.34 441.142 160.42 441.495 160.42ZM448.431 154H450.051V159.29C450.051 159.35 450.055 159.427 450.061 159.52C450.068 159.607 450.075 159.7 450.081 159.8C450.095 159.9 450.108 160 450.121 160.1C450.135 160.193 450.148 160.277 450.161 160.35H450.831V161H449.501L449.401 160.23H449.361C449.215 160.483 448.995 160.697 448.701 160.87C448.415 161.037 448.081 161.12 447.701 161.12C446.948 161.12 446.391 160.91 446.031 160.49C445.678 160.063 445.501 159.403 445.501 158.51C445.501 158.09 445.561 157.72 445.681 157.4C445.801 157.073 445.971 156.803 446.191 156.59C446.418 156.37 446.688 156.203 447.001 156.09C447.315 155.977 447.665 155.92 448.051 155.92C448.191 155.92 448.315 155.923 448.421 155.93C448.535 155.937 448.638 155.947 448.731 155.96C448.825 155.973 448.911 155.993 448.991 156.02C449.078 156.04 449.171 156.063 449.271 156.09V154.67H448.431V154ZM447.831 160.45C448.238 160.45 448.558 160.347 448.791 160.14C449.025 159.927 449.185 159.61 449.271 159.19V156.87C449.125 156.77 448.958 156.697 448.771 156.65C448.591 156.603 448.351 156.58 448.051 156.58C447.518 156.58 447.098 156.737 446.791 157.05C446.485 157.357 446.331 157.843 446.331 158.51C446.331 158.783 446.355 159.04 446.401 159.28C446.455 159.513 446.538 159.717 446.651 159.89C446.771 160.063 446.928 160.2 447.121 160.3C447.315 160.4 447.551 160.45 447.831 160.45ZM451.988 161V160.33H453.728V156.67H451.988V156H454.528V160.33H456.228V161H451.988ZM453.458 154.58C453.458 154.4 453.518 154.247 453.638 154.12C453.758 153.987 453.911 153.92 454.098 153.92C454.291 153.92 454.451 153.987 454.578 154.12C454.711 154.247 454.778 154.4 454.778 154.58C454.778 154.753 454.711 154.9 454.578 155.02C454.451 155.14 454.291 155.2 454.098 155.2C453.911 155.2 453.758 155.14 453.638 155.02C453.518 154.9 453.458 154.753 453.458 154.58ZM457.864 157.75C457.864 157.69 457.86 157.613 457.854 157.52C457.854 157.42 457.85 157.32 457.844 157.22C457.837 157.113 457.827 157.01 457.814 156.91C457.807 156.81 457.797 156.723 457.784 156.65H457.114V156H458.454L458.544 156.81H458.594C458.66 156.697 458.747 156.587 458.854 156.48C458.967 156.367 459.097 156.267 459.244 156.18C459.39 156.087 459.554 156.013 459.734 155.96C459.914 155.907 460.104 155.88 460.304 155.88C460.61 155.88 460.88 155.913 461.114 155.98C461.354 156.047 461.55 156.167 461.704 156.34C461.864 156.507 461.984 156.737 462.064 157.03C462.144 157.317 462.184 157.683 462.184 158.13V161H461.404V158.28C461.404 157.727 461.314 157.31 461.134 157.03C460.954 156.75 460.627 156.61 460.154 156.61C459.98 156.61 459.81 156.647 459.644 156.72C459.484 156.787 459.337 156.877 459.204 156.99C459.07 157.103 458.954 157.237 458.854 157.39C458.754 157.537 458.68 157.693 458.634 157.86V161H457.864V157.75ZM468.17 161.25C468.17 161.563 468.11 161.837 467.99 162.07C467.87 162.31 467.703 162.507 467.49 162.66C467.283 162.813 467.04 162.927 466.76 163C466.48 163.08 466.176 163.12 465.85 163.12C465.456 163.12 465.113 163.08 464.82 163C464.526 162.92 464.273 162.817 464.06 162.69L464.44 161.98C464.5 162.033 464.576 162.083 464.67 162.13C464.77 162.183 464.883 162.23 465.01 162.27C465.136 162.317 465.27 162.353 465.41 162.38C465.556 162.407 465.7 162.42 465.84 162.42C466.133 162.42 466.376 162.393 466.57 162.34C466.77 162.287 466.93 162.203 467.05 162.09C467.17 161.977 467.256 161.83 467.31 161.65C467.363 161.47 467.39 161.25 467.39 160.99V160.43H467.35C467.196 160.65 467 160.82 466.76 160.94C466.52 161.06 466.21 161.12 465.83 161.12C465.07 161.12 464.51 160.91 464.15 160.49C463.796 160.063 463.62 159.403 463.62 158.51C463.62 157.657 463.846 157.013 464.3 156.58C464.753 156.14 465.426 155.92 466.32 155.92C466.733 155.92 467.083 155.95 467.37 156.01C467.663 156.063 467.93 156.133 468.17 156.22V161.25ZM465.94 160.45C466.346 160.45 466.666 160.347 466.9 160.14C467.133 159.927 467.296 159.603 467.39 159.17V156.8C467.096 156.66 466.686 156.59 466.16 156.59C465.626 156.59 465.206 156.747 464.9 157.06C464.593 157.373 464.44 157.853 464.44 158.5C464.44 158.787 464.466 159.05 464.52 159.29C464.573 159.523 464.656 159.727 464.77 159.9C464.89 160.073 465.043 160.21 465.23 160.31C465.423 160.403 465.66 160.45 465.94 160.45Z" fill="#FF7575"/>
<path d="M360.29 160.37C360.17 160.477 360.027 160.577 359.86 160.67C359.7 160.763 359.523 160.843 359.33 160.91C359.137 160.977 358.933 161.027 358.72 161.06C358.513 161.1 358.303 161.12 358.09 161.12C357.69 161.12 357.337 161.06 357.03 160.94C356.723 160.813 356.467 160.637 356.26 160.41C356.053 160.177 355.897 159.9 355.79 159.58C355.683 159.26 355.63 158.9 355.63 158.5C355.63 158.08 355.687 157.707 355.8 157.38C355.92 157.053 356.09 156.78 356.31 156.56C356.53 156.34 356.797 156.173 357.11 156.06C357.423 155.94 357.773 155.88 358.16 155.88C358.44 155.88 358.717 155.917 358.99 155.99C359.263 156.063 359.503 156.203 359.71 156.41C359.923 156.61 360.087 156.89 360.2 157.25C360.313 157.603 360.353 158.063 360.32 158.63H356.45C356.45 159.23 356.61 159.68 356.93 159.98C357.257 160.273 357.69 160.42 358.23 160.42C358.41 160.42 358.587 160.4 358.76 160.36C358.94 160.313 359.11 160.26 359.27 160.2C359.43 160.14 359.57 160.073 359.69 160C359.817 159.927 359.913 159.86 359.98 159.8L360.29 160.37ZM358.18 156.54C357.96 156.54 357.75 156.563 357.55 156.61C357.357 156.657 357.183 156.737 357.03 156.85C356.883 156.957 356.76 157.1 356.66 157.28C356.567 157.453 356.507 157.67 356.48 157.93H359.59C359.557 157.49 359.413 157.15 359.16 156.91C358.913 156.663 358.587 156.54 358.18 156.54ZM363.526 158.44L361.596 156H362.596L364.036 157.88L365.516 156H366.416L364.486 158.4L366.536 161H365.576L363.986 158.95L362.366 161H361.456L363.526 158.44ZM367.952 157.75C367.952 157.69 367.949 157.613 367.942 157.52C367.942 157.42 367.939 157.32 367.932 157.22C367.926 157.113 367.916 157.01 367.902 156.91C367.896 156.81 367.886 156.723 367.872 156.65H367.202V156H368.532L368.632 156.7H368.682C368.862 156.467 369.089 156.273 369.362 156.12C369.642 155.96 369.982 155.88 370.382 155.88C371.096 155.88 371.632 156.077 371.992 156.47C372.352 156.863 372.532 157.507 372.532 158.4C372.532 158.82 372.469 159.2 372.342 159.54C372.222 159.873 372.049 160.157 371.822 160.39C371.596 160.623 371.322 160.803 371.002 160.93C370.682 161.057 370.329 161.12 369.942 161.12C369.802 161.12 369.676 161.113 369.562 161.1C369.456 161.093 369.356 161.08 369.262 161.06C369.176 161.047 369.089 161.027 369.002 161C368.916 160.973 368.822 160.94 368.722 160.9V163H367.952V157.75ZM370.252 156.61C370.052 156.61 369.862 156.647 369.682 156.72C369.509 156.793 369.352 156.89 369.212 157.01C369.079 157.13 368.969 157.263 368.882 157.41C368.796 157.557 368.742 157.703 368.722 157.85V160.13C368.869 160.23 369.032 160.31 369.212 160.37C369.399 160.423 369.642 160.45 369.942 160.45C370.476 160.45 370.902 160.277 371.222 159.93C371.542 159.577 371.702 159.063 371.702 158.39C371.702 157.823 371.589 157.387 371.362 157.08C371.142 156.767 370.772 156.61 370.252 156.61ZM378.278 160.37C378.158 160.477 378.015 160.577 377.848 160.67C377.688 160.763 377.512 160.843 377.318 160.91C377.125 160.977 376.922 161.027 376.708 161.06C376.502 161.1 376.292 161.12 376.078 161.12C375.678 161.12 375.325 161.06 375.018 160.94C374.712 160.813 374.455 160.637 374.248 160.41C374.042 160.177 373.885 159.9 373.778 159.58C373.672 159.26 373.618 158.9 373.618 158.5C373.618 158.08 373.675 157.707 373.788 157.38C373.908 157.053 374.078 156.78 374.298 156.56C374.518 156.34 374.785 156.173 375.098 156.06C375.412 155.94 375.762 155.88 376.148 155.88C376.428 155.88 376.705 155.917 376.978 155.99C377.252 156.063 377.492 156.203 377.698 156.41C377.912 156.61 378.075 156.89 378.188 157.25C378.302 157.603 378.342 158.063 378.308 158.63H374.438C374.438 159.23 374.598 159.68 374.918 159.98C375.245 160.273 375.678 160.42 376.218 160.42C376.398 160.42 376.575 160.4 376.748 160.36C376.928 160.313 377.098 160.26 377.258 160.2C377.418 160.14 377.558 160.073 377.678 160C377.805 159.927 377.902 159.86 377.968 159.8L378.278 160.37ZM376.168 156.54C375.948 156.54 375.738 156.563 375.538 156.61C375.345 156.657 375.172 156.737 375.018 156.85C374.872 156.957 374.748 157.1 374.648 157.28C374.555 157.453 374.495 157.67 374.468 157.93H377.578C377.545 157.49 377.402 157.15 377.148 156.91C376.902 156.663 376.575 156.54 376.168 156.54ZM383.374 156.77C383.221 156.717 383.054 156.673 382.874 156.64C382.701 156.6 382.528 156.58 382.354 156.58C381.701 156.58 381.214 156.733 380.894 157.04C380.574 157.347 380.414 157.833 380.414 158.5C380.414 158.793 380.461 159.057 380.554 159.29C380.648 159.517 380.781 159.71 380.954 159.87C381.128 160.03 381.334 160.153 381.574 160.24C381.821 160.327 382.091 160.37 382.384 160.37C382.698 160.37 383.001 160.317 383.294 160.21C383.594 160.103 383.844 159.963 384.044 159.79L384.394 160.37C384.301 160.45 384.184 160.533 384.044 160.62C383.904 160.707 383.741 160.79 383.554 160.87C383.374 160.943 383.171 161.003 382.944 161.05C382.724 161.097 382.484 161.12 382.224 161.12C381.791 161.12 381.408 161.06 381.074 160.94C380.748 160.813 380.474 160.637 380.254 160.41C380.034 160.177 379.868 159.9 379.754 159.58C379.641 159.253 379.584 158.893 379.584 158.5C379.584 158.08 379.641 157.707 379.754 157.38C379.874 157.053 380.044 156.78 380.264 156.56C380.484 156.34 380.751 156.173 381.064 156.06C381.378 155.94 381.728 155.88 382.114 155.88C382.608 155.88 383.008 155.923 383.314 156.01C383.628 156.097 383.891 156.193 384.104 156.3L384.094 156.33V157.72H383.374V156.77ZM385.29 156H386.48V155.01L387.26 154.79V156H389.93V156.67H387.26V159.03C387.26 159.517 387.377 159.877 387.61 160.11C387.85 160.343 388.19 160.46 388.63 160.46C388.93 160.46 389.19 160.403 389.41 160.29C389.637 160.177 389.84 160.053 390.02 159.92L390.28 160.51C390.047 160.697 389.767 160.847 389.44 160.96C389.12 161.073 388.79 161.13 388.45 161.13C388.184 161.13 387.93 161.09 387.69 161.01C387.457 160.937 387.25 160.82 387.07 160.66C386.89 160.5 386.747 160.297 386.64 160.05C386.534 159.797 386.48 159.497 386.48 159.15V156.67H385.29V156ZM395.297 163.12C394.85 163.007 394.43 162.837 394.037 162.61C393.65 162.39 393.31 162.1 393.017 161.74C392.73 161.38 392.5 160.94 392.327 160.42C392.16 159.9 392.077 159.283 392.077 158.57C392.077 157.863 392.163 157.247 392.337 156.72C392.51 156.187 392.743 155.737 393.037 155.37C393.33 154.997 393.67 154.7 394.057 154.48C394.45 154.253 394.863 154.093 395.297 154L395.547 154.63C395.153 154.743 394.793 154.893 394.467 155.08C394.14 155.26 393.857 155.503 393.617 155.81C393.383 156.11 393.2 156.487 393.067 156.94C392.94 157.387 392.877 157.93 392.877 158.57C392.877 159.217 392.953 159.77 393.107 160.23C393.267 160.683 393.473 161.06 393.727 161.36C393.987 161.667 394.273 161.903 394.587 162.07C394.907 162.243 395.227 162.363 395.547 162.43L395.297 163.12ZM470.356 162.43C470.676 162.363 470.992 162.243 471.306 162.07C471.626 161.903 471.912 161.667 472.166 161.36C472.426 161.06 472.632 160.683 472.786 160.23C472.946 159.77 473.026 159.217 473.026 158.57C473.026 157.93 472.959 157.387 472.826 156.94C472.699 156.487 472.516 156.11 472.276 155.81C472.042 155.503 471.762 155.26 471.436 155.08C471.109 154.893 470.749 154.743 470.356 154.63L470.606 154C471.039 154.093 471.449 154.253 471.836 154.48C472.229 154.7 472.572 154.997 472.866 155.37C473.159 155.737 473.392 156.187 473.566 156.72C473.739 157.247 473.826 157.863 473.826 158.57C473.826 159.283 473.739 159.9 473.566 160.42C473.399 160.94 473.169 161.38 472.876 161.74C472.589 162.1 472.249 162.39 471.856 162.61C471.469 162.837 471.052 163.007 470.606 163.12L470.356 162.43ZM381.314 171.45C381.314 171.237 381.374 171.073 381.494 170.96C381.614 170.84 381.774 170.78 381.974 170.78C382.188 170.78 382.354 170.84 382.474 170.96C382.594 171.073 382.654 171.237 382.654 171.45C382.654 171.643 382.594 171.803 382.474 171.93C382.354 172.057 382.188 172.12 381.974 172.12C381.774 172.12 381.614 172.057 381.494 171.93C381.374 171.803 381.314 171.643 381.314 171.45ZM385.29 167H386.48V166.01L387.26 165.79V167H389.93V167.67H387.26V170.03C387.26 170.517 387.377 170.877 387.61 171.11C387.85 171.343 388.19 171.46 388.63 171.46C388.93 171.46 389.19 171.403 389.41 171.29C389.637 171.177 389.84 171.053 390.02 170.92L390.28 171.51C390.047 171.697 389.767 171.847 389.44 171.96C389.12 172.073 388.79 172.13 388.45 172.13C388.184 172.13 387.93 172.09 387.69 172.01C387.457 171.937 387.25 171.82 387.07 171.66C386.89 171.5 386.747 171.297 386.64 171.05C386.534 170.797 386.48 170.497 386.48 170.15V167.67H385.29V167ZM391.547 169.5C391.547 168.693 391.757 168.057 392.177 167.59C392.597 167.117 393.197 166.88 393.977 166.88C394.397 166.88 394.757 166.95 395.057 167.09C395.363 167.223 395.617 167.407 395.817 167.64C396.017 167.873 396.163 168.15 396.257 168.47C396.357 168.79 396.407 169.133 396.407 169.5C396.407 169.9 396.353 170.263 396.247 170.59C396.14 170.91 395.983 171.183 395.777 171.41C395.57 171.637 395.313 171.813 395.007 171.94C394.707 172.06 394.363 172.12 393.977 172.12C393.563 172.12 393.203 172.053 392.897 171.92C392.59 171.78 392.337 171.593 392.137 171.36C391.937 171.127 391.787 170.85 391.687 170.53C391.593 170.21 391.547 169.867 391.547 169.5ZM392.377 169.5C392.377 169.733 392.403 169.967 392.457 170.2C392.517 170.433 392.61 170.643 392.737 170.83C392.863 171.017 393.027 171.167 393.227 171.28C393.433 171.393 393.683 171.45 393.977 171.45C394.51 171.45 394.91 171.287 395.177 170.96C395.45 170.627 395.587 170.14 395.587 169.5C395.587 169.26 395.557 169.027 395.497 168.8C395.443 168.567 395.35 168.357 395.217 168.17C395.09 167.983 394.923 167.833 394.717 167.72C394.517 167.607 394.27 167.55 393.977 167.55C393.443 167.55 393.043 167.713 392.777 168.04C392.51 168.367 392.377 168.853 392.377 169.5ZM402.193 166.6C402.193 166.767 402.166 166.937 402.113 167.11C402.059 167.283 401.979 167.447 401.873 167.6C401.766 167.747 401.629 167.877 401.463 167.99C401.296 168.103 401.099 168.19 400.873 168.25V168.29C401.073 168.323 401.263 168.38 401.443 168.46C401.629 168.54 401.793 168.65 401.933 168.79C402.073 168.93 402.186 169.1 402.273 169.3C402.359 169.5 402.403 169.737 402.403 170.01C402.403 170.37 402.326 170.683 402.173 170.95C402.026 171.21 401.829 171.423 401.583 171.59C401.343 171.757 401.066 171.88 400.753 171.96C400.439 172.04 400.119 172.08 399.793 172.08C399.679 172.08 399.546 172.08 399.393 172.08C399.239 172.08 399.079 172.073 398.913 172.06C398.746 172.053 398.579 172.04 398.413 172.02C398.246 172.007 398.099 171.983 397.973 171.95V165.06C398.219 165.02 398.506 164.987 398.833 164.96C399.159 164.933 399.516 164.92 399.903 164.92C400.163 164.92 400.426 164.943 400.693 164.99C400.966 165.03 401.213 165.113 401.433 165.24C401.653 165.36 401.833 165.53 401.973 165.75C402.119 165.97 402.193 166.253 402.193 166.6ZM399.873 171.36C400.086 171.36 400.293 171.333 400.493 171.28C400.693 171.227 400.869 171.147 401.023 171.04C401.176 170.933 401.296 170.8 401.383 170.64C401.476 170.48 401.523 170.29 401.523 170.07C401.523 169.797 401.466 169.577 401.353 169.41C401.246 169.243 401.103 169.113 400.923 169.02C400.749 168.927 400.553 168.863 400.333 168.83C400.113 168.797 399.893 168.78 399.673 168.78H398.803V171.29C398.849 171.303 398.916 171.313 399.003 171.32C399.089 171.327 399.183 171.333 399.283 171.34C399.383 171.347 399.486 171.353 399.593 171.36C399.699 171.36 399.793 171.36 399.873 171.36ZM399.323 168.08C399.436 168.08 399.573 168.077 399.733 168.07C399.893 168.063 400.026 168.053 400.133 168.04C400.293 167.987 400.443 167.923 400.583 167.85C400.723 167.77 400.846 167.677 400.953 167.57C401.066 167.463 401.153 167.343 401.213 167.21C401.279 167.077 401.313 166.93 401.313 166.77C401.313 166.55 401.269 166.367 401.183 166.22C401.103 166.073 400.993 165.957 400.853 165.87C400.713 165.783 400.553 165.723 400.373 165.69C400.193 165.657 400.009 165.64 399.823 165.64C399.603 165.64 399.399 165.647 399.213 165.66C399.033 165.667 398.896 165.68 398.803 165.7V168.08H399.323ZM408.259 171.37C408.139 171.477 407.995 171.577 407.829 171.67C407.669 171.763 407.492 171.843 407.299 171.91C407.105 171.977 406.902 172.027 406.689 172.06C406.482 172.1 406.272 172.12 406.059 172.12C405.659 172.12 405.305 172.06 404.999 171.94C404.692 171.813 404.435 171.637 404.229 171.41C404.022 171.177 403.865 170.9 403.759 170.58C403.652 170.26 403.599 169.9 403.599 169.5C403.599 169.08 403.655 168.707 403.769 168.38C403.889 168.053 404.059 167.78 404.279 167.56C404.499 167.34 404.765 167.173 405.079 167.06C405.392 166.94 405.742 166.88 406.129 166.88C406.409 166.88 406.685 166.917 406.959 166.99C407.232 167.063 407.472 167.203 407.679 167.41C407.892 167.61 408.055 167.89 408.169 168.25C408.282 168.603 408.322 169.063 408.289 169.63H404.419C404.419 170.23 404.579 170.68 404.899 170.98C405.225 171.273 405.659 171.42 406.199 171.42C406.379 171.42 406.555 171.4 406.729 171.36C406.909 171.313 407.079 171.26 407.239 171.2C407.399 171.14 407.539 171.073 407.659 171C407.785 170.927 407.882 170.86 407.949 170.8L408.259 171.37ZM406.149 167.54C405.929 167.54 405.719 167.563 405.519 167.61C405.325 167.657 405.152 167.737 404.999 167.85C404.852 167.957 404.729 168.1 404.629 168.28C404.535 168.453 404.475 168.67 404.449 168.93H407.559C407.525 168.49 407.382 168.15 407.129 167.91C406.882 167.663 406.555 167.54 406.149 167.54ZM411.985 170.97H412.095L413.995 165H414.825L412.475 172H411.505L409.105 165H410.015L411.985 170.97ZM416.011 172V171.33H417.751V167.67H416.011V167H418.551V171.33H420.251V172H416.011ZM417.481 165.58C417.481 165.4 417.541 165.247 417.661 165.12C417.781 164.987 417.934 164.92 418.121 164.92C418.314 164.92 418.474 164.987 418.601 165.12C418.734 165.247 418.801 165.4 418.801 165.58C418.801 165.753 418.734 165.9 418.601 166.02C418.474 166.14 418.314 166.2 418.121 166.2C417.934 166.2 417.781 166.14 417.661 166.02C417.541 165.9 417.481 165.753 417.481 165.58ZM425.337 170.65C425.337 170.437 425.254 170.273 425.087 170.16C424.92 170.04 424.714 169.947 424.467 169.88C424.22 169.807 423.95 169.74 423.657 169.68C423.37 169.62 423.104 169.54 422.857 169.44C422.61 169.34 422.404 169.207 422.237 169.04C422.07 168.867 421.987 168.627 421.987 168.32C421.987 168.067 422.04 167.85 422.147 167.67C422.26 167.49 422.407 167.343 422.587 167.23C422.767 167.11 422.977 167.023 423.217 166.97C423.457 166.91 423.707 166.88 423.967 166.88C424.434 166.88 424.834 166.94 425.167 167.06C425.507 167.173 425.777 167.293 425.977 167.42L425.657 168.05C425.437 167.93 425.197 167.817 424.937 167.71C424.684 167.597 424.364 167.54 423.977 167.54C423.83 167.54 423.684 167.557 423.537 167.59C423.397 167.617 423.267 167.66 423.147 167.72C423.034 167.78 422.94 167.86 422.867 167.96C422.8 168.053 422.767 168.17 422.767 168.31C422.767 168.483 422.85 168.617 423.017 168.71C423.184 168.803 423.39 168.883 423.637 168.95C423.884 169.01 424.15 169.07 424.437 169.13C424.73 169.183 425 169.263 425.247 169.37C425.494 169.477 425.7 169.62 425.867 169.8C426.034 169.98 426.117 170.223 426.117 170.53C426.117 170.99 425.934 171.37 425.567 171.67C425.207 171.97 424.664 172.12 423.937 172.12C423.717 172.12 423.5 172.1 423.287 172.06C423.074 172.02 422.874 171.967 422.687 171.9C422.5 171.833 422.33 171.76 422.177 171.68C422.024 171.593 421.897 171.507 421.797 171.42L422.197 170.77C422.277 170.85 422.384 170.933 422.517 171.02C422.65 171.1 422.797 171.173 422.957 171.24C423.117 171.307 423.287 171.36 423.467 171.4C423.654 171.44 423.84 171.46 424.027 171.46C424.207 171.46 424.374 171.447 424.527 171.42C424.687 171.387 424.827 171.34 424.947 171.28C425.067 171.213 425.16 171.13 425.227 171.03C425.3 170.923 425.337 170.797 425.337 170.65ZM428.003 172V171.33H429.743V167.67H428.003V167H430.543V171.33H432.243V172H428.003ZM429.473 165.58C429.473 165.4 429.533 165.247 429.653 165.12C429.773 164.987 429.926 164.92 430.113 164.92C430.306 164.92 430.466 164.987 430.593 165.12C430.726 165.247 430.793 165.4 430.793 165.58C430.793 165.753 430.726 165.9 430.593 166.02C430.466 166.14 430.306 166.2 430.113 166.2C429.926 166.2 429.773 166.14 429.653 166.02C429.533 165.9 429.473 165.753 429.473 165.58ZM432.969 165H434.569V167.57H434.619C434.793 167.35 435.016 167.18 435.289 167.06C435.563 166.94 435.859 166.88 436.179 166.88C437.646 166.88 438.379 167.727 438.379 169.42C438.379 170.28 438.143 170.94 437.669 171.4C437.196 171.853 436.523 172.08 435.649 172.08C435.236 172.08 434.863 172.04 434.529 171.96C434.196 171.88 433.953 171.787 433.799 171.68V165.67H432.969V165ZM436.079 167.55C435.679 167.55 435.356 167.663 435.109 167.89C434.863 168.117 434.683 168.437 434.569 168.85V171.15C434.723 171.23 434.906 171.293 435.119 171.34C435.333 171.387 435.556 171.41 435.789 171.41C436.056 171.41 436.296 171.373 436.509 171.3C436.729 171.22 436.916 171.1 437.069 170.94C437.223 170.773 437.339 170.563 437.419 170.31C437.506 170.057 437.549 169.757 437.549 169.41C437.549 169.157 437.523 168.917 437.469 168.69C437.416 168.463 437.329 168.267 437.209 168.1C437.096 167.927 436.946 167.793 436.759 167.7C436.573 167.6 436.346 167.55 436.079 167.55ZM440.135 165H441.795V170.32C441.795 170.727 441.862 171.013 441.995 171.18C442.135 171.347 442.339 171.43 442.605 171.43C442.792 171.43 442.969 171.397 443.135 171.33C443.309 171.263 443.499 171.15 443.705 170.99L444.065 171.54C443.959 171.633 443.842 171.717 443.715 171.79C443.589 171.863 443.459 171.927 443.325 171.98C443.192 172.027 443.059 172.063 442.925 172.09C442.792 172.117 442.669 172.13 442.555 172.13C442.309 172.13 442.089 172.097 441.895 172.03C441.702 171.97 441.539 171.87 441.405 171.73C441.279 171.59 441.182 171.407 441.115 171.18C441.049 170.947 441.015 170.66 441.015 170.32V165.67H440.135V165ZM450.231 171.37C450.111 171.477 449.968 171.577 449.801 171.67C449.641 171.763 449.465 171.843 449.271 171.91C449.078 171.977 448.875 172.027 448.661 172.06C448.455 172.1 448.245 172.12 448.031 172.12C447.631 172.12 447.278 172.06 446.971 171.94C446.665 171.813 446.408 171.637 446.201 171.41C445.995 171.177 445.838 170.9 445.731 170.58C445.625 170.26 445.571 169.9 445.571 169.5C445.571 169.08 445.628 168.707 445.741 168.38C445.861 168.053 446.031 167.78 446.251 167.56C446.471 167.34 446.738 167.173 447.051 167.06C447.365 166.94 447.715 166.88 448.101 166.88C448.381 166.88 448.658 166.917 448.931 166.99C449.205 167.063 449.445 167.203 449.651 167.41C449.865 167.61 450.028 167.89 450.141 168.25C450.255 168.603 450.295 169.063 450.261 169.63H446.391C446.391 170.23 446.551 170.68 446.871 170.98C447.198 171.273 447.631 171.42 448.171 171.42C448.351 171.42 448.528 171.4 448.701 171.36C448.881 171.313 449.051 171.26 449.211 171.2C449.371 171.14 449.511 171.073 449.631 171C449.758 170.927 449.855 170.86 449.921 170.8L450.231 171.37ZM448.121 167.54C447.901 167.54 447.691 167.563 447.491 167.61C447.298 167.657 447.125 167.737 446.971 167.85C446.825 167.957 446.701 168.1 446.601 168.28C446.508 168.453 446.448 168.67 446.421 168.93H449.531C449.498 168.49 449.355 168.15 449.101 167.91C448.855 167.663 448.528 167.54 448.121 167.54ZM455.258 174.12C454.811 174.007 454.391 173.837 453.998 173.61C453.611 173.39 453.271 173.1 452.978 172.74C452.691 172.38 452.461 171.94 452.288 171.42C452.121 170.9 452.038 170.283 452.038 169.57C452.038 168.863 452.124 168.247 452.298 167.72C452.471 167.187 452.704 166.737 452.998 166.37C453.291 165.997 453.631 165.7 454.018 165.48C454.411 165.253 454.824 165.093 455.258 165L455.508 165.63C455.114 165.743 454.754 165.893 454.428 166.08C454.101 166.26 453.818 166.503 453.577 166.81C453.344 167.11 453.161 167.487 453.028 167.94C452.901 168.387 452.838 168.93 452.838 169.57C452.838 170.217 452.914 170.77 453.068 171.23C453.228 171.683 453.434 172.06 453.688 172.36C453.948 172.667 454.234 172.903 454.548 173.07C454.868 173.243 455.188 173.363 455.508 173.43L455.258 174.12ZM458.364 173.43C458.684 173.363 459 173.243 459.314 173.07C459.634 172.903 459.92 172.667 460.174 172.36C460.434 172.06 460.64 171.683 460.794 171.23C460.954 170.77 461.034 170.217 461.034 169.57C461.034 168.93 460.967 168.387 460.834 167.94C460.707 167.487 460.524 167.11 460.284 166.81C460.05 166.503 459.77 166.26 459.444 166.08C459.117 165.893 458.757 165.743 458.364 165.63L458.614 165C459.047 165.093 459.457 165.253 459.844 165.48C460.237 165.7 460.58 165.997 460.874 166.37C461.167 166.737 461.4 167.187 461.574 167.72C461.747 168.247 461.834 168.863 461.834 169.57C461.834 170.283 461.747 170.9 461.574 171.42C461.407 171.94 461.177 172.38 460.884 172.74C460.597 173.1 460.257 173.39 459.864 173.61C459.477 173.837 459.06 174.007 458.614 174.12L458.364 173.43Z" fill="white"/>
<path d="M397.013 154H398.573V156.62H398.623C398.829 156.387 399.069 156.207 399.343 156.08C399.616 155.947 399.956 155.88 400.363 155.88C400.683 155.88 400.959 155.913 401.193 155.98C401.433 156.047 401.626 156.163 401.773 156.33C401.926 156.497 402.039 156.727 402.113 157.02C402.186 157.307 402.223 157.673 402.223 158.12V161H401.443V158.27C401.443 157.983 401.426 157.733 401.393 157.52C401.359 157.307 401.293 157.13 401.193 156.99C401.099 156.843 400.969 156.733 400.803 156.66C400.636 156.587 400.423 156.55 400.163 156.55C399.983 156.55 399.806 156.583 399.633 156.65C399.459 156.71 399.299 156.797 399.153 156.91C399.013 157.017 398.889 157.15 398.783 157.31C398.683 157.463 398.613 157.633 398.573 157.82V161H397.803V154.67H397.013V154ZM404.019 161V160.33H405.759V156.67H404.019V156H406.559V160.33H408.259V161H404.019ZM405.489 154.58C405.489 154.4 405.549 154.247 405.669 154.12C405.789 153.987 405.942 153.92 406.129 153.92C406.322 153.92 406.482 153.987 406.609 154.12C406.742 154.247 406.809 154.4 406.809 154.58C406.809 154.753 406.742 154.9 406.609 155.02C406.482 155.14 406.322 155.2 406.129 155.2C405.942 155.2 405.789 155.14 405.669 155.02C405.549 154.9 405.489 154.753 405.489 154.58ZM409.205 154H410.825V158.14H411.375L413.345 156H414.285L412.075 158.37L413.895 160.33H414.545V161H413.515L411.375 158.74H410.825V161H410.055V154.67H409.205V154ZM420.251 160.37C420.131 160.477 419.988 160.577 419.821 160.67C419.661 160.763 419.484 160.843 419.291 160.91C419.098 160.977 418.894 161.027 418.681 161.06C418.474 161.1 418.264 161.12 418.051 161.12C417.651 161.12 417.298 161.06 416.991 160.94C416.684 160.813 416.428 160.637 416.221 160.41C416.014 160.177 415.858 159.9 415.751 159.58C415.644 159.26 415.591 158.9 415.591 158.5C415.591 158.08 415.648 157.707 415.761 157.38C415.881 157.053 416.051 156.78 416.271 156.56C416.491 156.34 416.758 156.173 417.071 156.06C417.384 155.94 417.734 155.88 418.121 155.88C418.401 155.88 418.678 155.917 418.951 155.99C419.224 156.063 419.464 156.203 419.671 156.41C419.884 156.61 420.048 156.89 420.161 157.25C420.274 157.603 420.314 158.063 420.281 158.63H416.411C416.411 159.23 416.571 159.68 416.891 159.98C417.218 160.273 417.651 160.42 418.191 160.42C418.371 160.42 418.548 160.4 418.721 160.36C418.901 160.313 419.071 160.26 419.231 160.2C419.391 160.14 419.531 160.073 419.651 160C419.778 159.927 419.874 159.86 419.941 159.8L420.251 160.37ZM418.141 156.54C417.921 156.54 417.711 156.563 417.511 156.61C417.318 156.657 417.144 156.737 416.991 156.85C416.844 156.957 416.721 157.1 416.621 157.28C416.528 157.453 416.468 157.67 416.441 157.93H419.551C419.518 157.49 419.374 157.15 419.121 156.91C418.874 156.663 418.548 156.54 418.141 156.54ZM425.337 159.65C425.337 159.437 425.254 159.273 425.087 159.16C424.92 159.04 424.714 158.947 424.467 158.88C424.22 158.807 423.95 158.74 423.657 158.68C423.37 158.62 423.104 158.54 422.857 158.44C422.61 158.34 422.404 158.207 422.237 158.04C422.07 157.867 421.987 157.627 421.987 157.32C421.987 157.067 422.04 156.85 422.147 156.67C422.26 156.49 422.407 156.343 422.587 156.23C422.767 156.11 422.977 156.023 423.217 155.97C423.457 155.91 423.707 155.88 423.967 155.88C424.434 155.88 424.834 155.94 425.167 156.06C425.507 156.173 425.777 156.293 425.977 156.42L425.657 157.05C425.437 156.93 425.197 156.817 424.937 156.71C424.684 156.597 424.364 156.54 423.977 156.54C423.83 156.54 423.684 156.557 423.537 156.59C423.397 156.617 423.267 156.66 423.147 156.72C423.034 156.78 422.94 156.86 422.867 156.96C422.8 157.053 422.767 157.17 422.767 157.31C422.767 157.483 422.85 157.617 423.017 157.71C423.184 157.803 423.39 157.883 423.637 157.95C423.884 158.01 424.15 158.07 424.437 158.13C424.73 158.183 425 158.263 425.247 158.37C425.494 158.477 425.7 158.62 425.867 158.8C426.034 158.98 426.117 159.223 426.117 159.53C426.117 159.99 425.934 160.37 425.567 160.67C425.207 160.97 424.664 161.12 423.937 161.12C423.717 161.12 423.5 161.1 423.287 161.06C423.074 161.02 422.874 160.967 422.687 160.9C422.5 160.833 422.33 160.76 422.177 160.68C422.024 160.593 421.897 160.507 421.797 160.42L422.197 159.77C422.277 159.85 422.384 159.933 422.517 160.02C422.65 160.1 422.797 160.173 422.957 160.24C423.117 160.307 423.287 160.36 423.467 160.4C423.654 160.44 423.84 160.46 424.027 160.46C424.207 160.46 424.374 160.447 424.527 160.42C424.687 160.387 424.827 160.34 424.947 160.28C425.067 160.213 425.16 160.13 425.227 160.03C425.3 159.923 425.337 159.797 425.337 159.65ZM431.523 157.79H428.383V161H427.553V154H428.383V157.05H431.523V154H432.353V161H431.523V157.79ZM438.239 160.37C438.119 160.477 437.976 160.577 437.809 160.67C437.649 160.763 437.473 160.843 437.279 160.91C437.086 160.977 436.883 161.027 436.669 161.06C436.463 161.1 436.253 161.12 436.039 161.12C435.639 161.12 435.286 161.06 434.979 160.94C434.673 160.813 434.416 160.637 434.209 160.41C434.003 160.177 433.846 159.9 433.739 159.58C433.633 159.26 433.579 158.9 433.579 158.5C433.579 158.08 433.636 157.707 433.749 157.38C433.869 157.053 434.039 156.78 434.259 156.56C434.479 156.34 434.746 156.173 435.059 156.06C435.373 155.94 435.723 155.88 436.109 155.88C436.389 155.88 436.666 155.917 436.939 155.99C437.213 156.063 437.453 156.203 437.659 156.41C437.873 156.61 438.036 156.89 438.149 157.25C438.263 157.603 438.303 158.063 438.269 158.63H434.399C434.399 159.23 434.559 159.68 434.879 159.98C435.206 160.273 435.639 160.42 436.179 160.42C436.359 160.42 436.536 160.4 436.709 160.36C436.889 160.313 437.059 160.26 437.219 160.2C437.379 160.14 437.519 160.073 437.639 160C437.766 159.927 437.863 159.86 437.929 159.8L438.239 160.37ZM436.129 156.54C435.909 156.54 435.699 156.563 435.499 156.61C435.306 156.657 435.133 156.737 434.979 156.85C434.833 156.957 434.709 157.1 434.609 157.28C434.516 157.453 434.456 157.67 434.429 157.93H437.539C437.506 157.49 437.363 157.15 437.109 156.91C436.863 156.663 436.536 156.54 436.129 156.54ZM440.025 156.39C440.312 156.223 440.635 156.103 440.995 156.03C441.355 155.957 441.709 155.92 442.055 155.92C442.395 155.92 442.672 155.973 442.885 156.08C443.105 156.187 443.275 156.327 443.395 156.5C443.522 156.667 443.605 156.86 443.645 157.08C443.692 157.293 443.715 157.51 443.715 157.73C443.715 157.983 443.709 158.253 443.695 158.54C443.682 158.827 443.672 159.113 443.665 159.4C443.665 159.733 443.685 160.05 443.725 160.35H444.395V161H443.065L442.975 160.25H442.925C442.885 160.31 442.825 160.387 442.745 160.48C442.665 160.573 442.559 160.667 442.425 160.76C442.299 160.847 442.142 160.923 441.955 160.99C441.769 161.057 441.549 161.09 441.295 161.09C440.802 161.09 440.412 160.963 440.125 160.71C439.839 160.457 439.695 160.11 439.695 159.67C439.695 159.33 439.769 159.047 439.915 158.82C440.069 158.593 440.285 158.42 440.565 158.3C440.845 158.18 441.182 158.11 441.575 158.09C441.975 158.07 442.422 158.097 442.915 158.17C442.949 157.863 442.952 157.61 442.925 157.41C442.905 157.203 442.852 157.04 442.765 156.92C442.685 156.8 442.569 156.717 442.415 156.67C442.269 156.617 442.085 156.59 441.865 156.59C441.565 156.59 441.279 156.633 441.005 156.72C440.732 156.8 440.489 156.883 440.275 156.97L440.025 156.39ZM441.495 160.42C441.682 160.42 441.855 160.39 442.015 160.33C442.175 160.27 442.315 160.193 442.435 160.1C442.555 160.007 442.655 159.907 442.735 159.8C442.815 159.687 442.875 159.58 442.915 159.48V158.78C442.569 158.72 442.249 158.69 441.955 158.69C441.662 158.69 441.409 158.723 441.195 158.79C440.982 158.85 440.815 158.947 440.695 159.08C440.575 159.213 440.515 159.387 440.515 159.6C440.515 159.82 440.589 160.013 440.735 160.18C440.889 160.34 441.142 160.42 441.495 160.42ZM448.431 154H450.051V159.29C450.051 159.35 450.055 159.427 450.061 159.52C450.068 159.607 450.075 159.7 450.081 159.8C450.095 159.9 450.108 160 450.121 160.1C450.135 160.193 450.148 160.277 450.161 160.35H450.831V161H449.501L449.401 160.23H449.361C449.215 160.483 448.995 160.697 448.701 160.87C448.415 161.037 448.081 161.12 447.701 161.12C446.948 161.12 446.391 160.91 446.031 160.49C445.678 160.063 445.501 159.403 445.501 158.51C445.501 158.09 445.561 157.72 445.681 157.4C445.801 157.073 445.971 156.803 446.191 156.59C446.418 156.37 446.688 156.203 447.001 156.09C447.315 155.977 447.665 155.92 448.051 155.92C448.191 155.92 448.315 155.923 448.421 155.93C448.535 155.937 448.638 155.947 448.731 155.96C448.825 155.973 448.911 155.993 448.991 156.02C449.078 156.04 449.171 156.063 449.271 156.09V154.67H448.431V154ZM447.831 160.45C448.238 160.45 448.558 160.347 448.791 160.14C449.025 159.927 449.185 159.61 449.271 159.19V156.87C449.125 156.77 448.958 156.697 448.771 156.65C448.591 156.603 448.351 156.58 448.051 156.58C447.518 156.58 447.098 156.737 446.791 157.05C446.485 157.357 446.331 157.843 446.331 158.51C446.331 158.783 446.355 159.04 446.401 159.28C446.455 159.513 446.538 159.717 446.651 159.89C446.771 160.063 446.928 160.2 447.121 160.3C447.315 160.4 447.551 160.45 447.831 160.45ZM451.988 161V160.33H453.728V156.67H451.988V156H454.528V160.33H456.228V161H451.988ZM453.458 154.58C453.458 154.4 453.518 154.247 453.638 154.12C453.758 153.987 453.911 153.92 454.098 153.92C454.291 153.92 454.451 153.987 454.578 154.12C454.711 154.247 454.778 154.4 454.778 154.58C454.778 154.753 454.711 154.9 454.578 155.02C454.451 155.14 454.291 155.2 454.098 155.2C453.911 155.2 453.758 155.14 453.638 155.02C453.518 154.9 453.458 154.753 453.458 154.58ZM457.864 157.75C457.864 157.69 457.86 157.613 457.854 157.52C457.854 157.42 457.85 157.32 457.844 157.22C457.837 157.113 457.827 157.01 457.814 156.91C457.807 156.81 457.797 156.723 457.784 156.65H457.114V156H458.454L458.544 156.81H458.594C458.66 156.697 458.747 156.587 458.854 156.48C458.967 156.367 459.097 156.267 459.244 156.18C459.39 156.087 459.554 156.013 459.734 155.96C459.914 155.907 460.104 155.88 460.304 155.88C460.61 155.88 460.88 155.913 461.114 155.98C461.354 156.047 461.55 156.167 461.704 156.34C461.864 156.507 461.984 156.737 462.064 157.03C462.144 157.317 462.184 157.683 462.184 158.13V161H461.404V158.28C461.404 157.727 461.314 157.31 461.134 157.03C460.954 156.75 460.627 156.61 460.154 156.61C459.98 156.61 459.81 156.647 459.644 156.72C459.484 156.787 459.337 156.877 459.204 156.99C459.07 157.103 458.954 157.237 458.854 157.39C458.754 157.537 458.68 157.693 458.634 157.86V161H457.864V157.75ZM468.17 161.25C468.17 161.563 468.11 161.837 467.99 162.07C467.87 162.31 467.703 162.507 467.49 162.66C467.283 162.813 467.04 162.927 466.76 163C466.48 163.08 466.176 163.12 465.85 163.12C465.456 163.12 465.113 163.08 464.82 163C464.526 162.92 464.273 162.817 464.06 162.69L464.44 161.98C464.5 162.033 464.576 162.083 464.67 162.13C464.77 162.183 464.883 162.23 465.01 162.27C465.136 162.317 465.27 162.353 465.41 162.38C465.556 162.407 465.7 162.42 465.84 162.42C466.133 162.42 466.376 162.393 466.57 162.34C466.77 162.287 466.93 162.203 467.05 162.09C467.17 161.977 467.256 161.83 467.31 161.65C467.363 161.47 467.39 161.25 467.39 160.99V160.43H467.35C467.196 160.65 467 160.82 466.76 160.94C466.52 161.06 466.21 161.12 465.83 161.12C465.07 161.12 464.51 160.91 464.15 160.49C463.796 160.063 463.62 159.403 463.62 158.51C463.62 157.657 463.846 157.013 464.3 156.58C464.753 156.14 465.426 155.92 466.32 155.92C466.733 155.92 467.083 155.95 467.37 156.01C467.663 156.063 467.93 156.133 468.17 156.22V161.25ZM465.94 160.45C466.346 160.45 466.666 160.347 466.9 160.14C467.133 159.927 467.296 159.603 467.39 159.17V156.8C467.096 156.66 466.686 156.59 466.16 156.59C465.626 156.59 465.206 156.747 464.9 157.06C464.593 157.373 464.44 157.853 464.44 158.5C464.44 158.787 464.466 159.05 464.52 159.29C464.573 159.523 464.656 159.727 464.77 159.9C464.89 160.073 465.043 160.21 465.23 160.31C465.423 160.403 465.66 160.45 465.94 160.45Z" fill="#FF7575"/>
<rect x="355" y="101" width="55" height="21" fill="#C44F59"/>
<path d="M369.924 108.3H374.808V109.642H371.431V111.545H374.566V112.887H371.431V116H369.924V108.3ZM379.996 114.295H377.697L377.169 116H375.662L378.148 108.3H379.655L382.13 116H380.546L379.996 114.295ZM378.049 113.085H379.699L378.918 110.511H378.819L378.049 113.085ZM382.785 114.658H384.732V109.642H382.785V108.3H388.197V109.642H386.239V114.658H388.197V116H382.785V114.658ZM393.341 112.865H394.705V116H389.645V108.3H391.152V114.658H393.341V112.865Z" fill="white"/>
<path d="M235 231H315.766V111H359" stroke="#C44F59" stroke-width="2" stroke-linecap="round" stroke-linejoin="round"/>
<path fill-rule="evenodd" clip-rule="evenodd" d="M250 270.399C250 274.602 247.363 278.079 243.933 278.657V278.742L242.921 278.742H212.079L211.067 278.742V278.657C207.637 278.079 205 274.602 205 270.399C205 265.791 208.169 262.056 212.079 262.056C213.718 262.056 215.227 262.713 216.427 263.815C217.308 259.871 220.008 257 223.202 257C224.923 257 226.5 257.833 227.727 259.218C228.961 257.835 230.558 257 232.303 257C235.44 257 238.1 259.696 239.029 263.429C240.146 262.561 241.484 262.056 242.921 262.056C246.831 262.056 250 265.791 250 270.399Z" fill="#56BE7B"/>
<path d="M216 172C216 170.343 217.343 169 219 169V169C220.657 169 222 170.343 222 172V279H216V172Z" fill="#524D4D"/>
<path d="M275.539 218.661C276.108 218.014 275.649 217 274.788 217H174.775C174.514 217 174.264 217.102 174.077 217.284L160.735 230.284C160.332 230.676 160.332 231.324 160.735 231.716L174.077 244.716C174.264 244.898 174.514 245 174.775 245H274.788C275.649 245 276.108 243.986 275.539 243.339L265.265 231.661C264.933 231.283 264.933 230.717 265.265 230.339L275.539 218.661Z" fill="#EEC991"/>
<path d="M189.558 235H188.601L184.709 229.004H184.67C184.68 229.163 184.691 229.346 184.704 229.551C184.717 229.753 184.727 229.969 184.733 230.2C184.743 230.428 184.748 230.661 184.748 230.898V235H183.977V227.861H184.929L188.806 233.838H188.84C188.833 233.724 188.825 233.563 188.815 233.354C188.806 233.143 188.796 232.917 188.786 232.676C188.78 232.432 188.776 232.205 188.776 231.997V227.861H189.558V235ZM195.998 232.314C195.998 232.754 195.941 233.146 195.827 233.491C195.713 233.836 195.549 234.128 195.334 234.365C195.119 234.603 194.859 234.785 194.553 234.912C194.25 235.036 193.907 235.098 193.522 235.098C193.164 235.098 192.836 235.036 192.536 234.912C192.24 234.785 191.983 234.603 191.765 234.365C191.55 234.128 191.382 233.836 191.262 233.491C191.145 233.146 191.086 232.754 191.086 232.314C191.086 231.729 191.185 231.23 191.384 230.82C191.582 230.407 191.866 230.093 192.233 229.878C192.604 229.66 193.046 229.551 193.557 229.551C194.045 229.551 194.471 229.66 194.836 229.878C195.204 230.096 195.489 230.412 195.69 230.825C195.896 231.235 195.998 231.732 195.998 232.314ZM191.926 232.314C191.926 232.744 191.983 233.117 192.097 233.433C192.211 233.748 192.386 233.993 192.624 234.165C192.862 234.338 193.168 234.424 193.542 234.424C193.913 234.424 194.217 234.338 194.455 234.165C194.696 233.993 194.873 233.748 194.987 233.433C195.101 233.117 195.158 232.744 195.158 232.314C195.158 231.888 195.101 231.52 194.987 231.211C194.873 230.898 194.698 230.658 194.46 230.488C194.222 230.319 193.915 230.234 193.537 230.234C192.98 230.234 192.572 230.418 192.312 230.786C192.054 231.154 191.926 231.663 191.926 232.314ZM200.808 227.402V229.673C200.808 229.803 200.804 229.935 200.798 230.068C200.791 230.199 200.78 230.319 200.764 230.43H200.817C200.928 230.241 201.068 230.083 201.237 229.956C201.41 229.826 201.605 229.728 201.823 229.663C202.041 229.595 202.272 229.561 202.517 229.561C202.946 229.561 203.304 229.629 203.591 229.766C203.881 229.902 204.097 230.114 204.24 230.4C204.387 230.687 204.46 231.058 204.46 231.514V235H203.659V231.567C203.659 231.121 203.557 230.788 203.352 230.566C203.15 230.345 202.839 230.234 202.419 230.234C202.022 230.234 201.704 230.311 201.467 230.464C201.232 230.614 201.063 230.835 200.959 231.128C200.858 231.421 200.808 231.779 200.808 232.202V235H199.997V227.402H200.808ZM206.94 229.648V235H206.13V229.648H206.94ZM206.545 227.646C206.678 227.646 206.792 227.69 206.887 227.778C206.984 227.863 207.033 227.996 207.033 228.179C207.033 228.358 206.984 228.491 206.887 228.579C206.792 228.667 206.678 228.711 206.545 228.711C206.405 228.711 206.288 228.667 206.193 228.579C206.102 228.491 206.057 228.358 206.057 228.179C206.057 227.996 206.102 227.863 206.193 227.778C206.288 227.69 206.405 227.646 206.545 227.646ZM209.465 227.402V231.348C209.465 231.478 209.46 231.637 209.45 231.826C209.44 232.012 209.432 232.176 209.426 232.319H209.46C209.528 232.235 209.628 232.109 209.758 231.943C209.891 231.777 210.004 231.644 210.095 231.543L211.872 229.648H212.824L210.671 231.934L212.98 235H212.004L210.114 232.466L209.465 233.062V235H208.659V227.402H209.465ZM215.974 229.551C216.429 229.551 216.82 229.652 217.146 229.854C217.471 230.055 217.72 230.339 217.893 230.703C218.065 231.064 218.151 231.488 218.151 231.973V232.476H214.455C214.465 233.104 214.621 233.582 214.924 233.911C215.227 234.24 215.653 234.404 216.203 234.404C216.542 234.404 216.841 234.373 217.102 234.312C217.362 234.25 217.632 234.159 217.912 234.038V234.751C217.642 234.871 217.373 234.959 217.106 235.015C216.843 235.07 216.53 235.098 216.169 235.098C215.655 235.098 215.205 234.993 214.821 234.785C214.44 234.574 214.144 234.264 213.933 233.857C213.721 233.451 213.615 232.952 213.615 232.363C213.615 231.787 213.711 231.289 213.903 230.869C214.099 230.446 214.372 230.12 214.724 229.893C215.078 229.665 215.495 229.551 215.974 229.551ZM215.964 230.215C215.531 230.215 215.186 230.356 214.929 230.64C214.672 230.923 214.519 231.318 214.47 231.826H217.302C217.299 231.507 217.248 231.227 217.15 230.986C217.056 230.742 216.911 230.553 216.716 230.42C216.521 230.283 216.27 230.215 215.964 230.215ZM222.99 233.535C222.99 233.877 222.904 234.165 222.731 234.399C222.562 234.631 222.318 234.805 221.999 234.922C221.683 235.039 221.306 235.098 220.866 235.098C220.492 235.098 220.168 235.068 219.895 235.01C219.621 234.951 219.382 234.868 219.177 234.761V234.014C219.395 234.121 219.655 234.219 219.958 234.307C220.261 234.395 220.57 234.438 220.886 234.438C221.348 234.438 221.683 234.364 221.892 234.214C222.1 234.064 222.204 233.861 222.204 233.604C222.204 233.457 222.162 233.328 222.077 233.218C221.996 233.104 221.857 232.995 221.662 232.891C221.467 232.783 221.197 232.666 220.852 232.539C220.51 232.409 220.214 232.28 219.963 232.153C219.715 232.023 219.523 231.865 219.387 231.68C219.253 231.494 219.187 231.253 219.187 230.957C219.187 230.505 219.369 230.158 219.733 229.917C220.101 229.673 220.583 229.551 221.179 229.551C221.501 229.551 221.802 229.583 222.082 229.648C222.365 229.71 222.629 229.795 222.873 229.902L222.6 230.552C222.378 230.457 222.142 230.378 221.892 230.312C221.641 230.247 221.385 230.215 221.125 230.215C220.751 230.215 220.463 230.277 220.261 230.4C220.062 230.524 219.963 230.693 219.963 230.908C219.963 231.074 220.008 231.211 220.1 231.318C220.194 231.426 220.344 231.527 220.549 231.621C220.754 231.715 221.024 231.826 221.359 231.953C221.695 232.077 221.984 232.205 222.229 232.339C222.473 232.469 222.66 232.629 222.79 232.817C222.924 233.003 222.99 233.242 222.99 233.535ZM229.274 230.283H227.941V235H227.131V230.283H226.184V229.893L227.131 229.624V229.268C227.131 228.818 227.198 228.454 227.331 228.174C227.465 227.891 227.658 227.682 227.912 227.549C228.166 227.415 228.475 227.349 228.84 227.349C229.045 227.349 229.232 227.367 229.401 227.402C229.574 227.438 229.725 227.479 229.855 227.524L229.646 228.164C229.535 228.128 229.41 228.096 229.27 228.066C229.133 228.034 228.993 228.018 228.85 228.018C228.54 228.018 228.311 228.118 228.161 228.32C228.015 228.519 227.941 228.831 227.941 229.258V229.648H229.274V230.283ZM234.875 232.314C234.875 232.754 234.818 233.146 234.704 233.491C234.59 233.836 234.426 234.128 234.211 234.365C233.996 234.603 233.736 234.785 233.43 234.912C233.127 235.036 232.784 235.098 232.399 235.098C232.041 235.098 231.713 235.036 231.413 234.912C231.117 234.785 230.86 234.603 230.642 234.365C230.427 234.128 230.259 233.836 230.139 233.491C230.021 233.146 229.963 232.754 229.963 232.314C229.963 231.729 230.062 231.23 230.261 230.82C230.459 230.407 230.743 230.093 231.11 229.878C231.481 229.66 231.923 229.551 232.434 229.551C232.922 229.551 233.348 229.66 233.713 229.878C234.081 230.096 234.366 230.412 234.567 230.825C234.772 231.235 234.875 231.732 234.875 232.314ZM230.803 232.314C230.803 232.744 230.86 233.117 230.974 233.433C231.088 233.748 231.263 233.993 231.501 234.165C231.739 234.338 232.045 234.424 232.419 234.424C232.79 234.424 233.094 234.338 233.332 234.165C233.573 233.993 233.75 233.748 233.864 233.433C233.978 233.117 234.035 232.744 234.035 232.314C234.035 231.888 233.978 231.52 233.864 231.211C233.75 230.898 233.575 230.658 233.337 230.488C233.099 230.319 232.792 230.234 232.414 230.234C231.857 230.234 231.449 230.418 231.188 230.786C230.931 231.154 230.803 231.663 230.803 232.314ZM240.695 229.648V235H240.031L239.914 234.248H239.87C239.759 234.434 239.616 234.59 239.44 234.717C239.265 234.844 239.066 234.938 238.845 235C238.627 235.065 238.394 235.098 238.146 235.098C237.723 235.098 237.368 235.029 237.082 234.893C236.796 234.756 236.579 234.544 236.433 234.258C236.289 233.971 236.218 233.604 236.218 233.154V229.648H237.038V233.096C237.038 233.542 237.139 233.875 237.341 234.097C237.543 234.315 237.85 234.424 238.264 234.424C238.661 234.424 238.977 234.349 239.211 234.199C239.449 234.049 239.619 233.83 239.724 233.54C239.828 233.247 239.88 232.889 239.88 232.466V229.648H240.695ZM244.943 229.551C245.578 229.551 246.058 229.707 246.384 230.02C246.709 230.329 246.872 230.827 246.872 231.514V235H246.071V231.567C246.071 231.121 245.969 230.788 245.764 230.566C245.562 230.345 245.251 230.234 244.831 230.234C244.239 230.234 243.822 230.402 243.581 230.737C243.34 231.073 243.22 231.559 243.22 232.197V235H242.409V229.648H243.063L243.186 230.42H243.229C243.343 230.231 243.488 230.073 243.664 229.946C243.84 229.816 244.037 229.718 244.255 229.653C244.473 229.585 244.702 229.551 244.943 229.551ZM250.446 235.098C249.769 235.098 249.232 234.867 248.835 234.404C248.441 233.942 248.244 233.255 248.244 232.344C248.244 231.423 248.446 230.728 248.85 230.259C249.253 229.787 249.79 229.551 250.461 229.551C250.744 229.551 250.992 229.588 251.203 229.663C251.415 229.738 251.597 229.839 251.75 229.966C251.903 230.09 252.032 230.231 252.136 230.391H252.194C252.181 230.29 252.168 230.151 252.155 229.976C252.142 229.8 252.136 229.657 252.136 229.546V227.402H252.946V235H252.292L252.17 234.238H252.136C252.035 234.398 251.906 234.543 251.75 234.673C251.597 234.803 251.413 234.907 251.198 234.985C250.987 235.06 250.736 235.098 250.446 235.098ZM250.573 234.424C251.146 234.424 251.551 234.261 251.789 233.936C252.027 233.61 252.146 233.127 252.146 232.485V232.339C252.146 231.659 252.032 231.136 251.804 230.771C251.579 230.407 251.169 230.225 250.573 230.225C250.075 230.225 249.702 230.417 249.455 230.801C249.208 231.182 249.084 231.702 249.084 232.363C249.084 233.021 249.206 233.529 249.45 233.887C249.698 234.245 250.072 234.424 250.573 234.424Z" fill="#4A4545"/>
<path d="M181.882 181.505C181.491 180.839 181.972 180 182.745 180H246.168C246.499 180 246.808 180.163 246.994 180.436L255.508 192.893C255.741 193.233 255.741 193.681 255.508 194.022L246.994 206.479C246.808 206.752 246.499 206.915 246.168 206.915H182.745C181.972 206.915 181.491 206.076 181.882 205.409L188.587 193.963C188.77 193.651 188.77 193.264 188.587 192.952L181.882 181.505Z" fill="#EEC991"/>
<path d="M211.168 193.421C211.168 193.971 211.098 194.472 210.958 194.925C210.818 195.374 210.61 195.761 210.333 196.087C210.06 196.409 209.719 196.658 209.312 196.834C208.906 197.01 208.434 197.098 207.896 197.098C207.343 197.098 206.86 197.01 206.446 196.834C206.036 196.658 205.694 196.408 205.421 196.082C205.151 195.757 204.947 195.368 204.811 194.915C204.677 194.463 204.61 193.961 204.61 193.411C204.61 192.682 204.731 192.042 204.972 191.492C205.213 190.942 205.577 190.514 206.065 190.208C206.557 189.902 207.172 189.749 207.911 189.749C208.618 189.749 209.212 189.9 209.693 190.203C210.178 190.506 210.545 190.932 210.792 191.482C211.043 192.029 211.168 192.675 211.168 193.421ZM205.484 193.421C205.484 194.026 205.571 194.55 205.743 194.993C205.916 195.436 206.179 195.778 206.534 196.019C206.892 196.259 207.346 196.38 207.896 196.38C208.45 196.38 208.902 196.259 209.254 196.019C209.609 195.778 209.871 195.436 210.04 194.993C210.209 194.55 210.294 194.026 210.294 193.421C210.294 192.5 210.1 191.78 209.713 191.263C209.329 190.742 208.728 190.481 207.911 190.481C207.358 190.481 206.902 190.6 206.544 190.838C206.186 191.076 205.919 191.414 205.743 191.854C205.571 192.29 205.484 192.812 205.484 193.421ZM217.252 194.314C217.252 194.754 217.195 195.146 217.081 195.491C216.967 195.836 216.803 196.128 216.588 196.365C216.373 196.603 216.113 196.785 215.807 196.912C215.504 197.036 215.16 197.098 214.776 197.098C214.418 197.098 214.09 197.036 213.79 196.912C213.494 196.785 213.237 196.603 213.019 196.365C212.804 196.128 212.636 195.836 212.516 195.491C212.398 195.146 212.34 194.754 212.34 194.314C212.34 193.729 212.439 193.23 212.638 192.82C212.836 192.407 213.119 192.093 213.487 191.878C213.858 191.66 214.299 191.551 214.811 191.551C215.299 191.551 215.725 191.66 216.09 191.878C216.458 192.096 216.743 192.412 216.944 192.825C217.149 193.235 217.252 193.732 217.252 194.314ZM213.18 194.314C213.18 194.744 213.237 195.117 213.351 195.433C213.465 195.748 213.64 195.993 213.878 196.165C214.116 196.338 214.422 196.424 214.796 196.424C215.167 196.424 215.471 196.338 215.709 196.165C215.95 195.993 216.127 195.748 216.241 195.433C216.355 195.117 216.412 194.744 216.412 194.314C216.412 193.888 216.355 193.52 216.241 193.211C216.127 192.898 215.951 192.658 215.714 192.488C215.476 192.319 215.169 192.234 214.791 192.234C214.234 192.234 213.826 192.418 213.565 192.786C213.308 193.154 213.18 193.663 213.18 194.314ZM221.168 191.551C221.835 191.551 222.368 191.78 222.765 192.239C223.162 192.698 223.36 193.388 223.36 194.31C223.36 194.918 223.269 195.429 223.087 195.843C222.905 196.256 222.647 196.569 222.315 196.78C221.987 196.992 221.598 197.098 221.148 197.098C220.865 197.098 220.616 197.06 220.401 196.985C220.187 196.91 220.003 196.81 219.85 196.683C219.697 196.556 219.57 196.417 219.469 196.268H219.41C219.42 196.395 219.431 196.548 219.444 196.727C219.461 196.906 219.469 197.062 219.469 197.195V199.393H218.653V191.648H219.322L219.43 192.439H219.469C219.573 192.277 219.7 192.129 219.85 191.995C219.999 191.858 220.182 191.751 220.396 191.673C220.615 191.591 220.872 191.551 221.168 191.551ZM221.026 192.234C220.655 192.234 220.356 192.306 220.128 192.449C219.903 192.592 219.739 192.807 219.635 193.094C219.531 193.377 219.475 193.733 219.469 194.163V194.319C219.469 194.772 219.518 195.154 219.615 195.467C219.716 195.779 219.881 196.017 220.108 196.18C220.34 196.342 220.649 196.424 221.036 196.424C221.368 196.424 221.645 196.334 221.866 196.155C222.088 195.976 222.252 195.727 222.359 195.408C222.47 195.086 222.525 194.716 222.525 194.3C222.525 193.668 222.402 193.167 222.154 192.796C221.91 192.422 221.534 192.234 221.026 192.234ZM228.238 195.535C228.238 195.877 228.152 196.165 227.979 196.399C227.81 196.631 227.566 196.805 227.247 196.922C226.931 197.039 226.554 197.098 226.114 197.098C225.74 197.098 225.416 197.068 225.143 197.01C224.869 196.951 224.63 196.868 224.425 196.761V196.014C224.643 196.121 224.903 196.219 225.206 196.307C225.509 196.395 225.818 196.438 226.134 196.438C226.596 196.438 226.931 196.364 227.14 196.214C227.348 196.064 227.452 195.861 227.452 195.604C227.452 195.457 227.41 195.328 227.325 195.218C227.244 195.104 227.105 194.995 226.91 194.891C226.715 194.783 226.445 194.666 226.1 194.539C225.758 194.409 225.462 194.28 225.211 194.153C224.964 194.023 224.771 193.865 224.635 193.68C224.501 193.494 224.435 193.253 224.435 192.957C224.435 192.505 224.617 192.158 224.981 191.917C225.349 191.673 225.831 191.551 226.427 191.551C226.749 191.551 227.05 191.583 227.33 191.648C227.613 191.71 227.877 191.795 228.121 191.902L227.848 192.552C227.626 192.457 227.39 192.378 227.14 192.312C226.889 192.247 226.633 192.215 226.373 192.215C225.999 192.215 225.711 192.277 225.509 192.4C225.31 192.524 225.211 192.693 225.211 192.908C225.211 193.074 225.257 193.211 225.348 193.318C225.442 193.426 225.592 193.527 225.797 193.621C226.002 193.715 226.272 193.826 226.607 193.953C226.943 194.077 227.232 194.205 227.477 194.339C227.721 194.469 227.908 194.629 228.038 194.817C228.172 195.003 228.238 195.242 228.238 195.535ZM230.274 195.018H229.742L229.518 189.861H230.499L230.274 195.018ZM229.42 196.492C229.42 196.264 229.475 196.103 229.586 196.009C229.697 195.911 229.835 195.862 230.001 195.862C230.164 195.862 230.3 195.911 230.411 196.009C230.525 196.103 230.582 196.264 230.582 196.492C230.582 196.717 230.525 196.881 230.411 196.985C230.3 197.086 230.164 197.137 230.001 197.137C229.835 197.137 229.697 197.086 229.586 196.985C229.475 196.881 229.42 196.717 229.42 196.492Z" fill="#4A4545"/>
<path fill-rule="evenodd" clip-rule="evenodd" d="M202 272.471C202 275.606 203.873 278.148 206.184 278.148H222.32V277.927C224.396 277.57 226 275.224 226 272.383C226 269.296 224.106 266.793 221.769 266.793C220.225 266.793 218.873 267.887 218.135 269.521C217.722 266.936 216.028 265 214 265C211.924 265 210.198 267.029 209.838 269.705C209.123 267.968 207.754 266.793 206.184 266.793C203.873 266.793 202 269.335 202 272.471Z" fill="#65DC90"/>
<line x1="162" y1="278.5" x2="269" y2="278.5" stroke="#56BE7B"/>
<defs>
<linearGradient id="paint0_linear_27_57" x1="415.5" y1="81" x2="415.5" y2="194" gradientUnits="userSpaceOnUse">
<stop stop-color="#132846"/>
<stop offset="1" stop-color="#482762"/>
</linearGradient>
</defs>
</svg>
