<svg width="480" height="323" viewBox="0 0 480 323" fill="none" xmlns="http://www.w3.org/2000/svg">
<rect width="480" height="323" fill="white"/>
<path d="M4 5C4 2.23858 6.23858 0 9 0H475C477.761 0 480 2.23858 480 5V315C480 317.761 477.761 320 475 320H8.99999C6.23857 320 4 317.761 4 315V5Z" fill="#3F6AC3"/>
<path d="M6 6.99999C6 4.23857 8.23858 2 11 2H473C475.761 2 478 4.23858 478 7V315C478 316.657 476.657 318 475 318H11C8.23858 318 6 315.761 6 313V6.99999Z" fill="#EBEBEB"/>
<path d="M6 31H311V318H9C7.34315 318 6 316.657 6 315V31Z" fill="white"/>
<path d="M318 49H478V176H318V49Z" fill="white"/>
<path d="M203 210H300.473V83H331" stroke="#C44F59" stroke-width="3" stroke-linecap="round" stroke-linejoin="round"/>
<path d="M318 181H478V315C478 316.657 476.657 318 475 318H318V181Z" fill="white"/>
<path d="M331 102.03C331.36 102.03 331.713 102.123 332.06 102.31C332.407 102.497 332.673 102.763 332.86 103.11C333.053 103.45 333.15 103.807 333.15 104.18C333.15 104.773 332.94 105.28 332.52 105.7C332.1 106.12 331.593 106.33 331 106.33C330.407 106.33 329.9 106.12 329.48 105.7C329.06 105.28 328.85 104.773 328.85 104.18C328.85 103.807 328.947 103.45 329.14 103.11C329.333 102.763 329.6 102.497 329.94 102.31C330.287 102.123 330.64 102.03 331 102.03Z" fill="black"/>
<path d="M340.392 100H345.592V101.83H344.852V100.74H343.402V106.26H344.502V107H341.472V106.26H342.572V100.74H341.132V101.83H340.392V100ZM346.558 104.5C346.558 103.693 346.768 103.057 347.188 102.59C347.608 102.117 348.208 101.88 348.988 101.88C349.408 101.88 349.768 101.95 350.068 102.09C350.375 102.223 350.628 102.407 350.828 102.64C351.028 102.873 351.175 103.15 351.268 103.47C351.368 103.79 351.418 104.133 351.418 104.5C351.418 104.9 351.365 105.263 351.258 105.59C351.152 105.91 350.995 106.183 350.788 106.41C350.582 106.637 350.325 106.813 350.018 106.94C349.718 107.06 349.375 107.12 348.988 107.12C348.575 107.12 348.215 107.053 347.908 106.92C347.602 106.78 347.348 106.593 347.148 106.36C346.948 106.127 346.798 105.85 346.698 105.53C346.605 105.21 346.558 104.867 346.558 104.5ZM347.388 104.5C347.388 104.733 347.415 104.967 347.468 105.2C347.528 105.433 347.622 105.643 347.748 105.83C347.875 106.017 348.038 106.167 348.238 106.28C348.445 106.393 348.695 106.45 348.988 106.45C349.522 106.45 349.922 106.287 350.188 105.96C350.462 105.627 350.598 105.14 350.598 104.5C350.598 104.26 350.568 104.027 350.508 103.8C350.455 103.567 350.362 103.357 350.228 103.17C350.102 102.983 349.935 102.833 349.728 102.72C349.528 102.607 349.282 102.55 348.988 102.55C348.455 102.55 348.055 102.713 347.788 103.04C347.522 103.367 347.388 103.853 347.388 104.5ZM357.224 107.25C357.224 107.563 357.164 107.837 357.044 108.07C356.924 108.31 356.758 108.507 356.544 108.66C356.338 108.813 356.094 108.927 355.814 109C355.534 109.08 355.231 109.12 354.904 109.12C354.511 109.12 354.168 109.08 353.874 109C353.581 108.92 353.328 108.817 353.114 108.69L353.494 107.98C353.554 108.033 353.631 108.083 353.724 108.13C353.824 108.183 353.938 108.23 354.064 108.27C354.191 108.317 354.324 108.353 354.464 108.38C354.611 108.407 354.754 108.42 354.894 108.42C355.188 108.42 355.431 108.393 355.624 108.34C355.824 108.287 355.984 108.203 356.104 108.09C356.224 107.977 356.311 107.83 356.364 107.65C356.418 107.47 356.444 107.25 356.444 106.99V106.43H356.404C356.251 106.65 356.054 106.82 355.814 106.94C355.574 107.06 355.264 107.12 354.884 107.12C354.124 107.12 353.564 106.91 353.204 106.49C352.851 106.063 352.674 105.403 352.674 104.51C352.674 103.657 352.901 103.013 353.354 102.58C353.808 102.14 354.481 101.92 355.374 101.92C355.788 101.92 356.138 101.95 356.424 102.01C356.718 102.063 356.984 102.133 357.224 102.22V107.25ZM354.994 106.45C355.401 106.45 355.721 106.347 355.954 106.14C356.188 105.927 356.351 105.603 356.444 105.17V102.8C356.151 102.66 355.741 102.59 355.214 102.59C354.681 102.59 354.261 102.747 353.954 103.06C353.648 103.373 353.494 103.853 353.494 104.5C353.494 104.787 353.521 105.05 353.574 105.29C353.628 105.523 353.711 105.727 353.824 105.9C353.944 106.073 354.098 106.21 354.284 106.31C354.478 106.403 354.714 106.45 354.994 106.45ZM363.22 107.25C363.22 107.563 363.16 107.837 363.04 108.07C362.92 108.31 362.754 108.507 362.54 108.66C362.334 108.813 362.09 108.927 361.81 109C361.53 109.08 361.227 109.12 360.9 109.12C360.507 109.12 360.164 109.08 359.87 109C359.577 108.92 359.324 108.817 359.11 108.69L359.49 107.98C359.55 108.033 359.627 108.083 359.72 108.13C359.82 108.183 359.934 108.23 360.06 108.27C360.187 108.317 360.32 108.353 360.46 108.38C360.607 108.407 360.75 108.42 360.89 108.42C361.184 108.42 361.427 108.393 361.62 108.34C361.82 108.287 361.98 108.203 362.1 108.09C362.22 107.977 362.307 107.83 362.36 107.65C362.414 107.47 362.44 107.25 362.44 106.99V106.43H362.4C362.247 106.65 362.05 106.82 361.81 106.94C361.57 107.06 361.26 107.12 360.88 107.12C360.12 107.12 359.56 106.91 359.2 106.49C358.847 106.063 358.67 105.403 358.67 104.51C358.67 103.657 358.897 103.013 359.35 102.58C359.804 102.14 360.477 101.92 361.37 101.92C361.784 101.92 362.134 101.95 362.42 102.01C362.714 102.063 362.98 102.133 363.22 102.22V107.25ZM360.99 106.45C361.397 106.45 361.717 106.347 361.95 106.14C362.184 105.927 362.347 105.603 362.44 105.17V102.8C362.147 102.66 361.737 102.59 361.21 102.59C360.677 102.59 360.257 102.747 359.95 103.06C359.644 103.373 359.49 103.853 359.49 104.5C359.49 104.787 359.517 105.05 359.57 105.29C359.624 105.523 359.707 105.727 359.82 105.9C359.94 106.073 360.094 106.21 360.28 106.31C360.474 106.403 360.71 106.45 360.99 106.45ZM365.167 100H366.827V105.32C366.827 105.727 366.893 106.013 367.027 106.18C367.167 106.347 367.37 106.43 367.637 106.43C367.823 106.43 368 106.397 368.167 106.33C368.34 106.263 368.53 106.15 368.737 105.99L369.097 106.54C368.99 106.633 368.873 106.717 368.747 106.79C368.62 106.863 368.49 106.927 368.357 106.98C368.223 107.027 368.09 107.063 367.957 107.09C367.823 107.117 367.7 107.13 367.587 107.13C367.34 107.13 367.12 107.097 366.927 107.03C366.733 106.97 366.57 106.87 366.437 106.73C366.31 106.59 366.213 106.407 366.147 106.18C366.08 105.947 366.047 105.66 366.047 105.32V100.67H365.167V100ZM375.263 106.37C375.143 106.477 374.999 106.577 374.833 106.67C374.673 106.763 374.496 106.843 374.303 106.91C374.109 106.977 373.906 107.027 373.693 107.06C373.486 107.1 373.276 107.12 373.063 107.12C372.663 107.12 372.309 107.06 372.003 106.94C371.696 106.813 371.439 106.637 371.233 106.41C371.026 106.177 370.869 105.9 370.763 105.58C370.656 105.26 370.603 104.9 370.603 104.5C370.603 104.08 370.659 103.707 370.773 103.38C370.893 103.053 371.063 102.78 371.283 102.56C371.503 102.34 371.769 102.173 372.083 102.06C372.396 101.94 372.746 101.88 373.133 101.88C373.413 101.88 373.689 101.917 373.963 101.99C374.236 102.063 374.476 102.203 374.683 102.41C374.896 102.61 375.059 102.89 375.173 103.25C375.286 103.603 375.326 104.063 375.293 104.63H371.423C371.423 105.23 371.583 105.68 371.903 105.98C372.229 106.273 372.663 106.42 373.203 106.42C373.383 106.42 373.559 106.4 373.733 106.36C373.913 106.313 374.083 106.26 374.243 106.2C374.403 106.14 374.543 106.073 374.663 106C374.789 105.927 374.886 105.86 374.953 105.8L375.263 106.37ZM373.153 102.54C372.933 102.54 372.723 102.563 372.523 102.61C372.329 102.657 372.156 102.737 372.003 102.85C371.856 102.957 371.733 103.1 371.633 103.28C371.539 103.453 371.479 103.67 371.453 103.93H374.563C374.529 103.49 374.386 103.15 374.133 102.91C373.886 102.663 373.559 102.54 373.153 102.54ZM386.535 103.79H383.395V107H382.565V100H383.395V103.05H386.535V100H387.365V107H386.535V103.79ZM389.011 107V106.33H390.751V102.67H389.011V102H391.551V106.33H393.251V107H389.011ZM390.481 100.58C390.481 100.4 390.541 100.247 390.661 100.12C390.781 99.9867 390.934 99.92 391.121 99.92C391.314 99.92 391.474 99.9867 391.601 100.12C391.734 100.247 391.801 100.4 391.801 100.58C391.801 100.753 391.734 100.9 391.601 101.02C391.474 101.14 391.314 101.2 391.121 101.2C390.934 101.2 390.781 101.14 390.661 101.02C390.541 100.9 390.481 100.753 390.481 100.58ZM394.197 100H395.817V104.14H396.367L398.337 102H399.277L397.067 104.37L398.887 106.33H399.537V107H398.507L396.367 104.74H395.817V107H395.047V100.67H394.197V100ZM405.243 106.37C405.123 106.477 404.98 106.577 404.813 106.67C404.653 106.763 404.476 106.843 404.283 106.91C404.09 106.977 403.886 107.027 403.673 107.06C403.466 107.1 403.256 107.12 403.043 107.12C402.643 107.12 402.29 107.06 401.983 106.94C401.676 106.813 401.42 106.637 401.213 106.41C401.006 106.177 400.85 105.9 400.743 105.58C400.636 105.26 400.583 104.9 400.583 104.5C400.583 104.08 400.64 103.707 400.753 103.38C400.873 103.053 401.043 102.78 401.263 102.56C401.483 102.34 401.75 102.173 402.063 102.06C402.376 101.94 402.726 101.88 403.113 101.88C403.393 101.88 403.67 101.917 403.943 101.99C404.216 102.063 404.456 102.203 404.663 102.41C404.876 102.61 405.04 102.89 405.153 103.25C405.266 103.603 405.306 104.063 405.273 104.63H401.403C401.403 105.23 401.563 105.68 401.883 105.98C402.21 106.273 402.643 106.42 403.183 106.42C403.363 106.42 403.54 106.4 403.713 106.36C403.893 106.313 404.063 106.26 404.223 106.2C404.383 106.14 404.523 106.073 404.643 106C404.77 105.927 404.866 105.86 404.933 105.8L405.243 106.37ZM403.133 102.54C402.913 102.54 402.703 102.563 402.503 102.61C402.31 102.657 402.136 102.737 401.983 102.85C401.836 102.957 401.713 103.1 401.613 103.28C401.52 103.453 401.46 103.67 401.433 103.93H404.543C404.51 103.49 404.366 103.15 404.113 102.91C403.866 102.663 403.54 102.54 403.133 102.54ZM410.329 105.65C410.329 105.437 410.246 105.273 410.079 105.16C409.913 105.04 409.706 104.947 409.459 104.88C409.213 104.807 408.943 104.74 408.649 104.68C408.363 104.62 408.096 104.54 407.849 104.44C407.603 104.34 407.396 104.207 407.229 104.04C407.063 103.867 406.979 103.627 406.979 103.32C406.979 103.067 407.033 102.85 407.139 102.67C407.253 102.49 407.399 102.343 407.579 102.23C407.759 102.11 407.969 102.023 408.209 101.97C408.449 101.91 408.699 101.88 408.959 101.88C409.426 101.88 409.826 101.94 410.159 102.06C410.499 102.173 410.769 102.293 410.969 102.42L410.649 103.05C410.429 102.93 410.189 102.817 409.929 102.71C409.676 102.597 409.356 102.54 408.969 102.54C408.823 102.54 408.676 102.557 408.529 102.59C408.389 102.617 408.259 102.66 408.139 102.72C408.026 102.78 407.933 102.86 407.859 102.96C407.793 103.053 407.759 103.17 407.759 103.31C407.759 103.483 407.843 103.617 408.009 103.71C408.176 103.803 408.383 103.883 408.629 103.95C408.876 104.01 409.143 104.07 409.429 104.13C409.723 104.183 409.993 104.263 410.239 104.37C410.486 104.477 410.693 104.62 410.859 104.8C411.026 104.98 411.109 105.223 411.109 105.53C411.109 105.99 410.926 106.37 410.559 106.67C410.199 106.97 409.656 107.12 408.929 107.12C408.709 107.12 408.493 107.1 408.279 107.06C408.066 107.02 407.866 106.967 407.679 106.9C407.493 106.833 407.323 106.76 407.169 106.68C407.016 106.593 406.889 106.507 406.789 106.42L407.189 105.77C407.269 105.85 407.376 105.933 407.509 106.02C407.643 106.1 407.789 106.173 407.949 106.24C408.109 106.307 408.279 106.36 408.459 106.4C408.646 106.44 408.833 106.46 409.019 106.46C409.199 106.46 409.366 106.447 409.519 106.42C409.679 106.387 409.819 106.34 409.939 106.28C410.059 106.213 410.153 106.13 410.219 106.03C410.293 105.923 410.329 105.797 410.329 105.65ZM418.841 100H419.671V106.26H422.501V104.52H423.241V107H418.841V100ZM424.988 107V106.33H426.728V102.67H424.988V102H427.528V106.33H429.228V107H424.988ZM426.458 100.58C426.458 100.4 426.518 100.247 426.638 100.12C426.758 99.9867 426.911 99.92 427.098 99.92C427.291 99.92 427.451 99.9867 427.578 100.12C427.711 100.247 427.778 100.4 427.778 100.58C427.778 100.753 427.711 100.9 427.578 101.02C427.451 101.14 427.291 101.2 427.098 101.2C426.911 101.2 426.758 101.14 426.638 101.02C426.518 100.9 426.458 100.753 426.458 100.58ZM434.314 105.65C434.314 105.437 434.23 105.273 434.064 105.16C433.897 105.04 433.69 104.947 433.444 104.88C433.197 104.807 432.927 104.74 432.634 104.68C432.347 104.62 432.08 104.54 431.834 104.44C431.587 104.34 431.38 104.207 431.214 104.04C431.047 103.867 430.964 103.627 430.964 103.32C430.964 103.067 431.017 102.85 431.124 102.67C431.237 102.49 431.384 102.343 431.564 102.23C431.744 102.11 431.954 102.023 432.194 101.97C432.434 101.91 432.684 101.88 432.944 101.88C433.41 101.88 433.81 101.94 434.144 102.06C434.484 102.173 434.754 102.293 434.954 102.42L434.634 103.05C434.414 102.93 434.174 102.817 433.914 102.71C433.66 102.597 433.34 102.54 432.954 102.54C432.807 102.54 432.66 102.557 432.514 102.59C432.374 102.617 432.244 102.66 432.124 102.72C432.01 102.78 431.917 102.86 431.844 102.96C431.777 103.053 431.744 103.17 431.744 103.31C431.744 103.483 431.827 103.617 431.994 103.71C432.16 103.803 432.367 103.883 432.614 103.95C432.86 104.01 433.127 104.07 433.414 104.13C433.707 104.183 433.977 104.263 434.224 104.37C434.47 104.477 434.677 104.62 434.844 104.8C435.01 104.98 435.094 105.223 435.094 105.53C435.094 105.99 434.91 106.37 434.544 106.67C434.184 106.97 433.64 107.12 432.914 107.12C432.694 107.12 432.477 107.1 432.264 107.06C432.05 107.02 431.85 106.967 431.664 106.9C431.477 106.833 431.307 106.76 431.154 106.68C431 106.593 430.874 106.507 430.774 106.42L431.174 105.77C431.254 105.85 431.36 105.933 431.494 106.02C431.627 106.1 431.774 106.173 431.934 106.24C432.094 106.307 432.264 106.36 432.444 106.4C432.63 106.44 432.817 106.46 433.004 106.46C433.184 106.46 433.35 106.447 433.504 106.42C433.664 106.387 433.804 106.34 433.924 106.28C434.044 106.213 434.137 106.13 434.204 106.03C434.277 105.923 434.314 105.797 434.314 105.65ZM436.24 102H437.43V101.01L438.21 100.79V102H440.88V102.67H438.21V105.03C438.21 105.517 438.326 105.877 438.56 106.11C438.8 106.343 439.14 106.46 439.58 106.46C439.88 106.46 440.14 106.403 440.36 106.29C440.586 106.177 440.79 106.053 440.97 105.92L441.23 106.51C440.996 106.697 440.716 106.847 440.39 106.96C440.07 107.073 439.74 107.13 439.4 107.13C439.133 107.13 438.88 107.09 438.64 107.01C438.406 106.937 438.2 106.82 438.02 106.66C437.84 106.5 437.696 106.297 437.59 106.05C437.483 105.797 437.43 105.497 437.43 105.15V102.67H436.24V102Z" fill="#524D4D"/>
<path d="M333.29 124.37C333.17 124.477 333.027 124.577 332.86 124.67C332.7 124.763 332.523 124.843 332.33 124.91C332.137 124.977 331.933 125.027 331.72 125.06C331.513 125.1 331.303 125.12 331.09 125.12C330.69 125.12 330.337 125.06 330.03 124.94C329.723 124.813 329.467 124.637 329.26 124.41C329.053 124.177 328.897 123.9 328.79 123.58C328.683 123.26 328.63 122.9 328.63 122.5C328.63 122.08 328.687 121.707 328.8 121.38C328.92 121.053 329.09 120.78 329.31 120.56C329.53 120.34 329.797 120.173 330.11 120.06C330.423 119.94 330.773 119.88 331.16 119.88C331.44 119.88 331.717 119.917 331.99 119.99C332.263 120.063 332.503 120.203 332.71 120.41C332.923 120.61 333.087 120.89 333.2 121.25C333.313 121.603 333.353 122.063 333.32 122.63H329.45C329.45 123.23 329.61 123.68 329.93 123.98C330.257 124.273 330.69 124.42 331.23 124.42C331.41 124.42 331.587 124.4 331.76 124.36C331.94 124.313 332.11 124.26 332.27 124.2C332.43 124.14 332.57 124.073 332.69 124C332.817 123.927 332.913 123.86 332.98 123.8L333.29 124.37ZM331.18 120.54C330.96 120.54 330.75 120.563 330.55 120.61C330.357 120.657 330.183 120.737 330.03 120.85C329.883 120.957 329.76 121.1 329.66 121.28C329.567 121.453 329.507 121.67 329.48 121.93H332.59C332.557 121.49 332.413 121.15 332.16 120.91C331.913 120.663 331.587 120.54 331.18 120.54ZM336.526 122.44L334.596 120H335.596L337.036 121.88L338.516 120H339.416L337.486 122.4L339.536 125H338.576L336.986 122.95L335.366 125H334.456L336.526 122.44ZM340.952 121.75C340.952 121.69 340.949 121.613 340.942 121.52C340.942 121.42 340.939 121.32 340.932 121.22C340.926 121.113 340.916 121.01 340.902 120.91C340.896 120.81 340.886 120.723 340.872 120.65H340.202V120H341.532L341.632 120.7H341.682C341.862 120.467 342.089 120.273 342.362 120.12C342.642 119.96 342.982 119.88 343.382 119.88C344.096 119.88 344.632 120.077 344.992 120.47C345.352 120.863 345.532 121.507 345.532 122.4C345.532 122.82 345.469 123.2 345.342 123.54C345.222 123.873 345.049 124.157 344.822 124.39C344.596 124.623 344.322 124.803 344.002 124.93C343.682 125.057 343.329 125.12 342.942 125.12C342.802 125.12 342.676 125.113 342.562 125.1C342.456 125.093 342.356 125.08 342.262 125.06C342.176 125.047 342.089 125.027 342.002 125C341.916 124.973 341.822 124.94 341.722 124.9V127H340.952V121.75ZM343.252 120.61C343.052 120.61 342.862 120.647 342.682 120.72C342.509 120.793 342.352 120.89 342.212 121.01C342.079 121.13 341.969 121.263 341.882 121.41C341.796 121.557 341.742 121.703 341.722 121.85V124.13C341.869 124.23 342.032 124.31 342.212 124.37C342.399 124.423 342.642 124.45 342.942 124.45C343.476 124.45 343.902 124.277 344.222 123.93C344.542 123.577 344.702 123.063 344.702 122.39C344.702 121.823 344.589 121.387 344.362 121.08C344.142 120.767 343.772 120.61 343.252 120.61ZM351.278 124.37C351.158 124.477 351.015 124.577 350.848 124.67C350.688 124.763 350.512 124.843 350.318 124.91C350.125 124.977 349.922 125.027 349.708 125.06C349.502 125.1 349.292 125.12 349.078 125.12C348.678 125.12 348.325 125.06 348.018 124.94C347.712 124.813 347.455 124.637 347.248 124.41C347.042 124.177 346.885 123.9 346.778 123.58C346.672 123.26 346.618 122.9 346.618 122.5C346.618 122.08 346.675 121.707 346.788 121.38C346.908 121.053 347.078 120.78 347.298 120.56C347.518 120.34 347.785 120.173 348.098 120.06C348.412 119.94 348.762 119.88 349.148 119.88C349.428 119.88 349.705 119.917 349.978 119.99C350.252 120.063 350.492 120.203 350.698 120.41C350.912 120.61 351.075 120.89 351.188 121.25C351.302 121.603 351.342 122.063 351.308 122.63H347.438C347.438 123.23 347.598 123.68 347.918 123.98C348.245 124.273 348.678 124.42 349.218 124.42C349.398 124.42 349.575 124.4 349.748 124.36C349.928 124.313 350.098 124.26 350.258 124.2C350.418 124.14 350.558 124.073 350.678 124C350.805 123.927 350.902 123.86 350.968 123.8L351.278 124.37ZM349.168 120.54C348.948 120.54 348.738 120.563 348.538 120.61C348.345 120.657 348.172 120.737 348.018 120.85C347.872 120.957 347.748 121.1 347.648 121.28C347.555 121.453 347.495 121.67 347.468 121.93H350.578C350.545 121.49 350.402 121.15 350.148 120.91C349.902 120.663 349.575 120.54 349.168 120.54ZM356.374 120.77C356.221 120.717 356.054 120.673 355.874 120.64C355.701 120.6 355.528 120.58 355.354 120.58C354.701 120.58 354.214 120.733 353.894 121.04C353.574 121.347 353.414 121.833 353.414 122.5C353.414 122.793 353.461 123.057 353.554 123.29C353.648 123.517 353.781 123.71 353.954 123.87C354.128 124.03 354.334 124.153 354.574 124.24C354.821 124.327 355.091 124.37 355.384 124.37C355.698 124.37 356.001 124.317 356.294 124.21C356.594 124.103 356.844 123.963 357.044 123.79L357.394 124.37C357.301 124.45 357.184 124.533 357.044 124.62C356.904 124.707 356.741 124.79 356.554 124.87C356.374 124.943 356.171 125.003 355.944 125.05C355.724 125.097 355.484 125.12 355.224 125.12C354.791 125.12 354.408 125.06 354.074 124.94C353.748 124.813 353.474 124.637 353.254 124.41C353.034 124.177 352.868 123.9 352.754 123.58C352.641 123.253 352.584 122.893 352.584 122.5C352.584 122.08 352.641 121.707 352.754 121.38C352.874 121.053 353.044 120.78 353.264 120.56C353.484 120.34 353.751 120.173 354.064 120.06C354.378 119.94 354.728 119.88 355.114 119.88C355.608 119.88 356.008 119.923 356.314 120.01C356.628 120.097 356.891 120.193 357.104 120.3L357.094 120.33V121.72H356.374V120.77ZM358.29 120H359.48V119.01L360.26 118.79V120H362.93V120.67H360.26V123.03C360.26 123.517 360.377 123.877 360.61 124.11C360.85 124.343 361.19 124.46 361.63 124.46C361.93 124.46 362.19 124.403 362.41 124.29C362.637 124.177 362.84 124.053 363.02 123.92L363.28 124.51C363.047 124.697 362.767 124.847 362.44 124.96C362.12 125.073 361.79 125.13 361.45 125.13C361.184 125.13 360.93 125.09 360.69 125.01C360.457 124.937 360.25 124.82 360.07 124.66C359.89 124.5 359.747 124.297 359.64 124.05C359.534 123.797 359.48 123.497 359.48 123.15V120.67H358.29V120ZM368.297 127.12C367.85 127.007 367.43 126.837 367.037 126.61C366.65 126.39 366.31 126.1 366.017 125.74C365.73 125.38 365.5 124.94 365.327 124.42C365.16 123.9 365.077 123.283 365.077 122.57C365.077 121.863 365.163 121.247 365.337 120.72C365.51 120.187 365.743 119.737 366.037 119.37C366.33 118.997 366.67 118.7 367.057 118.48C367.45 118.253 367.863 118.093 368.297 118L368.547 118.63C368.153 118.743 367.793 118.893 367.467 119.08C367.14 119.26 366.857 119.503 366.617 119.81C366.383 120.11 366.2 120.487 366.067 120.94C365.94 121.387 365.877 121.93 365.877 122.57C365.877 123.217 365.953 123.77 366.107 124.23C366.267 124.683 366.473 125.06 366.727 125.36C366.987 125.667 367.273 125.903 367.587 126.07C367.907 126.243 368.227 126.363 368.547 126.43L368.297 127.12ZM370.013 118H371.573V120.62H371.623C371.829 120.387 372.069 120.207 372.343 120.08C372.616 119.947 372.956 119.88 373.363 119.88C373.683 119.88 373.959 119.913 374.193 119.98C374.433 120.047 374.626 120.163 374.773 120.33C374.926 120.497 375.039 120.727 375.113 121.02C375.186 121.307 375.223 121.673 375.223 122.12V125H374.443V122.27C374.443 121.983 374.426 121.733 374.393 121.52C374.359 121.307 374.293 121.13 374.193 120.99C374.099 120.843 373.969 120.733 373.803 120.66C373.636 120.587 373.423 120.55 373.163 120.55C372.983 120.55 372.806 120.583 372.633 120.65C372.459 120.71 372.299 120.797 372.153 120.91C372.013 121.017 371.889 121.15 371.783 121.31C371.683 121.463 371.613 121.633 371.573 121.82V125H370.803V118.67H370.013V118ZM377.019 125V124.33H378.759V120.67H377.019V120H379.559V124.33H381.259V125H377.019ZM378.489 118.58C378.489 118.4 378.549 118.247 378.669 118.12C378.789 117.987 378.942 117.92 379.129 117.92C379.322 117.92 379.482 117.987 379.609 118.12C379.742 118.247 379.809 118.4 379.809 118.58C379.809 118.753 379.742 118.9 379.609 119.02C379.482 119.14 379.322 119.2 379.129 119.2C378.942 119.2 378.789 119.14 378.669 119.02C378.549 118.9 378.489 118.753 378.489 118.58ZM382.205 118H383.825V122.14H384.375L386.345 120H387.285L385.075 122.37L386.895 124.33H387.545V125H386.515L384.375 122.74H383.825V125H383.055V118.67H382.205V118ZM393.251 124.37C393.131 124.477 392.988 124.577 392.821 124.67C392.661 124.763 392.484 124.843 392.291 124.91C392.098 124.977 391.894 125.027 391.681 125.06C391.474 125.1 391.264 125.12 391.051 125.12C390.651 125.12 390.298 125.06 389.991 124.94C389.684 124.813 389.428 124.637 389.221 124.41C389.014 124.177 388.858 123.9 388.751 123.58C388.644 123.26 388.591 122.9 388.591 122.5C388.591 122.08 388.648 121.707 388.761 121.38C388.881 121.053 389.051 120.78 389.271 120.56C389.491 120.34 389.758 120.173 390.071 120.06C390.384 119.94 390.734 119.88 391.121 119.88C391.401 119.88 391.678 119.917 391.951 119.99C392.224 120.063 392.464 120.203 392.671 120.41C392.884 120.61 393.048 120.89 393.161 121.25C393.274 121.603 393.314 122.063 393.281 122.63H389.411C389.411 123.23 389.571 123.68 389.891 123.98C390.218 124.273 390.651 124.42 391.191 124.42C391.371 124.42 391.548 124.4 391.721 124.36C391.901 124.313 392.071 124.26 392.231 124.2C392.391 124.14 392.531 124.073 392.651 124C392.778 123.927 392.874 123.86 392.941 123.8L393.251 124.37ZM391.141 120.54C390.921 120.54 390.711 120.563 390.511 120.61C390.318 120.657 390.144 120.737 389.991 120.85C389.844 120.957 389.721 121.1 389.621 121.28C389.528 121.453 389.468 121.67 389.441 121.93H392.551C392.518 121.49 392.374 121.15 392.121 120.91C391.874 120.663 391.548 120.54 391.141 120.54ZM398.337 123.65C398.337 123.437 398.254 123.273 398.087 123.16C397.92 123.04 397.714 122.947 397.467 122.88C397.22 122.807 396.95 122.74 396.657 122.68C396.37 122.62 396.104 122.54 395.857 122.44C395.61 122.34 395.404 122.207 395.237 122.04C395.07 121.867 394.987 121.627 394.987 121.32C394.987 121.067 395.04 120.85 395.147 120.67C395.26 120.49 395.407 120.343 395.587 120.23C395.767 120.11 395.977 120.023 396.217 119.97C396.457 119.91 396.707 119.88 396.967 119.88C397.434 119.88 397.834 119.94 398.167 120.06C398.507 120.173 398.777 120.293 398.977 120.42L398.657 121.05C398.437 120.93 398.197 120.817 397.937 120.71C397.684 120.597 397.364 120.54 396.977 120.54C396.83 120.54 396.684 120.557 396.537 120.59C396.397 120.617 396.267 120.66 396.147 120.72C396.034 120.78 395.94 120.86 395.867 120.96C395.8 121.053 395.767 121.17 395.767 121.31C395.767 121.483 395.85 121.617 396.017 121.71C396.184 121.803 396.39 121.883 396.637 121.95C396.884 122.01 397.15 122.07 397.437 122.13C397.73 122.183 398 122.263 398.247 122.37C398.494 122.477 398.7 122.62 398.867 122.8C399.034 122.98 399.117 123.223 399.117 123.53C399.117 123.99 398.934 124.37 398.567 124.67C398.207 124.97 397.664 125.12 396.937 125.12C396.717 125.12 396.5 125.1 396.287 125.06C396.074 125.02 395.874 124.967 395.687 124.9C395.5 124.833 395.33 124.76 395.177 124.68C395.024 124.593 394.897 124.507 394.797 124.42L395.197 123.77C395.277 123.85 395.384 123.933 395.517 124.02C395.65 124.1 395.797 124.173 395.957 124.24C396.117 124.307 396.287 124.36 396.467 124.4C396.654 124.44 396.84 124.46 397.027 124.46C397.207 124.46 397.374 124.447 397.527 124.42C397.687 124.387 397.827 124.34 397.947 124.28C398.067 124.213 398.16 124.13 398.227 124.03C398.3 123.923 398.337 123.797 398.337 123.65ZM404.523 121.79H401.383V125H400.553V118H401.383V121.05H404.523V118H405.353V125H404.523V121.79ZM411.239 124.37C411.119 124.477 410.976 124.577 410.809 124.67C410.649 124.763 410.473 124.843 410.279 124.91C410.086 124.977 409.883 125.027 409.669 125.06C409.463 125.1 409.253 125.12 409.039 125.12C408.639 125.12 408.286 125.06 407.979 124.94C407.673 124.813 407.416 124.637 407.209 124.41C407.003 124.177 406.846 123.9 406.739 123.58C406.633 123.26 406.579 122.9 406.579 122.5C406.579 122.08 406.636 121.707 406.749 121.38C406.869 121.053 407.039 120.78 407.259 120.56C407.479 120.34 407.746 120.173 408.059 120.06C408.373 119.94 408.723 119.88 409.109 119.88C409.389 119.88 409.666 119.917 409.939 119.99C410.213 120.063 410.453 120.203 410.659 120.41C410.873 120.61 411.036 120.89 411.149 121.25C411.263 121.603 411.303 122.063 411.269 122.63H407.399C407.399 123.23 407.559 123.68 407.879 123.98C408.206 124.273 408.639 124.42 409.179 124.42C409.359 124.42 409.536 124.4 409.709 124.36C409.889 124.313 410.059 124.26 410.219 124.2C410.379 124.14 410.519 124.073 410.639 124C410.766 123.927 410.863 123.86 410.929 123.8L411.239 124.37ZM409.129 120.54C408.909 120.54 408.699 120.563 408.499 120.61C408.306 120.657 408.133 120.737 407.979 120.85C407.833 120.957 407.709 121.1 407.609 121.28C407.516 121.453 407.456 121.67 407.429 121.93H410.539C410.506 121.49 410.363 121.15 410.109 120.91C409.863 120.663 409.536 120.54 409.129 120.54ZM413.025 120.39C413.312 120.223 413.635 120.103 413.995 120.03C414.355 119.957 414.709 119.92 415.055 119.92C415.395 119.92 415.672 119.973 415.885 120.08C416.105 120.187 416.275 120.327 416.395 120.5C416.522 120.667 416.605 120.86 416.645 121.08C416.692 121.293 416.715 121.51 416.715 121.73C416.715 121.983 416.709 122.253 416.695 122.54C416.682 122.827 416.672 123.113 416.665 123.4C416.665 123.733 416.685 124.05 416.725 124.35H417.395V125H416.065L415.975 124.25H415.925C415.885 124.31 415.825 124.387 415.745 124.48C415.665 124.573 415.559 124.667 415.425 124.76C415.299 124.847 415.142 124.923 414.955 124.99C414.769 125.057 414.549 125.09 414.295 125.09C413.802 125.09 413.412 124.963 413.125 124.71C412.839 124.457 412.695 124.11 412.695 123.67C412.695 123.33 412.769 123.047 412.915 122.82C413.069 122.593 413.285 122.42 413.565 122.3C413.845 122.18 414.182 122.11 414.575 122.09C414.975 122.07 415.422 122.097 415.915 122.17C415.949 121.863 415.952 121.61 415.925 121.41C415.905 121.203 415.852 121.04 415.765 120.92C415.685 120.8 415.569 120.717 415.415 120.67C415.269 120.617 415.085 120.59 414.865 120.59C414.565 120.59 414.279 120.633 414.005 120.72C413.732 120.8 413.489 120.883 413.275 120.97L413.025 120.39ZM414.495 124.42C414.682 124.42 414.855 124.39 415.015 124.33C415.175 124.27 415.315 124.193 415.435 124.1C415.555 124.007 415.655 123.907 415.735 123.8C415.815 123.687 415.875 123.58 415.915 123.48V122.78C415.569 122.72 415.249 122.69 414.955 122.69C414.662 122.69 414.409 122.723 414.195 122.79C413.982 122.85 413.815 122.947 413.695 123.08C413.575 123.213 413.515 123.387 413.515 123.6C413.515 123.82 413.589 124.013 413.735 124.18C413.889 124.34 414.142 124.42 414.495 124.42ZM421.431 118H423.051V123.29C423.051 123.35 423.055 123.427 423.061 123.52C423.068 123.607 423.075 123.7 423.081 123.8C423.095 123.9 423.108 124 423.121 124.1C423.135 124.193 423.148 124.277 423.161 124.35H423.831V125H422.501L422.401 124.23H422.361C422.215 124.483 421.995 124.697 421.701 124.87C421.415 125.037 421.081 125.12 420.701 125.12C419.948 125.12 419.391 124.91 419.031 124.49C418.678 124.063 418.501 123.403 418.501 122.51C418.501 122.09 418.561 121.72 418.681 121.4C418.801 121.073 418.971 120.803 419.191 120.59C419.418 120.37 419.688 120.203 420.001 120.09C420.315 119.977 420.665 119.92 421.051 119.92C421.191 119.92 421.315 119.923 421.421 119.93C421.535 119.937 421.638 119.947 421.731 119.96C421.825 119.973 421.911 119.993 421.991 120.02C422.078 120.04 422.171 120.063 422.271 120.09V118.67H421.431V118ZM420.831 124.45C421.238 124.45 421.558 124.347 421.791 124.14C422.025 123.927 422.185 123.61 422.271 123.19V120.87C422.125 120.77 421.958 120.697 421.771 120.65C421.591 120.603 421.351 120.58 421.051 120.58C420.518 120.58 420.098 120.737 419.791 121.05C419.485 121.357 419.331 121.843 419.331 122.51C419.331 122.783 419.355 123.04 419.401 123.28C419.455 123.513 419.538 123.717 419.651 123.89C419.771 124.063 419.928 124.2 420.121 124.3C420.315 124.4 420.551 124.45 420.831 124.45ZM424.988 125V124.33H426.728V120.67H424.988V120H427.528V124.33H429.228V125H424.988ZM426.458 118.58C426.458 118.4 426.518 118.247 426.638 118.12C426.758 117.987 426.911 117.92 427.098 117.92C427.291 117.92 427.451 117.987 427.578 118.12C427.711 118.247 427.778 118.4 427.778 118.58C427.778 118.753 427.711 118.9 427.578 119.02C427.451 119.14 427.291 119.2 427.098 119.2C426.911 119.2 426.758 119.14 426.638 119.02C426.518 118.9 426.458 118.753 426.458 118.58ZM430.864 121.75C430.864 121.69 430.86 121.613 430.854 121.52C430.854 121.42 430.85 121.32 430.844 121.22C430.837 121.113 430.827 121.01 430.814 120.91C430.807 120.81 430.797 120.723 430.784 120.65H430.114V120H431.454L431.544 120.81H431.594C431.66 120.697 431.747 120.587 431.854 120.48C431.967 120.367 432.097 120.267 432.244 120.18C432.39 120.087 432.554 120.013 432.734 119.96C432.914 119.907 433.104 119.88 433.304 119.88C433.61 119.88 433.88 119.913 434.114 119.98C434.354 120.047 434.55 120.167 434.704 120.34C434.864 120.507 434.984 120.737 435.064 121.03C435.144 121.317 435.184 121.683 435.184 122.13V125H434.404V122.28C434.404 121.727 434.314 121.31 434.134 121.03C433.954 120.75 433.627 120.61 433.154 120.61C432.98 120.61 432.81 120.647 432.644 120.72C432.484 120.787 432.337 120.877 432.204 120.99C432.07 121.103 431.954 121.237 431.854 121.39C431.754 121.537 431.68 121.693 431.634 121.86V125H430.864V121.75ZM441.17 125.25C441.17 125.563 441.11 125.837 440.99 126.07C440.87 126.31 440.703 126.507 440.49 126.66C440.283 126.813 440.04 126.927 439.76 127C439.48 127.08 439.176 127.12 438.85 127.12C438.456 127.12 438.113 127.08 437.82 127C437.526 126.92 437.273 126.817 437.06 126.69L437.44 125.98C437.5 126.033 437.576 126.083 437.67 126.13C437.77 126.183 437.883 126.23 438.01 126.27C438.136 126.317 438.27 126.353 438.41 126.38C438.556 126.407 438.7 126.42 438.84 126.42C439.133 126.42 439.376 126.393 439.57 126.34C439.77 126.287 439.93 126.203 440.05 126.09C440.17 125.977 440.256 125.83 440.31 125.65C440.363 125.47 440.39 125.25 440.39 124.99V124.43H440.35C440.196 124.65 440 124.82 439.76 124.94C439.52 125.06 439.21 125.12 438.83 125.12C438.07 125.12 437.51 124.91 437.15 124.49C436.796 124.063 436.62 123.403 436.62 122.51C436.62 121.657 436.846 121.013 437.3 120.58C437.753 120.14 438.426 119.92 439.32 119.92C439.733 119.92 440.083 119.95 440.37 120.01C440.663 120.063 440.93 120.133 441.17 120.22V125.25ZM438.94 124.45C439.346 124.45 439.666 124.347 439.9 124.14C440.133 123.927 440.296 123.603 440.39 123.17V120.8C440.096 120.66 439.686 120.59 439.16 120.59C438.626 120.59 438.206 120.747 437.9 121.06C437.593 121.373 437.44 121.853 437.44 122.5C437.44 122.787 437.466 123.05 437.52 123.29C437.573 123.523 437.656 123.727 437.77 123.9C437.89 124.073 438.043 124.21 438.23 124.31C438.423 124.403 438.66 124.45 438.94 124.45ZM443.356 126.43C443.676 126.363 443.992 126.243 444.306 126.07C444.626 125.903 444.912 125.667 445.166 125.36C445.426 125.06 445.632 124.683 445.786 124.23C445.946 123.77 446.026 123.217 446.026 122.57C446.026 121.93 445.959 121.387 445.826 120.94C445.699 120.487 445.516 120.11 445.276 119.81C445.042 119.503 444.762 119.26 444.436 119.08C444.109 118.893 443.749 118.743 443.356 118.63L443.606 118C444.039 118.093 444.449 118.253 444.836 118.48C445.229 118.7 445.572 118.997 445.866 119.37C446.159 119.737 446.392 120.187 446.566 120.72C446.739 121.247 446.826 121.863 446.826 122.57C446.826 123.283 446.739 123.9 446.566 124.42C446.399 124.94 446.169 125.38 445.876 125.74C445.589 126.1 445.249 126.39 444.856 126.61C444.469 126.837 444.052 127.007 443.606 127.12L443.356 126.43ZM354.314 135.45C354.314 135.237 354.374 135.073 354.494 134.96C354.614 134.84 354.774 134.78 354.974 134.78C355.188 134.78 355.354 134.84 355.474 134.96C355.594 135.073 355.654 135.237 355.654 135.45C355.654 135.643 355.594 135.803 355.474 135.93C355.354 136.057 355.188 136.12 354.974 136.12C354.774 136.12 354.614 136.057 354.494 135.93C354.374 135.803 354.314 135.643 354.314 135.45ZM358.29 131H359.48V130.01L360.26 129.79V131H362.93V131.67H360.26V134.03C360.26 134.517 360.377 134.877 360.61 135.11C360.85 135.343 361.19 135.46 361.63 135.46C361.93 135.46 362.19 135.403 362.41 135.29C362.637 135.177 362.84 135.053 363.02 134.92L363.28 135.51C363.047 135.697 362.767 135.847 362.44 135.96C362.12 136.073 361.79 136.13 361.45 136.13C361.184 136.13 360.93 136.09 360.69 136.01C360.457 135.937 360.25 135.82 360.07 135.66C359.89 135.5 359.747 135.297 359.64 135.05C359.534 134.797 359.48 134.497 359.48 134.15V131.67H358.29V131ZM364.547 133.5C364.547 132.693 364.757 132.057 365.177 131.59C365.597 131.117 366.197 130.88 366.977 130.88C367.397 130.88 367.757 130.95 368.057 131.09C368.363 131.223 368.617 131.407 368.817 131.64C369.017 131.873 369.163 132.15 369.257 132.47C369.357 132.79 369.407 133.133 369.407 133.5C369.407 133.9 369.353 134.263 369.247 134.59C369.14 134.91 368.983 135.183 368.777 135.41C368.57 135.637 368.313 135.813 368.007 135.94C367.707 136.06 367.363 136.12 366.977 136.12C366.563 136.12 366.203 136.053 365.897 135.92C365.59 135.78 365.337 135.593 365.137 135.36C364.937 135.127 364.787 134.85 364.687 134.53C364.593 134.21 364.547 133.867 364.547 133.5ZM365.377 133.5C365.377 133.733 365.403 133.967 365.457 134.2C365.517 134.433 365.61 134.643 365.737 134.83C365.863 135.017 366.027 135.167 366.227 135.28C366.433 135.393 366.683 135.45 366.977 135.45C367.51 135.45 367.91 135.287 368.177 134.96C368.45 134.627 368.587 134.14 368.587 133.5C368.587 133.26 368.557 133.027 368.497 132.8C368.443 132.567 368.35 132.357 368.217 132.17C368.09 131.983 367.923 131.833 367.717 131.72C367.517 131.607 367.27 131.55 366.977 131.55C366.443 131.55 366.043 131.713 365.777 132.04C365.51 132.367 365.377 132.853 365.377 133.5ZM375.193 130.6C375.193 130.767 375.166 130.937 375.113 131.11C375.059 131.283 374.979 131.447 374.873 131.6C374.766 131.747 374.629 131.877 374.463 131.99C374.296 132.103 374.099 132.19 373.873 132.25V132.29C374.073 132.323 374.263 132.38 374.443 132.46C374.629 132.54 374.793 132.65 374.933 132.79C375.073 132.93 375.186 133.1 375.273 133.3C375.359 133.5 375.403 133.737 375.403 134.01C375.403 134.37 375.326 134.683 375.173 134.95C375.026 135.21 374.829 135.423 374.583 135.59C374.343 135.757 374.066 135.88 373.753 135.96C373.439 136.04 373.119 136.08 372.793 136.08C372.679 136.08 372.546 136.08 372.393 136.08C372.239 136.08 372.079 136.073 371.913 136.06C371.746 136.053 371.579 136.04 371.413 136.02C371.246 136.007 371.099 135.983 370.973 135.95V129.06C371.219 129.02 371.506 128.987 371.833 128.96C372.159 128.933 372.516 128.92 372.903 128.92C373.163 128.92 373.426 128.943 373.693 128.99C373.966 129.03 374.213 129.113 374.433 129.24C374.653 129.36 374.833 129.53 374.973 129.75C375.119 129.97 375.193 130.253 375.193 130.6ZM372.873 135.36C373.086 135.36 373.293 135.333 373.493 135.28C373.693 135.227 373.869 135.147 374.023 135.04C374.176 134.933 374.296 134.8 374.383 134.64C374.476 134.48 374.523 134.29 374.523 134.07C374.523 133.797 374.466 133.577 374.353 133.41C374.246 133.243 374.103 133.113 373.923 133.02C373.749 132.927 373.553 132.863 373.333 132.83C373.113 132.797 372.893 132.78 372.673 132.78H371.803V135.29C371.849 135.303 371.916 135.313 372.003 135.32C372.089 135.327 372.183 135.333 372.283 135.34C372.383 135.347 372.486 135.353 372.593 135.36C372.699 135.36 372.793 135.36 372.873 135.36ZM372.323 132.08C372.436 132.08 372.573 132.077 372.733 132.07C372.893 132.063 373.026 132.053 373.133 132.04C373.293 131.987 373.443 131.923 373.583 131.85C373.723 131.77 373.846 131.677 373.953 131.57C374.066 131.463 374.153 131.343 374.213 131.21C374.279 131.077 374.313 130.93 374.313 130.77C374.313 130.55 374.269 130.367 374.183 130.22C374.103 130.073 373.993 129.957 373.853 129.87C373.713 129.783 373.553 129.723 373.373 129.69C373.193 129.657 373.009 129.64 372.823 129.64C372.603 129.64 372.399 129.647 372.213 129.66C372.033 129.667 371.896 129.68 371.803 129.7V132.08H372.323ZM381.259 135.37C381.139 135.477 380.995 135.577 380.829 135.67C380.669 135.763 380.492 135.843 380.299 135.91C380.105 135.977 379.902 136.027 379.689 136.06C379.482 136.1 379.272 136.12 379.059 136.12C378.659 136.12 378.305 136.06 377.999 135.94C377.692 135.813 377.435 135.637 377.229 135.41C377.022 135.177 376.865 134.9 376.759 134.58C376.652 134.26 376.599 133.9 376.599 133.5C376.599 133.08 376.655 132.707 376.769 132.38C376.889 132.053 377.059 131.78 377.279 131.56C377.499 131.34 377.765 131.173 378.079 131.06C378.392 130.94 378.742 130.88 379.129 130.88C379.409 130.88 379.685 130.917 379.959 130.99C380.232 131.063 380.472 131.203 380.679 131.41C380.892 131.61 381.055 131.89 381.169 132.25C381.282 132.603 381.322 133.063 381.289 133.63H377.419C377.419 134.23 377.579 134.68 377.899 134.98C378.225 135.273 378.659 135.42 379.199 135.42C379.379 135.42 379.555 135.4 379.729 135.36C379.909 135.313 380.079 135.26 380.239 135.2C380.399 135.14 380.539 135.073 380.659 135C380.785 134.927 380.882 134.86 380.949 134.8L381.259 135.37ZM379.149 131.54C378.929 131.54 378.719 131.563 378.519 131.61C378.325 131.657 378.152 131.737 377.999 131.85C377.852 131.957 377.729 132.1 377.629 132.28C377.535 132.453 377.475 132.67 377.449 132.93H380.559C380.525 132.49 380.382 132.15 380.129 131.91C379.882 131.663 379.555 131.54 379.149 131.54ZM384.985 134.97H385.095L386.995 129H387.825L385.475 136H384.505L382.105 129H383.015L384.985 134.97ZM389.011 136V135.33H390.751V131.67H389.011V131H391.551V135.33H393.251V136H389.011ZM390.481 129.58C390.481 129.4 390.541 129.247 390.661 129.12C390.781 128.987 390.934 128.92 391.121 128.92C391.314 128.92 391.474 128.987 391.601 129.12C391.734 129.247 391.801 129.4 391.801 129.58C391.801 129.753 391.734 129.9 391.601 130.02C391.474 130.14 391.314 130.2 391.121 130.2C390.934 130.2 390.781 130.14 390.661 130.02C390.541 129.9 390.481 129.753 390.481 129.58ZM398.337 134.65C398.337 134.437 398.254 134.273 398.087 134.16C397.92 134.04 397.714 133.947 397.467 133.88C397.22 133.807 396.95 133.74 396.657 133.68C396.37 133.62 396.104 133.54 395.857 133.44C395.61 133.34 395.404 133.207 395.237 133.04C395.07 132.867 394.987 132.627 394.987 132.32C394.987 132.067 395.04 131.85 395.147 131.67C395.26 131.49 395.407 131.343 395.587 131.23C395.767 131.11 395.977 131.023 396.217 130.97C396.457 130.91 396.707 130.88 396.967 130.88C397.434 130.88 397.834 130.94 398.167 131.06C398.507 131.173 398.777 131.293 398.977 131.42L398.657 132.05C398.437 131.93 398.197 131.817 397.937 131.71C397.684 131.597 397.364 131.54 396.977 131.54C396.83 131.54 396.684 131.557 396.537 131.59C396.397 131.617 396.267 131.66 396.147 131.72C396.034 131.78 395.94 131.86 395.867 131.96C395.8 132.053 395.767 132.17 395.767 132.31C395.767 132.483 395.85 132.617 396.017 132.71C396.184 132.803 396.39 132.883 396.637 132.95C396.884 133.01 397.15 133.07 397.437 133.13C397.73 133.183 398 133.263 398.247 133.37C398.494 133.477 398.7 133.62 398.867 133.8C399.034 133.98 399.117 134.223 399.117 134.53C399.117 134.99 398.934 135.37 398.567 135.67C398.207 135.97 397.664 136.12 396.937 136.12C396.717 136.12 396.5 136.1 396.287 136.06C396.074 136.02 395.874 135.967 395.687 135.9C395.5 135.833 395.33 135.76 395.177 135.68C395.024 135.593 394.897 135.507 394.797 135.42L395.197 134.77C395.277 134.85 395.384 134.933 395.517 135.02C395.65 135.1 395.797 135.173 395.957 135.24C396.117 135.307 396.287 135.36 396.467 135.4C396.654 135.44 396.84 135.46 397.027 135.46C397.207 135.46 397.374 135.447 397.527 135.42C397.687 135.387 397.827 135.34 397.947 135.28C398.067 135.213 398.16 135.13 398.227 135.03C398.3 134.923 398.337 134.797 398.337 134.65ZM401.003 136V135.33H402.743V131.67H401.003V131H403.543V135.33H405.243V136H401.003ZM402.473 129.58C402.473 129.4 402.533 129.247 402.653 129.12C402.773 128.987 402.926 128.92 403.113 128.92C403.306 128.92 403.466 128.987 403.593 129.12C403.726 129.247 403.793 129.4 403.793 129.58C403.793 129.753 403.726 129.9 403.593 130.02C403.466 130.14 403.306 130.2 403.113 130.2C402.926 130.2 402.773 130.14 402.653 130.02C402.533 129.9 402.473 129.753 402.473 129.58ZM405.969 129H407.569V131.57H407.619C407.793 131.35 408.016 131.18 408.289 131.06C408.563 130.94 408.859 130.88 409.179 130.88C410.646 130.88 411.379 131.727 411.379 133.42C411.379 134.28 411.143 134.94 410.669 135.4C410.196 135.853 409.523 136.08 408.649 136.08C408.236 136.08 407.863 136.04 407.529 135.96C407.196 135.88 406.953 135.787 406.799 135.68V129.67H405.969V129ZM409.079 131.55C408.679 131.55 408.356 131.663 408.109 131.89C407.863 132.117 407.683 132.437 407.569 132.85V135.15C407.723 135.23 407.906 135.293 408.119 135.34C408.333 135.387 408.556 135.41 408.789 135.41C409.056 135.41 409.296 135.373 409.509 135.3C409.729 135.22 409.916 135.1 410.069 134.94C410.223 134.773 410.339 134.563 410.419 134.31C410.506 134.057 410.549 133.757 410.549 133.41C410.549 133.157 410.523 132.917 410.469 132.69C410.416 132.463 410.329 132.267 410.209 132.1C410.096 131.927 409.946 131.793 409.759 131.7C409.573 131.6 409.346 131.55 409.079 131.55ZM413.135 129H414.795V134.32C414.795 134.727 414.862 135.013 414.995 135.18C415.135 135.347 415.339 135.43 415.605 135.43C415.792 135.43 415.969 135.397 416.135 135.33C416.309 135.263 416.499 135.15 416.705 134.99L417.065 135.54C416.959 135.633 416.842 135.717 416.715 135.79C416.589 135.863 416.459 135.927 416.325 135.98C416.192 136.027 416.059 136.063 415.925 136.09C415.792 136.117 415.669 136.13 415.555 136.13C415.309 136.13 415.089 136.097 414.895 136.03C414.702 135.97 414.539 135.87 414.405 135.73C414.279 135.59 414.182 135.407 414.115 135.18C414.049 134.947 414.015 134.66 414.015 134.32V129.67H413.135V129ZM423.231 135.37C423.111 135.477 422.968 135.577 422.801 135.67C422.641 135.763 422.465 135.843 422.271 135.91C422.078 135.977 421.875 136.027 421.661 136.06C421.455 136.1 421.245 136.12 421.031 136.12C420.631 136.12 420.278 136.06 419.971 135.94C419.665 135.813 419.408 135.637 419.201 135.41C418.995 135.177 418.838 134.9 418.731 134.58C418.625 134.26 418.571 133.9 418.571 133.5C418.571 133.08 418.628 132.707 418.741 132.38C418.861 132.053 419.031 131.78 419.251 131.56C419.471 131.34 419.738 131.173 420.051 131.06C420.365 130.94 420.715 130.88 421.101 130.88C421.381 130.88 421.658 130.917 421.931 130.99C422.205 131.063 422.445 131.203 422.651 131.41C422.865 131.61 423.028 131.89 423.141 132.25C423.255 132.603 423.295 133.063 423.261 133.63H419.391C419.391 134.23 419.551 134.68 419.871 134.98C420.198 135.273 420.631 135.42 421.171 135.42C421.351 135.42 421.528 135.4 421.701 135.36C421.881 135.313 422.051 135.26 422.211 135.2C422.371 135.14 422.511 135.073 422.631 135C422.758 134.927 422.855 134.86 422.921 134.8L423.231 135.37ZM421.121 131.54C420.901 131.54 420.691 131.563 420.491 131.61C420.298 131.657 420.125 131.737 419.971 131.85C419.825 131.957 419.701 132.1 419.601 132.28C419.508 132.453 419.448 132.67 419.421 132.93H422.531C422.498 132.49 422.355 132.15 422.101 131.91C421.855 131.663 421.528 131.54 421.121 131.54ZM428.258 138.12C427.811 138.007 427.391 137.837 426.998 137.61C426.611 137.39 426.271 137.1 425.978 136.74C425.691 136.38 425.461 135.94 425.288 135.42C425.121 134.9 425.038 134.283 425.038 133.57C425.038 132.863 425.124 132.247 425.298 131.72C425.471 131.187 425.704 130.737 425.998 130.37C426.291 129.997 426.631 129.7 427.018 129.48C427.411 129.253 427.824 129.093 428.258 129L428.508 129.63C428.114 129.743 427.754 129.893 427.428 130.08C427.101 130.26 426.818 130.503 426.577 130.81C426.344 131.11 426.161 131.487 426.028 131.94C425.901 132.387 425.838 132.93 425.838 133.57C425.838 134.217 425.914 134.77 426.068 135.23C426.228 135.683 426.434 136.06 426.688 136.36C426.948 136.667 427.234 136.903 427.548 137.07C427.868 137.243 428.188 137.363 428.508 137.43L428.258 138.12ZM431.364 137.43C431.684 137.363 432 137.243 432.314 137.07C432.634 136.903 432.92 136.667 433.174 136.36C433.434 136.06 433.64 135.683 433.794 135.23C433.954 134.77 434.034 134.217 434.034 133.57C434.034 132.93 433.967 132.387 433.834 131.94C433.707 131.487 433.524 131.11 433.284 130.81C433.05 130.503 432.77 130.26 432.444 130.08C432.117 129.893 431.757 129.743 431.364 129.63L431.614 129C432.047 129.093 432.457 129.253 432.844 129.48C433.237 129.7 433.58 129.997 433.874 130.37C434.167 130.737 434.4 131.187 434.574 131.72C434.747 132.247 434.834 132.863 434.834 133.57C434.834 134.283 434.747 134.9 434.574 135.42C434.407 135.94 434.177 136.38 433.884 136.74C433.597 137.1 433.257 137.39 432.864 137.61C432.477 137.837 432.06 138.007 431.614 138.12L431.364 137.43Z" fill="#524D4D"/>
<path d="M6 7C6 4.23858 8.23858 2 11 2H473C475.761 2 478 4.23858 478 7V31H6V7Z" fill="#3F6AC3"/>
<circle cx="24.5" cy="15.5" r="4.5" fill="#C44F59"/>
<circle cx="39.5" cy="15.5" r="4.5" fill="#FFCE1C"/>
<circle cx="54.5" cy="15.5" r="4.5" fill="#65DC90"/>
<rect x="11" y="53" width="20" height="4" fill="#BEBABA"/>
<rect x="36" y="53" width="20" height="4" fill="#BEBABA"/>
<rect x="60" y="53" width="20" height="4" fill="#BEBABA"/>
<rect x="265" y="53" width="18" height="5" rx="1" fill="#65DC90"/>
<rect x="288" y="53" width="18" height="5" rx="1" fill="#65DC90"/>
<path d="M150.064 56.7811C150.411 55.9776 151.551 55.9776 151.899 56.7811L156.962 68.4748H145L150.064 56.7811Z" fill="#65DC90"/>
<path d="M160.629 46.7597C161.293 45.0647 163.691 45.0647 164.354 46.7597L172.852 68.4748H152.132L160.629 46.7597Z" fill="#65DC90"/>
<rect x="328" y="71" width="55" height="21" fill="#C44F59"/>
<path d="M343.287 78.3H347.698V79.114H344.2V81.743H347.478V82.557H344.2V86H343.287V78.3ZM353.337 83.866H350.378L349.674 86H348.772L351.346 78.3H352.424L355.02 86H354.063L353.337 83.866ZM350.664 83.074H353.084L351.951 79.455H351.819L350.664 83.074ZM355.851 78.3H361.131V79.114H358.942V85.186H361.131V86H355.851V85.186H358.029V79.114H355.851V78.3ZM362.777 78.3H363.69V85.186H366.803V83.272H367.617V86H362.777V78.3Z" fill="white"/>
<rect x="83" y="110" width="150" height="24" rx="5" fill="#EBEBEB"/>
<path d="M210 110H228C230.761 110 233 112.239 233 115V129C233 131.761 230.761 134 228 134H210V110Z" fill="#F3592A"/>
<path d="M225 120.5C225 122.985 222.985 125 220.5 125C218.015 125 216 122.985 216 120.5C216 118.015 218.015 116 220.5 116C222.985 116 225 118.015 225 120.5ZM217.004 120.5C217.004 122.431 218.569 123.996 220.5 123.996C222.431 123.996 223.996 122.431 223.996 120.5C223.996 118.569 222.431 117.004 220.5 117.004C218.569 117.004 217.004 118.569 217.004 120.5Z" fill="white"/>
<line x1="223.014" y1="124.075" x2="227.052" y2="128.513" stroke="#EBEBEB" stroke-linecap="round"/>
<path d="M155 151.5C155 149.567 156.567 148 158.5 148C160.433 148 162 149.567 162 151.5V258H155V151.5Z" fill="#524D4D"/>
<path d="M215.488 198.675C216.075 198.034 215.62 197 214.75 197H114.766C114.512 197 114.268 197.097 114.083 197.27L100.779 209.728C100.358 210.123 100.358 210.792 100.779 211.187L114.083 223.645C114.268 223.818 114.512 223.915 114.766 223.915H214.75C215.62 223.915 216.075 222.881 215.488 222.24L205.321 211.133C204.971 210.75 204.971 210.164 205.321 209.782L215.488 198.675Z" fill="#EEC991"/>
<path d="M126.558 216H125.601L121.709 210.004H121.67C121.68 210.163 121.691 210.346 121.704 210.551C121.717 210.753 121.727 210.969 121.733 211.2C121.743 211.428 121.748 211.661 121.748 211.898V216H120.977V208.861H121.929L125.806 214.838H125.84C125.833 214.724 125.825 214.563 125.815 214.354C125.806 214.143 125.796 213.917 125.786 213.676C125.78 213.432 125.776 213.205 125.776 212.997V208.861H126.558V216ZM132.998 213.314C132.998 213.754 132.941 214.146 132.827 214.491C132.713 214.836 132.549 215.128 132.334 215.365C132.119 215.603 131.859 215.785 131.553 215.912C131.25 216.036 130.907 216.098 130.522 216.098C130.164 216.098 129.836 216.036 129.536 215.912C129.24 215.785 128.983 215.603 128.765 215.365C128.55 215.128 128.382 214.836 128.262 214.491C128.145 214.146 128.086 213.754 128.086 213.314C128.086 212.729 128.185 212.23 128.384 211.82C128.582 211.407 128.866 211.093 129.233 210.878C129.604 210.66 130.046 210.551 130.557 210.551C131.045 210.551 131.471 210.66 131.836 210.878C132.204 211.096 132.489 211.412 132.69 211.825C132.896 212.235 132.998 212.732 132.998 213.314ZM128.926 213.314C128.926 213.744 128.983 214.117 129.097 214.433C129.211 214.748 129.386 214.993 129.624 215.165C129.862 215.338 130.168 215.424 130.542 215.424C130.913 215.424 131.217 215.338 131.455 215.165C131.696 214.993 131.873 214.748 131.987 214.433C132.101 214.117 132.158 213.744 132.158 213.314C132.158 212.888 132.101 212.52 131.987 212.211C131.873 211.898 131.698 211.658 131.46 211.488C131.222 211.319 130.915 211.234 130.537 211.234C129.98 211.234 129.572 211.418 129.312 211.786C129.054 212.154 128.926 212.663 128.926 213.314ZM139.429 210.551C139.536 210.551 139.648 210.557 139.766 210.57C139.883 210.58 139.987 210.595 140.078 210.614L139.976 211.366C139.888 211.343 139.79 211.326 139.683 211.312C139.575 211.299 139.474 211.293 139.38 211.293C139.165 211.293 138.962 211.337 138.77 211.425C138.581 211.509 138.415 211.633 138.271 211.796C138.128 211.955 138.016 212.149 137.935 212.377C137.853 212.602 137.812 212.852 137.812 213.129V216H136.997V210.648H137.671L137.759 211.635H137.793C137.904 211.436 138.037 211.256 138.193 211.093C138.35 210.927 138.53 210.795 138.735 210.697C138.944 210.6 139.175 210.551 139.429 210.551ZM143.149 210.551C143.605 210.551 143.996 210.652 144.321 210.854C144.647 211.055 144.896 211.339 145.068 211.703C145.241 212.064 145.327 212.488 145.327 212.973V213.476H141.631C141.641 214.104 141.797 214.582 142.1 214.911C142.402 215.24 142.829 215.404 143.379 215.404C143.717 215.404 144.017 215.373 144.277 215.312C144.538 215.25 144.808 215.159 145.088 215.038V215.751C144.818 215.871 144.549 215.959 144.282 216.015C144.019 216.07 143.706 216.098 143.345 216.098C142.83 216.098 142.381 215.993 141.997 215.785C141.616 215.574 141.32 215.264 141.108 214.857C140.897 214.451 140.791 213.952 140.791 213.363C140.791 212.787 140.887 212.289 141.079 211.869C141.274 211.446 141.548 211.12 141.899 210.893C142.254 210.665 142.671 210.551 143.149 210.551ZM143.14 211.215C142.707 211.215 142.362 211.356 142.104 211.64C141.847 211.923 141.694 212.318 141.646 212.826H144.478C144.474 212.507 144.424 212.227 144.326 211.986C144.232 211.742 144.087 211.553 143.892 211.42C143.696 211.283 143.446 211.215 143.14 211.215ZM150.166 214.535C150.166 214.877 150.08 215.165 149.907 215.399C149.738 215.631 149.494 215.805 149.175 215.922C148.859 216.039 148.481 216.098 148.042 216.098C147.668 216.098 147.344 216.068 147.07 216.01C146.797 215.951 146.558 215.868 146.353 215.761V215.014C146.571 215.121 146.831 215.219 147.134 215.307C147.437 215.395 147.746 215.438 148.062 215.438C148.524 215.438 148.859 215.364 149.067 215.214C149.276 215.064 149.38 214.861 149.38 214.604C149.38 214.457 149.338 214.328 149.253 214.218C149.172 214.104 149.033 213.995 148.838 213.891C148.643 213.783 148.372 213.666 148.027 213.539C147.686 213.409 147.389 213.28 147.139 213.153C146.891 213.023 146.699 212.865 146.562 212.68C146.429 212.494 146.362 212.253 146.362 211.957C146.362 211.505 146.545 211.158 146.909 210.917C147.277 210.673 147.759 210.551 148.354 210.551C148.677 210.551 148.978 210.583 149.258 210.648C149.541 210.71 149.805 210.795 150.049 210.902L149.775 211.552C149.554 211.457 149.318 211.378 149.067 211.312C148.817 211.247 148.561 211.215 148.301 211.215C147.926 211.215 147.638 211.277 147.437 211.4C147.238 211.524 147.139 211.693 147.139 211.908C147.139 212.074 147.184 212.211 147.275 212.318C147.37 212.426 147.52 212.527 147.725 212.621C147.93 212.715 148.2 212.826 148.535 212.953C148.87 213.077 149.16 213.205 149.404 213.339C149.648 213.469 149.836 213.629 149.966 213.817C150.099 214.003 150.166 214.242 150.166 214.535ZM155.889 210.648V216H155.225L155.107 215.248H155.063C154.953 215.434 154.81 215.59 154.634 215.717C154.458 215.844 154.259 215.938 154.038 216C153.82 216.065 153.587 216.098 153.34 216.098C152.917 216.098 152.562 216.029 152.275 215.893C151.989 215.756 151.772 215.544 151.626 215.258C151.483 214.971 151.411 214.604 151.411 214.154V210.648H152.231V214.096C152.231 214.542 152.332 214.875 152.534 215.097C152.736 215.315 153.044 215.424 153.457 215.424C153.854 215.424 154.17 215.349 154.404 215.199C154.642 215.049 154.813 214.83 154.917 214.54C155.021 214.247 155.073 213.889 155.073 213.466V210.648H155.889ZM158.418 216H157.603V208.402H158.418V216ZM161.86 215.434C161.994 215.434 162.131 215.422 162.271 215.399C162.41 215.377 162.524 215.349 162.612 215.316V215.946C162.518 215.989 162.386 216.024 162.217 216.054C162.051 216.083 161.888 216.098 161.729 216.098C161.445 216.098 161.188 216.049 160.957 215.951C160.726 215.85 160.54 215.681 160.4 215.443C160.264 215.206 160.195 214.877 160.195 214.457V211.283H159.434V210.888L160.2 210.57L160.522 209.408H161.011V210.648H162.578V211.283H161.011V214.433C161.011 214.768 161.087 215.019 161.24 215.185C161.396 215.351 161.603 215.434 161.86 215.434ZM167.158 214.535C167.158 214.877 167.072 215.165 166.899 215.399C166.73 215.631 166.486 215.805 166.167 215.922C165.851 216.039 165.474 216.098 165.034 216.098C164.66 216.098 164.336 216.068 164.062 216.01C163.789 215.951 163.55 215.868 163.345 215.761V215.014C163.563 215.121 163.823 215.219 164.126 215.307C164.429 215.395 164.738 215.438 165.054 215.438C165.516 215.438 165.851 215.364 166.06 215.214C166.268 215.064 166.372 214.861 166.372 214.604C166.372 214.457 166.33 214.328 166.245 214.218C166.164 214.104 166.025 213.995 165.83 213.891C165.635 213.783 165.365 213.666 165.02 213.539C164.678 213.409 164.382 213.28 164.131 213.153C163.883 213.023 163.691 212.865 163.555 212.68C163.421 212.494 163.354 212.253 163.354 211.957C163.354 211.505 163.537 211.158 163.901 210.917C164.269 210.673 164.751 210.551 165.347 210.551C165.669 210.551 165.97 210.583 166.25 210.648C166.533 210.71 166.797 210.795 167.041 210.902L166.768 211.552C166.546 211.457 166.31 211.378 166.06 211.312C165.809 211.247 165.553 211.215 165.293 211.215C164.919 211.215 164.631 211.277 164.429 211.4C164.23 211.524 164.131 211.693 164.131 211.908C164.131 212.074 164.176 212.211 164.268 212.318C164.362 212.426 164.512 212.527 164.717 212.621C164.922 212.715 165.192 212.826 165.527 212.953C165.863 213.077 166.152 213.205 166.396 213.339C166.641 213.469 166.828 213.629 166.958 213.817C167.091 214.003 167.158 214.242 167.158 214.535ZM173.442 211.283H172.109V216H171.299V211.283H170.352V210.893L171.299 210.624V210.268C171.299 209.818 171.366 209.454 171.499 209.174C171.632 208.891 171.826 208.682 172.08 208.549C172.334 208.415 172.643 208.349 173.008 208.349C173.213 208.349 173.4 208.367 173.569 208.402C173.742 208.438 173.893 208.479 174.023 208.524L173.813 209.164C173.703 209.128 173.577 209.096 173.438 209.066C173.301 209.034 173.161 209.018 173.018 209.018C172.708 209.018 172.479 209.118 172.329 209.32C172.183 209.519 172.109 209.831 172.109 210.258V210.648H173.442V211.283ZM179.043 213.314C179.043 213.754 178.986 214.146 178.872 214.491C178.758 214.836 178.594 215.128 178.379 215.365C178.164 215.603 177.904 215.785 177.598 215.912C177.295 216.036 176.951 216.098 176.567 216.098C176.209 216.098 175.881 216.036 175.581 215.912C175.285 215.785 175.028 215.603 174.81 215.365C174.595 215.128 174.427 214.836 174.307 214.491C174.189 214.146 174.131 213.754 174.131 213.314C174.131 212.729 174.23 212.23 174.429 211.82C174.627 211.407 174.91 211.093 175.278 210.878C175.649 210.66 176.09 210.551 176.602 210.551C177.09 210.551 177.516 210.66 177.881 210.878C178.249 211.096 178.534 211.412 178.735 211.825C178.94 212.235 179.043 212.732 179.043 213.314ZM174.971 213.314C174.971 213.744 175.028 214.117 175.142 214.433C175.256 214.748 175.431 214.993 175.669 215.165C175.907 215.338 176.213 215.424 176.587 215.424C176.958 215.424 177.262 215.338 177.5 215.165C177.741 214.993 177.918 214.748 178.032 214.433C178.146 214.117 178.203 213.744 178.203 213.314C178.203 212.888 178.146 212.52 178.032 212.211C177.918 211.898 177.743 211.658 177.505 211.488C177.267 211.319 176.96 211.234 176.582 211.234C176.025 211.234 175.617 211.418 175.356 211.786C175.099 212.154 174.971 212.663 174.971 213.314ZM184.863 210.648V216H184.199L184.082 215.248H184.038C183.927 215.434 183.784 215.59 183.608 215.717C183.433 215.844 183.234 215.938 183.013 216C182.795 216.065 182.562 216.098 182.314 216.098C181.891 216.098 181.536 216.029 181.25 215.893C180.964 215.756 180.747 215.544 180.601 215.258C180.457 214.971 180.386 214.604 180.386 214.154V210.648H181.206V214.096C181.206 214.542 181.307 214.875 181.509 215.097C181.711 215.315 182.018 215.424 182.432 215.424C182.829 215.424 183.145 215.349 183.379 215.199C183.617 215.049 183.787 214.83 183.892 214.54C183.996 214.247 184.048 213.889 184.048 213.466V210.648H184.863ZM189.111 210.551C189.746 210.551 190.226 210.707 190.552 211.02C190.877 211.329 191.04 211.827 191.04 212.514V216H190.239V212.567C190.239 212.121 190.137 211.788 189.932 211.566C189.73 211.345 189.419 211.234 188.999 211.234C188.407 211.234 187.99 211.402 187.749 211.737C187.508 212.073 187.388 212.559 187.388 213.197V216H186.577V210.648H187.231L187.354 211.42H187.397C187.511 211.231 187.656 211.073 187.832 210.946C188.008 210.816 188.205 210.718 188.423 210.653C188.641 210.585 188.87 210.551 189.111 210.551ZM194.614 216.098C193.937 216.098 193.4 215.867 193.003 215.404C192.609 214.942 192.412 214.255 192.412 213.344C192.412 212.423 192.614 211.728 193.018 211.259C193.421 210.787 193.958 210.551 194.629 210.551C194.912 210.551 195.16 210.588 195.371 210.663C195.583 210.738 195.765 210.839 195.918 210.966C196.071 211.09 196.2 211.231 196.304 211.391H196.362C196.349 211.29 196.336 211.151 196.323 210.976C196.31 210.8 196.304 210.657 196.304 210.546V208.402H197.114V216H196.46L196.338 215.238H196.304C196.203 215.398 196.074 215.543 195.918 215.673C195.765 215.803 195.581 215.907 195.366 215.985C195.155 216.06 194.904 216.098 194.614 216.098ZM194.741 215.424C195.314 215.424 195.719 215.261 195.957 214.936C196.195 214.61 196.313 214.127 196.313 213.485V213.339C196.313 212.659 196.2 212.136 195.972 211.771C195.747 211.407 195.337 211.225 194.741 211.225C194.243 211.225 193.87 211.417 193.623 211.801C193.376 212.182 193.252 212.702 193.252 213.363C193.252 214.021 193.374 214.529 193.618 214.887C193.866 215.245 194.24 215.424 194.741 215.424Z" fill="#4A4545"/>
<path d="M121.882 160.505C121.491 159.839 121.972 159 122.745 159H186.168C186.499 159 186.808 159.163 186.994 159.436L195.508 171.893C195.741 172.233 195.741 172.681 195.508 173.022L186.994 185.479C186.808 185.752 186.499 185.915 186.168 185.915H122.745C121.972 185.915 121.491 185.076 121.882 184.409L128.587 172.963C128.77 172.651 128.77 172.264 128.587 171.952L121.882 160.505Z" fill="#EEC991"/>
<path d="M151.168 171.421C151.168 171.971 151.098 172.472 150.958 172.925C150.818 173.374 150.61 173.761 150.333 174.087C150.06 174.409 149.719 174.658 149.312 174.834C148.906 175.01 148.434 175.098 147.896 175.098C147.343 175.098 146.86 175.01 146.446 174.834C146.036 174.658 145.694 174.408 145.421 174.082C145.151 173.757 144.947 173.368 144.811 172.915C144.677 172.463 144.61 171.961 144.61 171.411C144.61 170.682 144.731 170.042 144.972 169.492C145.213 168.942 145.577 168.514 146.065 168.208C146.557 167.902 147.172 167.749 147.911 167.749C148.618 167.749 149.212 167.9 149.693 168.203C150.178 168.506 150.545 168.932 150.792 169.482C151.043 170.029 151.168 170.675 151.168 171.421ZM145.484 171.421C145.484 172.026 145.571 172.55 145.743 172.993C145.916 173.436 146.179 173.778 146.534 174.019C146.892 174.259 147.346 174.38 147.896 174.38C148.45 174.38 148.902 174.259 149.254 174.019C149.609 173.778 149.871 173.436 150.04 172.993C150.209 172.55 150.294 172.026 150.294 171.421C150.294 170.5 150.1 169.78 149.713 169.263C149.329 168.742 148.728 168.481 147.911 168.481C147.358 168.481 146.902 168.6 146.544 168.838C146.186 169.076 145.919 169.414 145.743 169.854C145.571 170.29 145.484 170.812 145.484 171.421ZM157.252 172.314C157.252 172.754 157.195 173.146 157.081 173.491C156.967 173.836 156.803 174.128 156.588 174.365C156.373 174.603 156.113 174.785 155.807 174.912C155.504 175.036 155.16 175.098 154.776 175.098C154.418 175.098 154.09 175.036 153.79 174.912C153.494 174.785 153.237 174.603 153.019 174.365C152.804 174.128 152.636 173.836 152.516 173.491C152.398 173.146 152.34 172.754 152.34 172.314C152.34 171.729 152.439 171.23 152.638 170.82C152.836 170.407 153.119 170.093 153.487 169.878C153.858 169.66 154.299 169.551 154.811 169.551C155.299 169.551 155.725 169.66 156.09 169.878C156.458 170.096 156.743 170.412 156.944 170.825C157.149 171.235 157.252 171.732 157.252 172.314ZM153.18 172.314C153.18 172.744 153.237 173.117 153.351 173.433C153.465 173.748 153.64 173.993 153.878 174.165C154.116 174.338 154.422 174.424 154.796 174.424C155.167 174.424 155.471 174.338 155.709 174.165C155.95 173.993 156.127 173.748 156.241 173.433C156.355 173.117 156.412 172.744 156.412 172.314C156.412 171.888 156.355 171.52 156.241 171.211C156.127 170.898 155.951 170.658 155.714 170.488C155.476 170.319 155.169 170.234 154.791 170.234C154.234 170.234 153.826 170.418 153.565 170.786C153.308 171.154 153.18 171.663 153.18 172.314ZM161.168 169.551C161.835 169.551 162.368 169.78 162.765 170.239C163.162 170.698 163.36 171.388 163.36 172.31C163.36 172.918 163.269 173.429 163.087 173.843C162.905 174.256 162.647 174.569 162.315 174.78C161.987 174.992 161.598 175.098 161.148 175.098C160.865 175.098 160.616 175.06 160.401 174.985C160.187 174.91 160.003 174.81 159.85 174.683C159.697 174.556 159.57 174.417 159.469 174.268H159.41C159.42 174.395 159.431 174.548 159.444 174.727C159.461 174.906 159.469 175.062 159.469 175.195V177.393H158.653V169.648H159.322L159.43 170.439H159.469C159.573 170.277 159.7 170.129 159.85 169.995C159.999 169.858 160.182 169.751 160.396 169.673C160.615 169.591 160.872 169.551 161.168 169.551ZM161.026 170.234C160.655 170.234 160.356 170.306 160.128 170.449C159.903 170.592 159.739 170.807 159.635 171.094C159.531 171.377 159.475 171.733 159.469 172.163V172.319C159.469 172.772 159.518 173.154 159.615 173.467C159.716 173.779 159.881 174.017 160.108 174.18C160.34 174.342 160.649 174.424 161.036 174.424C161.368 174.424 161.645 174.334 161.866 174.155C162.088 173.976 162.252 173.727 162.359 173.408C162.47 173.086 162.525 172.716 162.525 172.3C162.525 171.668 162.402 171.167 162.154 170.796C161.91 170.422 161.534 170.234 161.026 170.234ZM168.238 173.535C168.238 173.877 168.152 174.165 167.979 174.399C167.81 174.631 167.566 174.805 167.247 174.922C166.931 175.039 166.554 175.098 166.114 175.098C165.74 175.098 165.416 175.068 165.143 175.01C164.869 174.951 164.63 174.868 164.425 174.761V174.014C164.643 174.121 164.903 174.219 165.206 174.307C165.509 174.395 165.818 174.438 166.134 174.438C166.596 174.438 166.931 174.364 167.14 174.214C167.348 174.064 167.452 173.861 167.452 173.604C167.452 173.457 167.41 173.328 167.325 173.218C167.244 173.104 167.105 172.995 166.91 172.891C166.715 172.783 166.445 172.666 166.1 172.539C165.758 172.409 165.462 172.28 165.211 172.153C164.964 172.023 164.771 171.865 164.635 171.68C164.501 171.494 164.435 171.253 164.435 170.957C164.435 170.505 164.617 170.158 164.981 169.917C165.349 169.673 165.831 169.551 166.427 169.551C166.749 169.551 167.05 169.583 167.33 169.648C167.613 169.71 167.877 169.795 168.121 169.902L167.848 170.552C167.626 170.457 167.39 170.378 167.14 170.312C166.889 170.247 166.633 170.215 166.373 170.215C165.999 170.215 165.711 170.277 165.509 170.4C165.31 170.524 165.211 170.693 165.211 170.908C165.211 171.074 165.257 171.211 165.348 171.318C165.442 171.426 165.592 171.527 165.797 171.621C166.002 171.715 166.272 171.826 166.607 171.953C166.943 172.077 167.232 172.205 167.477 172.339C167.721 172.469 167.908 172.629 168.038 172.817C168.172 173.003 168.238 173.242 168.238 173.535ZM170.274 173.018H169.742L169.518 167.861H170.499L170.274 173.018ZM169.42 174.492C169.42 174.264 169.475 174.103 169.586 174.009C169.697 173.911 169.835 173.862 170.001 173.862C170.164 173.862 170.3 173.911 170.411 174.009C170.525 174.103 170.582 174.264 170.582 174.492C170.582 174.717 170.525 174.881 170.411 174.985C170.3 175.086 170.164 175.137 170.001 175.137C169.835 175.137 169.697 175.086 169.586 174.985C169.475 174.881 169.42 174.717 169.42 174.492Z" fill="#4A4545"/>
<rect x="319" y="32" width="158" height="16" fill="#DFDFDF" stroke="white" stroke-width="2"/>
<rect x="322.5" y="36.5" width="10" height="7" rx="0.5" stroke="#524D4D"/>
<path d="M339.713 39.5H339.097C339.06 39.3227 338.996 39.1669 338.905 39.0327C338.816 38.8984 338.706 38.7857 338.577 38.6946C338.449 38.6018 338.308 38.5322 338.152 38.4858C337.996 38.4394 337.834 38.4162 337.665 38.4162C337.357 38.4162 337.077 38.4941 336.827 38.6499C336.578 38.8056 336.38 39.0352 336.233 39.3384C336.087 39.6417 336.014 40.0137 336.014 40.4545C336.014 40.8954 336.087 41.2674 336.233 41.5707C336.38 41.8739 336.578 42.1035 336.827 42.2592C337.077 42.415 337.357 42.4929 337.665 42.4929C337.834 42.4929 337.996 42.4697 338.152 42.4233C338.308 42.3769 338.449 42.3081 338.577 42.217C338.706 42.1242 338.816 42.0107 338.905 41.8764C338.996 41.7405 339.06 41.5848 339.097 41.4091H339.713C339.667 41.6693 339.582 41.9021 339.46 42.1076C339.337 42.3131 339.184 42.4879 339.002 42.6321C338.82 42.7746 338.615 42.8832 338.388 42.9577C338.163 43.0323 337.922 43.0696 337.665 43.0696C337.231 43.0696 336.844 42.9635 336.506 42.7514C336.168 42.5393 335.902 42.2377 335.708 41.8466C335.515 41.4555 335.418 40.9915 335.418 40.4545C335.418 39.9176 335.515 39.4536 335.708 39.0625C335.902 38.6714 336.168 38.3698 336.506 38.1577C336.844 37.9455 337.231 37.8395 337.665 37.8395C337.922 37.8395 338.163 37.8768 338.388 37.9513C338.615 38.0259 338.82 38.1353 339.002 38.2795C339.184 38.422 339.337 38.596 339.46 38.8015C339.582 39.0053 339.667 39.2382 339.713 39.5ZM342.181 43.0795C341.836 43.0795 341.534 42.9975 341.274 42.8335C341.015 42.6694 340.813 42.4399 340.667 42.1449C340.523 41.8499 340.451 41.5052 340.451 41.1108C340.451 40.7131 340.523 40.3659 340.667 40.0692C340.813 39.7726 341.015 39.5423 341.274 39.3782C341.534 39.2141 341.836 39.1321 342.181 39.1321C342.526 39.1321 342.827 39.2141 343.086 39.3782C343.346 39.5423 343.548 39.7726 343.692 40.0692C343.838 40.3659 343.911 40.7131 343.911 41.1108C343.911 41.5052 343.838 41.8499 343.692 42.1449C343.548 42.4399 343.346 42.6694 343.086 42.8335C342.827 42.9975 342.526 43.0795 342.181 43.0795ZM342.181 42.5526C342.443 42.5526 342.658 42.4854 342.827 42.3512C342.996 42.217 343.121 42.0405 343.203 41.8217C343.284 41.603 343.324 41.366 343.324 41.1108C343.324 40.8556 343.284 40.6178 343.203 40.3974C343.121 40.177 342.996 39.9988 342.827 39.8629C342.658 39.727 342.443 39.6591 342.181 39.6591C341.919 39.6591 341.704 39.727 341.535 39.8629C341.366 39.9988 341.24 40.177 341.159 40.3974C341.078 40.6178 341.037 40.8556 341.037 41.1108C341.037 41.366 341.078 41.603 341.159 41.8217C341.24 42.0405 341.366 42.217 341.535 42.3512C341.704 42.4854 341.919 42.5526 342.181 42.5526ZM345.393 40.7031V43H344.806V39.1818H345.373V39.7784H345.423C345.512 39.5845 345.648 39.4287 345.831 39.3111C346.013 39.1918 346.248 39.1321 346.537 39.1321C346.795 39.1321 347.021 39.1851 347.215 39.2912C347.409 39.3956 347.56 39.5547 347.668 39.7685C347.775 39.9806 347.829 40.2491 347.829 40.5739V43H347.243V40.6136C347.243 40.3137 347.165 40.08 347.009 39.9126C346.853 39.7436 346.639 39.6591 346.368 39.6591C346.18 39.6591 346.013 39.6997 345.865 39.7809C345.72 39.8621 345.604 39.9806 345.52 40.1364C345.435 40.2921 345.393 40.4811 345.393 40.7031ZM351.606 40.0369L351.079 40.1861C351.046 40.0982 350.997 40.0129 350.932 39.93C350.869 39.8455 350.783 39.7759 350.674 39.7212C350.564 39.6665 350.424 39.6392 350.253 39.6392C350.02 39.6392 349.825 39.6931 349.669 39.8008C349.515 39.9068 349.438 40.0419 349.438 40.206C349.438 40.3518 349.491 40.467 349.597 40.5515C349.703 40.636 349.869 40.7064 350.094 40.7628L350.661 40.902C351.003 40.9848 351.257 41.1116 351.424 41.2823C351.592 41.4513 351.675 41.6693 351.675 41.9361C351.675 42.1548 351.612 42.3504 351.486 42.5227C351.362 42.6951 351.188 42.831 350.964 42.9304C350.741 43.0298 350.48 43.0795 350.184 43.0795C349.794 43.0795 349.472 42.995 349.217 42.826C348.962 42.657 348.8 42.41 348.732 42.0852L349.289 41.946C349.342 42.1515 349.442 42.3056 349.59 42.4084C349.739 42.5111 349.934 42.5625 350.174 42.5625C350.447 42.5625 350.664 42.5045 350.825 42.3885C350.988 42.2708 351.069 42.13 351.069 41.9659C351.069 41.8333 351.022 41.7223 350.93 41.6328C350.837 41.5417 350.694 41.4737 350.502 41.429L349.866 41.2798C349.516 41.197 349.259 41.0685 349.095 40.8945C348.933 40.7189 348.851 40.4993 348.851 40.2358C348.851 40.0204 348.912 39.8298 349.033 39.6641C349.156 39.4983 349.322 39.3683 349.533 39.2738C349.745 39.1793 349.985 39.1321 350.253 39.1321C350.631 39.1321 350.928 39.215 351.143 39.3807C351.36 39.5464 351.515 39.7652 351.606 40.0369ZM354.11 43.0795C353.765 43.0795 353.462 42.9975 353.202 42.8335C352.944 42.6694 352.742 42.4399 352.596 42.1449C352.452 41.8499 352.379 41.5052 352.379 41.1108C352.379 40.7131 352.452 40.3659 352.596 40.0692C352.742 39.7726 352.944 39.5423 353.202 39.3782C353.462 39.2141 353.765 39.1321 354.11 39.1321C354.454 39.1321 354.756 39.2141 355.014 39.3782C355.275 39.5423 355.477 39.7726 355.621 40.0692C355.767 40.3659 355.84 40.7131 355.84 41.1108C355.84 41.5052 355.767 41.8499 355.621 42.1449C355.477 42.4399 355.275 42.6694 355.014 42.8335C354.756 42.9975 354.454 43.0795 354.11 43.0795ZM354.11 42.5526C354.371 42.5526 354.587 42.4854 354.756 42.3512C354.925 42.217 355.05 42.0405 355.131 41.8217C355.212 41.603 355.253 41.366 355.253 41.1108C355.253 40.8556 355.212 40.6178 355.131 40.3974C355.05 40.177 354.925 39.9988 354.756 39.8629C354.587 39.727 354.371 39.6591 354.11 39.6591C353.848 39.6591 353.632 39.727 353.463 39.8629C353.294 39.9988 353.169 40.177 353.088 40.3974C353.007 40.6178 352.966 40.8556 352.966 41.1108C352.966 41.366 353.007 41.603 353.088 41.8217C353.169 42.0405 353.294 42.217 353.463 42.3512C353.632 42.4854 353.848 42.5526 354.11 42.5526ZM357.322 37.9091V43H356.735V37.9091H357.322ZM359.997 43.0795C359.629 43.0795 359.312 42.9983 359.045 42.8359C358.78 42.6719 358.575 42.4432 358.431 42.1499C358.289 41.8549 358.217 41.5118 358.217 41.1207C358.217 40.7296 358.289 40.3849 358.431 40.0866C358.575 39.7867 358.776 39.553 359.033 39.3857C359.291 39.2166 359.593 39.1321 359.938 39.1321C360.136 39.1321 360.333 39.1652 360.527 39.2315C360.721 39.2978 360.897 39.4055 361.056 39.5547C361.215 39.7022 361.342 39.8977 361.436 40.1413C361.531 40.3849 361.578 40.6849 361.578 41.0412V41.2898H358.635V40.7827H360.982C360.982 40.5672 360.938 40.375 360.852 40.206C360.768 40.0369 360.647 39.9035 360.489 39.8058C360.334 39.708 360.15 39.6591 359.938 39.6591C359.704 39.6591 359.502 39.7171 359.331 39.8331C359.162 39.9474 359.032 40.0966 358.941 40.2805C358.85 40.4645 358.804 40.6617 358.804 40.8722V41.2102C358.804 41.4986 358.854 41.743 358.953 41.9435C359.054 42.1424 359.194 42.294 359.373 42.3984C359.552 42.5012 359.76 42.5526 359.997 42.5526C360.151 42.5526 360.29 42.531 360.415 42.4879C360.541 42.4432 360.649 42.3769 360.74 42.2891C360.832 42.1996 360.902 42.0885 360.952 41.956L361.518 42.1151C361.459 42.3073 361.359 42.4763 361.218 42.6222C361.077 42.7663 360.903 42.879 360.696 42.9602C360.489 43.0398 360.256 43.0795 359.997 43.0795Z" fill="#524D4D"/>
<path d="M375.536 36.6464C375.34 36.4512 375.024 36.4512 374.828 36.6464C374.633 36.8417 374.633 37.1583 374.828 37.3536L375.536 36.6464ZM378.364 40.182L378.718 40.5355C378.913 40.3403 378.913 40.0237 378.718 39.8284L378.364 40.182ZM374.828 43.0104C374.633 43.2057 374.633 43.5223 374.828 43.7175C375.024 43.9128 375.34 43.9128 375.536 43.7175L374.828 43.0104ZM374.828 37.3536L378.01 40.5355L378.718 39.8284L375.536 36.6464L374.828 37.3536ZM378.01 39.8284L374.828 43.0104L375.536 43.7175L378.718 40.5355L378.01 39.8284Z" fill="#524D4D"/>
<path d="M378.536 36.6464C378.34 36.4512 378.024 36.4512 377.828 36.6464C377.633 36.8417 377.633 37.1583 377.828 37.3536L378.536 36.6464ZM381.364 40.182L381.718 40.5355C381.913 40.3403 381.913 40.0237 381.718 39.8284L381.364 40.182ZM377.828 43.0104C377.633 43.2057 377.633 43.5223 377.828 43.7175C378.024 43.9128 378.34 43.9128 378.536 43.7175L377.828 43.0104ZM377.828 37.3536L381.01 40.5355L381.718 39.8284L378.536 36.6464L377.828 37.3536ZM381.01 39.8284L377.828 43.0104L378.536 43.7175L381.718 40.5355L381.01 39.8284Z" fill="#524D4D"/>
<path d="M323.95 37.8232C323.852 37.7256 323.694 37.7256 323.596 37.8232C323.499 37.9209 323.499 38.0791 323.596 38.1768L323.95 37.8232ZM325.546 39.773L325.723 39.9497C325.82 39.8521 325.82 39.6938 325.723 39.5962L325.546 39.773ZM323.596 41.3692C323.499 41.4668 323.499 41.6251 323.596 41.7227C323.694 41.8203 323.852 41.8203 323.95 41.7227L323.596 41.3692ZM323.596 38.1768L325.369 39.9497L325.723 39.5962L323.95 37.8232L323.596 38.1768ZM325.369 39.5962L323.596 41.3692L323.95 41.7227L325.723 39.9497L325.369 39.5962Z" fill="#524D4D"/>
<rect x="322" y="189" width="46" height="4" fill="#BEBABA"/>
<rect x="322" y="199" width="33" height="4" fill="#BEBABA"/>
<rect x="322" y="209" width="13" height="4" fill="#BEBABA"/>
<rect x="322" y="219" width="27" height="4" fill="#BEBABA"/>
<rect x="322" y="239" width="39" height="4" fill="#BEBABA"/>
<rect x="322" y="249" width="18" height="4" fill="#BEBABA"/>
<rect x="322" y="259" width="26" height="4" fill="#BEBABA"/>
<rect x="322" y="269" width="41" height="4" fill="#BEBABA"/>
<rect x="322" y="289" width="11" height="4" fill="#BEBABA"/>
<rect x="322" y="299" width="26" height="4" fill="#BEBABA"/>
<rect x="322" y="308" width="16" height="4" fill="#BEBABA"/>
<rect x="322" y="316" width="36" height="2" fill="#BEBABA"/>
<g style="mix-blend-mode:multiply">
<path d="M1 9C1 6.23858 3.23858 4 6 4H470C472.761 4 475 6.23858 475 9V317C475 319.761 472.761 322 470 322H6.00001C3.23859 322 1 319.761 1 317V9Z" stroke="#3F6AC3" stroke-opacity="0.33" stroke-width="2"/>
</g>
</svg>
