<svg width="496" height="320" viewBox="0 0 496 320" fill="none" xmlns="http://www.w3.org/2000/svg">
<rect width="496" height="320" fill="white"/>
<path d="M0 5.00001C0 2.23858 2.23858 0 5 0H372C374.761 0 377 2.23858 377 5V313C377 315.761 374.761 318 372 318H5.00001C2.23859 318 0 315.761 0 313V5.00001Z" fill="#DFDFDF"/>
<path d="M2 31H375V312.71C375 314.367 373.657 315.71 372 315.71H4.99999C3.34314 315.71 2 314.367 2 312.71V31Z" fill="#F7F5F4"/>
<rect x="293" y="81" width="195" height="142" rx="5" fill="url(#paint0_linear_27_57)"/>
<g style="mix-blend-mode:multiply">
<rect x="290" y="86" width="193" height="140" rx="4" stroke="#5B3BBC" stroke-width="2"/>
</g>
<path d="M2 7C2 4.23858 4.23858 2 7 2H372C374.761 2 377 4.23858 377 7V31H2V7Z" fill="#DFDFDF"/>
<circle cx="16.5" cy="16.5" r="4.5" fill="#808080"/>
<circle cx="31.5" cy="16.5" r="4.5" fill="#BDBDBD"/>
<circle cx="46.5" cy="16.5" r="4.5" fill="#A4A4A4"/>
<rect x="17" y="53" width="20" height="4" fill="#DFDFDF"/>
<rect x="42" y="53" width="20" height="4" fill="#DFDFDF"/>
<rect x="67" y="53" width="20" height="4" fill="#DFDFDF"/>
<rect x="319" y="53" width="18" height="5" rx="1" fill="#65DC90"/>
<rect x="342" y="53" width="18" height="5" rx="1" fill="#65DC90"/>
<path d="M181.064 56.7811C181.411 55.9776 182.551 55.9776 182.899 56.7811L187.962 68.4748H176L181.064 56.7811Z" fill="#65DC90"/>
<path d="M191.629 46.7597C192.293 45.0647 194.691 45.0647 195.354 46.7597L203.852 68.4748H183.132L191.629 46.7597Z" fill="#65DC90"/>
<rect x="115" y="110" width="150" height="24" rx="5" fill="#DFDFDF"/>
<path d="M242 110H260C262.761 110 265 112.239 265 115V129C265 131.761 262.761 134 260 134H242V110Z" fill="#F3592A"/>
<path d="M257 120.5C257 122.985 254.985 125 252.5 125C250.015 125 248 122.985 248 120.5C248 118.015 250.015 116 252.5 116C254.985 116 257 118.015 257 120.5ZM249.004 120.5C249.004 122.431 250.569 123.996 252.5 123.996C254.431 123.996 255.996 122.431 255.996 120.5C255.996 118.569 254.431 117.004 252.5 117.004C250.569 117.004 249.004 118.569 249.004 120.5Z" fill="white"/>
<line x1="255.014" y1="124.075" x2="259.052" y2="128.513" stroke="white" stroke-linecap="round"/>
<path d="M321.6 151.036C322.032 151.036 322.456 151.148 322.872 151.372C323.288 151.596 323.608 151.916 323.832 152.332C324.064 152.74 324.18 153.168 324.18 153.616C324.18 154.328 323.928 154.936 323.424 155.44C322.92 155.944 322.312 156.196 321.6 156.196C320.888 156.196 320.28 155.944 319.776 155.44C319.272 154.936 319.02 154.328 319.02 153.616C319.02 153.168 319.136 152.74 319.368 152.332C319.6 151.916 319.92 151.596 320.328 151.372C320.744 151.148 321.168 151.036 321.6 151.036ZM333.807 155.68H335.175V149.92H334.023V151.372H332.703V148.6H339.279V151.372H337.959V149.92H336.819V155.68H338.175V157H333.807V155.68ZM340.006 154C340.006 153.496 340.082 153.048 340.234 152.656C340.386 152.264 340.602 151.932 340.882 151.66C341.162 151.388 341.494 151.184 341.878 151.048C342.27 150.904 342.706 150.832 343.186 150.832C343.69 150.832 344.138 150.908 344.53 151.06C344.93 151.212 345.266 151.428 345.538 151.708C345.81 151.98 346.014 152.312 346.15 152.704C346.294 153.096 346.366 153.528 346.366 154C346.366 154.504 346.29 154.952 346.138 155.344C345.986 155.736 345.77 156.068 345.49 156.34C345.21 156.612 344.874 156.82 344.482 156.964C344.098 157.1 343.666 157.168 343.186 157.168C342.682 157.168 342.23 157.092 341.83 156.94C341.438 156.788 341.106 156.576 340.834 156.304C340.562 156.024 340.354 155.688 340.21 155.296C340.074 154.904 340.006 154.472 340.006 154ZM341.614 154C341.614 154.264 341.65 154.508 341.722 154.732C341.794 154.956 341.898 155.152 342.034 155.32C342.17 155.488 342.334 155.62 342.526 155.716C342.718 155.804 342.938 155.848 343.186 155.848C343.65 155.848 344.026 155.7 344.314 155.404C344.61 155.108 344.758 154.64 344.758 154C344.758 153.448 344.622 153.004 344.35 152.668C344.078 152.324 343.69 152.152 343.186 152.152C342.962 152.152 342.754 152.188 342.562 152.26C342.37 152.324 342.202 152.432 342.058 152.584C341.922 152.736 341.814 152.928 341.734 153.16C341.654 153.392 341.614 153.672 341.614 154ZM353.141 157C353.141 157.432 353.065 157.808 352.913 158.128C352.769 158.448 352.565 158.712 352.301 158.92C352.045 159.136 351.737 159.292 351.377 159.388C351.025 159.492 350.637 159.544 350.213 159.544C349.925 159.544 349.653 159.52 349.397 159.472C349.149 159.432 348.917 159.376 348.701 159.304C348.493 159.232 348.309 159.152 348.149 159.064C347.989 158.984 347.861 158.904 347.765 158.824L348.365 157.72C348.557 157.848 348.785 157.968 349.049 158.08C349.321 158.2 349.661 158.26 350.069 158.26C350.573 158.26 350.957 158.144 351.221 157.912C351.485 157.68 351.617 157.348 351.617 156.916V156.532H351.569C351.425 156.724 351.213 156.868 350.933 156.964C350.653 157.052 350.329 157.096 349.961 157.096C349.577 157.096 349.221 157.036 348.893 156.916C348.573 156.796 348.293 156.616 348.053 156.376C347.813 156.128 347.625 155.816 347.489 155.44C347.361 155.064 347.297 154.624 347.297 154.12C347.297 153.592 347.373 153.124 347.525 152.716C347.685 152.308 347.905 151.968 348.185 151.696C348.473 151.416 348.813 151.208 349.205 151.072C349.605 150.928 350.049 150.856 350.537 150.856C350.793 150.856 351.049 150.868 351.305 150.892C351.561 150.908 351.801 150.932 352.025 150.964C352.257 150.996 352.469 151.036 352.661 151.084C352.853 151.124 353.013 151.168 353.141 151.216V157ZM350.261 155.848C350.565 155.848 350.837 155.78 351.077 155.644C351.325 155.508 351.493 155.304 351.581 155.032V152.332C351.469 152.284 351.309 152.248 351.101 152.224C350.901 152.192 350.709 152.176 350.525 152.176C350.301 152.176 350.089 152.212 349.889 152.284C349.697 152.356 349.525 152.472 349.373 152.632C349.229 152.784 349.113 152.98 349.025 153.22C348.945 153.452 348.905 153.732 348.905 154.06C348.905 154.348 348.941 154.604 349.013 154.828C349.085 155.052 349.185 155.24 349.313 155.392C349.441 155.544 349.585 155.66 349.745 155.74C349.905 155.812 350.077 155.848 350.261 155.848ZM360.337 157C360.337 157.432 360.261 157.808 360.109 158.128C359.965 158.448 359.761 158.712 359.497 158.92C359.241 159.136 358.933 159.292 358.573 159.388C358.221 159.492 357.833 159.544 357.409 159.544C357.121 159.544 356.849 159.52 356.593 159.472C356.345 159.432 356.113 159.376 355.897 159.304C355.689 159.232 355.505 159.152 355.345 159.064C355.185 158.984 355.057 158.904 354.961 158.824L355.561 157.72C355.753 157.848 355.981 157.968 356.245 158.08C356.517 158.2 356.857 158.26 357.265 158.26C357.769 158.26 358.153 158.144 358.417 157.912C358.681 157.68 358.813 157.348 358.813 156.916V156.532H358.765C358.621 156.724 358.409 156.868 358.129 156.964C357.849 157.052 357.525 157.096 357.157 157.096C356.773 157.096 356.417 157.036 356.089 156.916C355.769 156.796 355.489 156.616 355.249 156.376C355.009 156.128 354.821 155.816 354.685 155.44C354.557 155.064 354.493 154.624 354.493 154.12C354.493 153.592 354.569 153.124 354.721 152.716C354.881 152.308 355.101 151.968 355.381 151.696C355.669 151.416 356.009 151.208 356.401 151.072C356.801 150.928 357.245 150.856 357.733 150.856C357.989 150.856 358.245 150.868 358.501 150.892C358.757 150.908 358.997 150.932 359.221 150.964C359.453 150.996 359.665 151.036 359.857 151.084C360.049 151.124 360.209 151.168 360.337 151.216V157ZM357.457 155.848C357.761 155.848 358.033 155.78 358.273 155.644C358.521 155.508 358.689 155.304 358.777 155.032V152.332C358.665 152.284 358.505 152.248 358.297 152.224C358.097 152.192 357.905 152.176 357.721 152.176C357.497 152.176 357.285 152.212 357.085 152.284C356.893 152.356 356.721 152.472 356.569 152.632C356.425 152.784 356.309 152.98 356.221 153.22C356.141 153.452 356.101 153.732 356.101 154.06C356.101 154.348 356.137 154.604 356.209 154.828C356.281 155.052 356.381 155.24 356.509 155.392C356.637 155.544 356.781 155.66 356.941 155.74C357.101 155.812 357.273 155.848 357.457 155.848ZM362.216 148.6H364.772V154.144C364.772 154.76 364.848 155.188 365 155.428C365.152 155.668 365.396 155.788 365.732 155.788C365.98 155.788 366.184 155.764 366.344 155.716C366.504 155.66 366.664 155.584 366.824 155.488L367.412 156.568C367.276 156.656 367.14 156.74 367.004 156.82C366.868 156.892 366.724 156.952 366.572 157C366.42 157.056 366.252 157.096 366.068 157.12C365.892 157.152 365.692 157.168 365.468 157.168C364.716 157.168 364.152 156.976 363.776 156.592C363.4 156.208 363.212 155.664 363.212 154.96V149.92H362.216V148.6ZM374.775 156.364C374.671 156.46 374.535 156.556 374.367 156.652C374.207 156.74 374.015 156.824 373.791 156.904C373.575 156.984 373.335 157.048 373.071 157.096C372.807 157.144 372.527 157.168 372.231 157.168C371.719 157.168 371.259 157.096 370.851 156.952C370.451 156.808 370.111 156.6 369.831 156.328C369.551 156.048 369.335 155.716 369.183 155.332C369.039 154.94 368.967 154.496 368.967 154C368.967 153.472 369.051 153.012 369.219 152.62C369.387 152.22 369.615 151.888 369.903 151.624C370.199 151.36 370.543 151.164 370.935 151.036C371.327 150.9 371.751 150.832 372.207 150.832C372.511 150.832 372.823 150.872 373.143 150.952C373.471 151.032 373.771 151.172 374.043 151.372C374.315 151.564 374.535 151.824 374.703 152.152C374.879 152.48 374.967 152.896 374.967 153.4C374.967 153.744 374.927 154.116 374.847 154.516H370.527C370.535 154.772 370.587 154.988 370.683 155.164C370.787 155.34 370.919 155.484 371.079 155.596C371.247 155.708 371.435 155.792 371.643 155.848C371.859 155.896 372.087 155.92 372.327 155.92C372.807 155.92 373.199 155.864 373.503 155.752C373.815 155.64 374.067 155.504 374.259 155.344L374.775 156.364ZM372.183 152.08C371.975 152.08 371.779 152.108 371.595 152.164C371.411 152.22 371.243 152.304 371.091 152.416C370.947 152.52 370.827 152.652 370.731 152.812C370.635 152.972 370.579 153.152 370.563 153.352H373.515C373.515 152.96 373.403 152.652 373.179 152.428C372.963 152.196 372.631 152.08 372.183 152.08ZM387.714 153.484H385.002V157H383.358V148.6H385.002V152.02H387.714V148.6H389.358V157H387.714V153.484ZM390.661 155.68H392.773V152.32H390.661V151H394.333V155.68H396.553V157H390.661V155.68ZM392.485 149.368C392.485 149.12 392.577 148.908 392.761 148.732C392.945 148.556 393.201 148.468 393.529 148.468C393.865 148.468 394.133 148.556 394.333 148.732C394.533 148.908 394.633 149.12 394.633 149.368C394.633 149.624 394.533 149.836 394.333 150.004C394.133 150.164 393.865 150.244 393.529 150.244C393.201 150.244 392.945 150.164 392.761 150.004C392.577 149.836 392.485 149.624 392.485 149.368ZM397.148 148.6H399.692V153.388H400.052L402.02 151H403.856L401.432 153.736L403.004 155.68H404.12V157H402.176L400.112 154.516H399.692V157H398.132V149.92H397.148V148.6ZM410.752 156.364C410.648 156.46 410.512 156.556 410.344 156.652C410.184 156.74 409.992 156.824 409.768 156.904C409.552 156.984 409.312 157.048 409.048 157.096C408.784 157.144 408.504 157.168 408.208 157.168C407.696 157.168 407.236 157.096 406.828 156.952C406.428 156.808 406.088 156.6 405.808 156.328C405.528 156.048 405.312 155.716 405.16 155.332C405.016 154.94 404.944 154.496 404.944 154C404.944 153.472 405.028 153.012 405.196 152.62C405.364 152.22 405.592 151.888 405.88 151.624C406.176 151.36 406.52 151.164 406.912 151.036C407.304 150.9 407.728 150.832 408.184 150.832C408.488 150.832 408.8 150.872 409.12 150.952C409.448 151.032 409.748 151.172 410.02 151.372C410.292 151.564 410.512 151.824 410.68 152.152C410.856 152.48 410.944 152.896 410.944 153.4C410.944 153.744 410.904 154.116 410.824 154.516H406.504C406.512 154.772 406.564 154.988 406.66 155.164C406.764 155.34 406.896 155.484 407.056 155.596C407.224 155.708 407.412 155.792 407.62 155.848C407.836 155.896 408.064 155.92 408.304 155.92C408.784 155.92 409.176 155.864 409.48 155.752C409.792 155.64 410.044 155.504 410.236 155.344L410.752 156.364ZM408.16 152.08C407.952 152.08 407.756 152.108 407.572 152.164C407.388 152.22 407.22 152.304 407.068 152.416C406.924 152.52 406.804 152.652 406.708 152.812C406.612 152.972 406.556 153.152 406.54 153.352H409.492C409.492 152.96 409.38 152.652 409.156 152.428C408.94 152.196 408.608 152.08 408.16 152.08ZM416.363 155.344C416.363 155.184 416.263 155.056 416.063 154.96C415.871 154.864 415.631 154.776 415.343 154.696C415.055 154.616 414.739 154.536 414.395 154.456C414.051 154.368 413.735 154.252 413.447 154.108C413.159 153.956 412.915 153.768 412.715 153.544C412.523 153.312 412.427 153.016 412.427 152.656C412.427 152.36 412.491 152.1 412.619 151.876C412.755 151.652 412.935 151.464 413.159 151.312C413.391 151.152 413.663 151.032 413.975 150.952C414.295 150.872 414.639 150.832 415.007 150.832C415.399 150.832 415.743 150.86 416.039 150.916C416.335 150.972 416.591 151.04 416.807 151.12C417.031 151.2 417.219 151.292 417.371 151.396C417.531 151.492 417.667 151.58 417.779 151.66L417.119 152.728C416.999 152.656 416.859 152.584 416.699 152.512C416.547 152.432 416.383 152.36 416.207 152.296C416.039 152.232 415.859 152.18 415.667 152.14C415.483 152.1 415.299 152.08 415.115 152.08C414.779 152.08 414.507 152.124 414.299 152.212C414.091 152.3 413.987 152.436 413.987 152.62C413.987 152.764 414.083 152.88 414.275 152.968C414.475 153.056 414.719 153.14 415.007 153.22C415.295 153.292 415.611 153.372 415.955 153.46C416.299 153.548 416.615 153.664 416.903 153.808C417.191 153.944 417.431 154.124 417.623 154.348C417.823 154.572 417.923 154.86 417.923 155.212C417.923 155.82 417.699 156.3 417.251 156.652C416.811 156.996 416.155 157.168 415.283 157.168C414.595 157.168 413.999 157.068 413.495 156.868C412.999 156.66 412.599 156.42 412.295 156.148L413.015 155.02C413.119 155.108 413.255 155.208 413.423 155.32C413.599 155.424 413.795 155.52 414.011 155.608C414.227 155.696 414.455 155.772 414.695 155.836C414.943 155.892 415.187 155.92 415.427 155.92C415.683 155.92 415.903 155.876 416.087 155.788C416.271 155.7 416.363 155.552 416.363 155.344ZM430.898 153.58H432.386V157H426.866V148.6H428.51V155.536H430.898V153.58ZM433.833 155.68H435.945V152.32H433.833V151H437.505V155.68H439.725V157H433.833V155.68ZM435.657 149.368C435.657 149.12 435.749 148.908 435.933 148.732C436.117 148.556 436.373 148.468 436.701 148.468C437.037 148.468 437.305 148.556 437.505 148.732C437.705 148.908 437.805 149.12 437.805 149.368C437.805 149.624 437.705 149.836 437.505 150.004C437.305 150.164 437.037 150.244 436.701 150.244C436.373 150.244 436.117 150.164 435.933 150.004C435.749 149.836 435.657 149.624 435.657 149.368ZM445.144 155.344C445.144 155.184 445.044 155.056 444.844 154.96C444.652 154.864 444.412 154.776 444.124 154.696C443.836 154.616 443.52 154.536 443.176 154.456C442.832 154.368 442.516 154.252 442.228 154.108C441.94 153.956 441.696 153.768 441.496 153.544C441.304 153.312 441.208 153.016 441.208 152.656C441.208 152.36 441.272 152.1 441.4 151.876C441.536 151.652 441.716 151.464 441.94 151.312C442.172 151.152 442.444 151.032 442.756 150.952C443.076 150.872 443.42 150.832 443.788 150.832C444.18 150.832 444.524 150.86 444.82 150.916C445.116 150.972 445.372 151.04 445.588 151.12C445.812 151.2 446 151.292 446.152 151.396C446.312 151.492 446.448 151.58 446.56 151.66L445.9 152.728C445.78 152.656 445.64 152.584 445.48 152.512C445.328 152.432 445.164 152.36 444.988 152.296C444.82 152.232 444.64 152.18 444.448 152.14C444.264 152.1 444.08 152.08 443.896 152.08C443.56 152.08 443.288 152.124 443.08 152.212C442.872 152.3 442.768 152.436 442.768 152.62C442.768 152.764 442.864 152.88 443.056 152.968C443.256 153.056 443.5 153.14 443.788 153.22C444.076 153.292 444.392 153.372 444.736 153.46C445.08 153.548 445.396 153.664 445.684 153.808C445.972 153.944 446.212 154.124 446.404 154.348C446.604 154.572 446.704 154.86 446.704 155.212C446.704 155.82 446.48 156.3 446.032 156.652C445.592 156.996 444.936 157.168 444.064 157.168C443.376 157.168 442.78 157.068 442.276 156.868C441.78 156.66 441.38 156.42 441.076 156.148L441.796 155.02C441.9 155.108 442.036 155.208 442.204 155.32C442.38 155.424 442.576 155.52 442.792 155.608C443.008 155.696 443.236 155.772 443.476 155.836C443.724 155.892 443.968 155.92 444.208 155.92C444.464 155.92 444.684 155.876 444.868 155.788C445.052 155.7 445.144 155.552 445.144 155.344ZM448.908 152.32H447.72V151H448.908V149.632L450.468 149.188V151H453.612V152.32H450.468V154.036C450.468 154.652 450.584 155.1 450.816 155.38C451.048 155.652 451.372 155.788 451.788 155.788C452.004 155.788 452.2 155.764 452.376 155.716C452.552 155.66 452.708 155.592 452.844 155.512C452.988 155.432 453.116 155.344 453.228 155.248C453.348 155.152 453.456 155.064 453.552 154.984L454.272 156.064C454.136 156.224 453.964 156.372 453.756 156.508C453.556 156.636 453.336 156.752 453.096 156.856C452.864 156.952 452.62 157.028 452.364 157.084C452.108 157.14 451.856 157.168 451.608 157.168C450.712 157.168 450.036 156.92 449.58 156.424C449.132 155.92 448.908 155.124 448.908 154.036V152.32Z" fill="#FF7575"/>
<path d="M324.348 181.244C324.204 181.372 324.032 181.492 323.832 181.604C323.64 181.716 323.428 181.812 323.196 181.892C322.964 181.972 322.72 182.032 322.464 182.072C322.216 182.12 321.964 182.144 321.708 182.144C321.228 182.144 320.804 182.072 320.436 181.928C320.068 181.776 319.76 181.564 319.512 181.292C319.264 181.012 319.076 180.68 318.948 180.296C318.82 179.912 318.756 179.48 318.756 179C318.756 178.496 318.824 178.048 318.96 177.656C319.104 177.264 319.308 176.936 319.572 176.672C319.836 176.408 320.156 176.208 320.532 176.072C320.908 175.928 321.328 175.856 321.792 175.856C322.128 175.856 322.46 175.9 322.788 175.988C323.116 176.076 323.404 176.244 323.652 176.492C323.908 176.732 324.104 177.068 324.24 177.5C324.376 177.924 324.424 178.476 324.384 179.156H319.74C319.74 179.876 319.932 180.416 320.316 180.776C320.708 181.128 321.228 181.304 321.876 181.304C322.092 181.304 322.304 181.28 322.512 181.232C322.728 181.176 322.932 181.112 323.124 181.04C323.316 180.968 323.484 180.888 323.628 180.8C323.78 180.712 323.896 180.632 323.976 180.56L324.348 181.244ZM321.816 176.648C321.552 176.648 321.3 176.676 321.06 176.732C320.828 176.788 320.62 176.884 320.436 177.02C320.26 177.148 320.112 177.32 319.992 177.536C319.88 177.744 319.808 178.004 319.776 178.316H323.508C323.468 177.788 323.296 177.38 322.992 177.092C322.696 176.796 322.304 176.648 321.816 176.648ZM328.231 178.928L325.915 176H327.115L328.843 178.256L330.619 176H331.699L329.383 178.88L331.843 182H330.691L328.783 179.54L326.839 182H325.747L328.231 178.928ZM333.543 178.1C333.543 178.028 333.539 177.936 333.531 177.824C333.531 177.704 333.527 177.584 333.519 177.464C333.511 177.336 333.499 177.212 333.483 177.092C333.475 176.972 333.463 176.868 333.447 176.78H332.643V176H334.239L334.359 176.84H334.419C334.635 176.56 334.907 176.328 335.235 176.144C335.571 175.952 335.979 175.856 336.459 175.856C337.315 175.856 337.959 176.092 338.391 176.564C338.823 177.036 339.039 177.808 339.039 178.88C339.039 179.384 338.963 179.84 338.811 180.248C338.667 180.648 338.459 180.988 338.187 181.268C337.915 181.548 337.587 181.764 337.203 181.916C336.819 182.068 336.395 182.144 335.931 182.144C335.763 182.144 335.611 182.136 335.475 182.12C335.347 182.112 335.227 182.096 335.115 182.072C335.011 182.056 334.907 182.032 334.803 182C334.699 181.968 334.587 181.928 334.467 181.88V184.4H333.543V178.1ZM336.303 176.732C336.063 176.732 335.835 176.776 335.619 176.864C335.411 176.952 335.223 177.068 335.055 177.212C334.895 177.356 334.763 177.516 334.659 177.692C334.555 177.868 334.491 178.044 334.467 178.22V180.956C334.643 181.076 334.839 181.172 335.055 181.244C335.279 181.308 335.571 181.34 335.931 181.34C336.571 181.34 337.083 181.132 337.467 180.716C337.851 180.292 338.043 179.676 338.043 178.868C338.043 178.188 337.907 177.664 337.635 177.296C337.371 176.92 336.927 176.732 336.303 176.732ZM345.934 181.244C345.79 181.372 345.618 181.492 345.418 181.604C345.226 181.716 345.014 181.812 344.782 181.892C344.55 181.972 344.306 182.032 344.05 182.072C343.802 182.12 343.55 182.144 343.294 182.144C342.814 182.144 342.39 182.072 342.022 181.928C341.654 181.776 341.346 181.564 341.098 181.292C340.85 181.012 340.662 180.68 340.534 180.296C340.406 179.912 340.342 179.48 340.342 179C340.342 178.496 340.41 178.048 340.546 177.656C340.69 177.264 340.894 176.936 341.158 176.672C341.422 176.408 341.742 176.208 342.118 176.072C342.494 175.928 342.914 175.856 343.378 175.856C343.714 175.856 344.046 175.9 344.374 175.988C344.702 176.076 344.99 176.244 345.238 176.492C345.494 176.732 345.69 177.068 345.826 177.5C345.962 177.924 346.01 178.476 345.97 179.156H341.326C341.326 179.876 341.518 180.416 341.902 180.776C342.294 181.128 342.814 181.304 343.462 181.304C343.678 181.304 343.89 181.28 344.098 181.232C344.314 181.176 344.518 181.112 344.71 181.04C344.902 180.968 345.07 180.888 345.214 180.8C345.366 180.712 345.482 180.632 345.562 180.56L345.934 181.244ZM343.402 176.648C343.138 176.648 342.886 176.676 342.646 176.732C342.414 176.788 342.206 176.884 342.022 177.02C341.846 177.148 341.698 177.32 341.578 177.536C341.466 177.744 341.394 178.004 341.362 178.316H345.094C345.054 177.788 344.882 177.38 344.578 177.092C344.282 176.796 343.89 176.648 343.402 176.648ZM352.049 176.924C351.865 176.86 351.665 176.808 351.449 176.768C351.241 176.72 351.033 176.696 350.825 176.696C350.041 176.696 349.457 176.88 349.073 177.248C348.689 177.616 348.497 178.2 348.497 179C348.497 179.352 348.553 179.668 348.665 179.948C348.777 180.22 348.937 180.452 349.145 180.644C349.353 180.836 349.601 180.984 349.889 181.088C350.185 181.192 350.509 181.244 350.861 181.244C351.237 181.244 351.601 181.18 351.953 181.052C352.313 180.924 352.613 180.756 352.853 180.548L353.273 181.244C353.161 181.34 353.021 181.44 352.853 181.544C352.685 181.648 352.489 181.748 352.265 181.844C352.049 181.932 351.805 182.004 351.533 182.06C351.269 182.116 350.981 182.144 350.669 182.144C350.149 182.144 349.689 182.072 349.289 181.928C348.897 181.776 348.569 181.564 348.305 181.292C348.041 181.012 347.841 180.68 347.705 180.296C347.569 179.904 347.501 179.472 347.501 179C347.501 178.496 347.569 178.048 347.705 177.656C347.849 177.264 348.053 176.936 348.317 176.672C348.581 176.408 348.901 176.208 349.277 176.072C349.653 175.928 350.073 175.856 350.537 175.856C351.129 175.856 351.609 175.908 351.977 176.012C352.353 176.116 352.669 176.232 352.925 176.36L352.913 176.396V178.064H352.049V176.924ZM354.349 176H355.777V174.812L356.713 174.548V176H359.917V176.804H356.713V179.636C356.713 180.22 356.853 180.652 357.133 180.932C357.421 181.212 357.829 181.352 358.357 181.352C358.717 181.352 359.029 181.284 359.293 181.148C359.565 181.012 359.809 180.864 360.025 180.704L360.337 181.412C360.057 181.636 359.721 181.816 359.329 181.952C358.945 182.088 358.549 182.156 358.141 182.156C357.821 182.156 357.517 182.108 357.229 182.012C356.949 181.924 356.701 181.784 356.485 181.592C356.269 181.4 356.097 181.156 355.969 180.86C355.841 180.556 355.777 180.196 355.777 179.78V176.804H354.349V176ZM366.356 184.544C365.82 184.408 365.316 184.204 364.844 183.932C364.38 183.668 363.972 183.32 363.62 182.888C363.276 182.456 363 181.928 362.792 181.304C362.592 180.68 362.492 179.94 362.492 179.084C362.492 178.236 362.596 177.496 362.804 176.864C363.012 176.224 363.292 175.684 363.644 175.244C363.996 174.796 364.404 174.44 364.868 174.176C365.34 173.904 365.836 173.712 366.356 173.6L366.656 174.356C366.184 174.492 365.752 174.672 365.36 174.896C364.968 175.112 364.628 175.404 364.34 175.772C364.06 176.132 363.84 176.584 363.68 177.128C363.528 177.664 363.452 178.316 363.452 179.084C363.452 179.86 363.544 180.524 363.728 181.076C363.92 181.62 364.168 182.072 364.472 182.432C364.784 182.8 365.128 183.084 365.504 183.284C365.888 183.492 366.272 183.636 366.656 183.716L366.356 184.544ZM456.427 183.716C456.811 183.636 457.191 183.492 457.567 183.284C457.951 183.084 458.295 182.8 458.599 182.432C458.911 182.072 459.159 181.62 459.343 181.076C459.535 180.524 459.631 179.86 459.631 179.084C459.631 178.316 459.551 177.664 459.391 177.128C459.239 176.584 459.019 176.132 458.731 175.772C458.451 175.404 458.115 175.112 457.723 174.896C457.331 174.672 456.899 174.492 456.427 174.356L456.727 173.6C457.247 173.712 457.739 173.904 458.203 174.176C458.675 174.44 459.087 174.796 459.439 175.244C459.791 175.684 460.071 176.224 460.279 176.864C460.487 177.496 460.591 178.236 460.591 179.084C460.591 179.94 460.487 180.68 460.279 181.304C460.079 181.928 459.803 182.456 459.451 182.888C459.107 183.32 458.699 183.668 458.227 183.932C457.763 184.204 457.263 184.408 456.727 184.544L456.427 183.716ZM349.577 194.34C349.577 194.084 349.649 193.888 349.793 193.752C349.937 193.608 350.129 193.536 350.369 193.536C350.625 193.536 350.825 193.608 350.969 193.752C351.113 193.888 351.185 194.084 351.185 194.34C351.185 194.572 351.113 194.764 350.969 194.916C350.825 195.068 350.625 195.144 350.369 195.144C350.129 195.144 349.937 195.068 349.793 194.916C349.649 194.764 349.577 194.572 349.577 194.34ZM354.349 189H355.777V187.812L356.713 187.548V189H359.917V189.804H356.713V192.636C356.713 193.22 356.853 193.652 357.133 193.932C357.421 194.212 357.829 194.352 358.357 194.352C358.717 194.352 359.029 194.284 359.293 194.148C359.565 194.012 359.809 193.864 360.025 193.704L360.337 194.412C360.057 194.636 359.721 194.816 359.329 194.952C358.945 195.088 358.549 195.156 358.141 195.156C357.821 195.156 357.517 195.108 357.229 195.012C356.949 194.924 356.701 194.784 356.485 194.592C356.269 194.4 356.097 194.156 355.969 193.86C355.841 193.556 355.777 193.196 355.777 192.78V189.804H354.349V189ZM361.856 192C361.856 191.032 362.108 190.268 362.612 189.708C363.116 189.14 363.836 188.856 364.772 188.856C365.276 188.856 365.708 188.94 366.068 189.108C366.436 189.268 366.74 189.488 366.98 189.768C367.22 190.048 367.396 190.38 367.508 190.764C367.628 191.148 367.688 191.56 367.688 192C367.688 192.48 367.624 192.916 367.496 193.308C367.368 193.692 367.18 194.02 366.932 194.292C366.684 194.564 366.376 194.776 366.008 194.928C365.648 195.072 365.236 195.144 364.772 195.144C364.276 195.144 363.844 195.064 363.476 194.904C363.108 194.736 362.804 194.512 362.564 194.232C362.324 193.952 362.144 193.62 362.024 193.236C361.912 192.852 361.856 192.44 361.856 192ZM362.852 192C362.852 192.28 362.884 192.56 362.948 192.84C363.02 193.12 363.132 193.372 363.284 193.596C363.436 193.82 363.632 194 363.872 194.136C364.12 194.272 364.42 194.34 364.772 194.34C365.412 194.34 365.892 194.144 366.212 193.752C366.54 193.352 366.704 192.768 366.704 192C366.704 191.712 366.668 191.432 366.596 191.16C366.532 190.88 366.42 190.628 366.26 190.404C366.108 190.18 365.908 190 365.66 189.864C365.42 189.728 365.124 189.66 364.772 189.66C364.132 189.66 363.652 189.856 363.332 190.248C363.012 190.64 362.852 191.224 362.852 192ZM374.631 188.52C374.631 188.72 374.599 188.924 374.535 189.132C374.471 189.34 374.375 189.536 374.247 189.72C374.119 189.896 373.955 190.052 373.755 190.188C373.555 190.324 373.319 190.428 373.047 190.5V190.548C373.287 190.588 373.515 190.656 373.731 190.752C373.955 190.848 374.151 190.98 374.319 191.148C374.487 191.316 374.623 191.52 374.727 191.76C374.831 192 374.883 192.284 374.883 192.612C374.883 193.044 374.791 193.42 374.607 193.74C374.431 194.052 374.195 194.308 373.899 194.508C373.611 194.708 373.279 194.856 372.903 194.952C372.527 195.048 372.143 195.096 371.751 195.096C371.615 195.096 371.455 195.096 371.271 195.096C371.087 195.096 370.895 195.088 370.695 195.072C370.495 195.064 370.295 195.048 370.095 195.024C369.895 195.008 369.719 194.98 369.567 194.94V186.672C369.863 186.624 370.207 186.584 370.599 186.552C370.991 186.52 371.419 186.504 371.883 186.504C372.195 186.504 372.511 186.532 372.831 186.588C373.159 186.636 373.455 186.736 373.719 186.888C373.983 187.032 374.199 187.236 374.367 187.5C374.543 187.764 374.631 188.104 374.631 188.52ZM371.847 194.232C372.103 194.232 372.351 194.2 372.591 194.136C372.831 194.072 373.043 193.976 373.227 193.848C373.411 193.72 373.555 193.56 373.659 193.368C373.771 193.176 373.827 192.948 373.827 192.684C373.827 192.356 373.759 192.092 373.623 191.892C373.495 191.692 373.323 191.536 373.107 191.424C372.899 191.312 372.663 191.236 372.399 191.196C372.135 191.156 371.871 191.136 371.607 191.136H370.563V194.148C370.619 194.164 370.699 194.176 370.803 194.184C370.907 194.192 371.019 194.2 371.139 194.208C371.259 194.216 371.383 194.224 371.511 194.232C371.639 194.232 371.751 194.232 371.847 194.232ZM371.187 190.296C371.323 190.296 371.487 190.292 371.679 190.284C371.871 190.276 372.031 190.264 372.159 190.248C372.351 190.184 372.531 190.108 372.699 190.02C372.867 189.924 373.015 189.812 373.143 189.684C373.279 189.556 373.383 189.412 373.455 189.252C373.535 189.092 373.575 188.916 373.575 188.724C373.575 188.46 373.523 188.24 373.419 188.064C373.323 187.888 373.191 187.748 373.023 187.644C372.855 187.54 372.663 187.468 372.447 187.428C372.231 187.388 372.011 187.368 371.787 187.368C371.523 187.368 371.279 187.376 371.055 187.392C370.839 187.4 370.675 187.416 370.563 187.44V190.296H371.187ZM381.911 194.244C381.767 194.372 381.595 194.492 381.395 194.604C381.203 194.716 380.991 194.812 380.759 194.892C380.527 194.972 380.283 195.032 380.027 195.072C379.779 195.12 379.527 195.144 379.271 195.144C378.791 195.144 378.367 195.072 377.999 194.928C377.631 194.776 377.323 194.564 377.075 194.292C376.827 194.012 376.639 193.68 376.511 193.296C376.383 192.912 376.319 192.48 376.319 192C376.319 191.496 376.387 191.048 376.523 190.656C376.667 190.264 376.871 189.936 377.135 189.672C377.399 189.408 377.719 189.208 378.095 189.072C378.471 188.928 378.891 188.856 379.355 188.856C379.691 188.856 380.023 188.9 380.351 188.988C380.679 189.076 380.967 189.244 381.215 189.492C381.471 189.732 381.667 190.068 381.803 190.5C381.939 190.924 381.987 191.476 381.947 192.156H377.303C377.303 192.876 377.495 193.416 377.879 193.776C378.271 194.128 378.791 194.304 379.439 194.304C379.655 194.304 379.867 194.28 380.075 194.232C380.291 194.176 380.495 194.112 380.687 194.04C380.879 193.968 381.047 193.888 381.191 193.8C381.343 193.712 381.459 193.632 381.539 193.56L381.911 194.244ZM379.379 189.648C379.115 189.648 378.863 189.676 378.623 189.732C378.391 189.788 378.183 189.884 377.999 190.02C377.823 190.148 377.675 190.32 377.555 190.536C377.443 190.744 377.371 191.004 377.339 191.316H381.071C381.031 190.788 380.859 190.38 380.555 190.092C380.259 189.796 379.867 189.648 379.379 189.648ZM386.382 193.764H386.514L388.794 186.6H389.79L386.97 195H385.806L382.926 186.6H384.018L386.382 193.764ZM391.213 195V194.196H393.301V189.804H391.213V189H394.261V194.196H396.301V195H391.213ZM392.977 187.296C392.977 187.08 393.049 186.896 393.193 186.744C393.337 186.584 393.521 186.504 393.745 186.504C393.977 186.504 394.169 186.584 394.321 186.744C394.481 186.896 394.561 187.08 394.561 187.296C394.561 187.504 394.481 187.68 394.321 187.824C394.169 187.968 393.977 188.04 393.745 188.04C393.521 188.04 393.337 187.968 393.193 187.824C393.049 187.68 392.977 187.504 392.977 187.296ZM402.404 193.38C402.404 193.124 402.304 192.928 402.104 192.792C401.904 192.648 401.656 192.536 401.36 192.456C401.064 192.368 400.74 192.288 400.388 192.216C400.044 192.144 399.724 192.048 399.428 191.928C399.132 191.808 398.884 191.648 398.684 191.448C398.484 191.24 398.384 190.952 398.384 190.584C398.384 190.28 398.448 190.02 398.576 189.804C398.712 189.588 398.888 189.412 399.104 189.276C399.32 189.132 399.572 189.028 399.86 188.964C400.148 188.892 400.448 188.856 400.76 188.856C401.32 188.856 401.8 188.928 402.2 189.072C402.608 189.208 402.932 189.352 403.172 189.504L402.788 190.26C402.524 190.116 402.236 189.98 401.924 189.852C401.62 189.716 401.236 189.648 400.772 189.648C400.596 189.648 400.42 189.668 400.244 189.708C400.076 189.74 399.92 189.792 399.776 189.864C399.64 189.936 399.528 190.032 399.44 190.152C399.36 190.264 399.32 190.404 399.32 190.572C399.32 190.78 399.42 190.94 399.62 191.052C399.82 191.164 400.068 191.26 400.364 191.34C400.66 191.412 400.98 191.484 401.324 191.556C401.676 191.62 402 191.716 402.296 191.844C402.592 191.972 402.84 192.144 403.04 192.36C403.24 192.576 403.34 192.868 403.34 193.236C403.34 193.788 403.12 194.244 402.68 194.604C402.248 194.964 401.596 195.144 400.724 195.144C400.46 195.144 400.2 195.12 399.944 195.072C399.688 195.024 399.448 194.96 399.224 194.88C399 194.8 398.796 194.712 398.612 194.616C398.428 194.512 398.276 194.408 398.156 194.304L398.636 193.524C398.732 193.62 398.86 193.72 399.02 193.824C399.18 193.92 399.356 194.008 399.548 194.088C399.74 194.168 399.944 194.232 400.16 194.28C400.384 194.328 400.608 194.352 400.832 194.352C401.048 194.352 401.248 194.336 401.432 194.304C401.624 194.264 401.792 194.208 401.936 194.136C402.08 194.056 402.192 193.956 402.272 193.836C402.36 193.708 402.404 193.556 402.404 193.38ZM405.604 195V194.196H407.692V189.804H405.604V189H408.652V194.196H410.692V195H405.604ZM407.368 187.296C407.368 187.08 407.44 186.896 407.584 186.744C407.728 186.584 407.912 186.504 408.136 186.504C408.368 186.504 408.56 186.584 408.712 186.744C408.872 186.896 408.952 187.08 408.952 187.296C408.952 187.504 408.872 187.68 408.712 187.824C408.56 187.968 408.368 188.04 408.136 188.04C407.912 188.04 407.728 187.968 407.584 187.824C407.44 187.68 407.368 187.504 407.368 187.296ZM411.563 186.6H413.483V189.684H413.543C413.751 189.42 414.019 189.216 414.347 189.072C414.675 188.928 415.031 188.856 415.415 188.856C417.175 188.856 418.055 189.872 418.055 191.904C418.055 192.936 417.771 193.728 417.203 194.28C416.635 194.824 415.827 195.096 414.779 195.096C414.283 195.096 413.835 195.048 413.435 194.952C413.035 194.856 412.743 194.744 412.559 194.616V187.404H411.563V186.6ZM415.295 189.66C414.815 189.66 414.427 189.796 414.131 190.068C413.835 190.34 413.619 190.724 413.483 191.22V193.98C413.667 194.076 413.887 194.152 414.143 194.208C414.399 194.264 414.667 194.292 414.947 194.292C415.267 194.292 415.555 194.248 415.811 194.16C416.075 194.064 416.299 193.92 416.483 193.728C416.667 193.528 416.807 193.276 416.903 192.972C417.007 192.668 417.059 192.308 417.059 191.892C417.059 191.588 417.027 191.3 416.963 191.028C416.899 190.756 416.795 190.52 416.651 190.32C416.515 190.112 416.335 189.952 416.111 189.84C415.887 189.72 415.615 189.66 415.295 189.66ZM420.162 186.6H422.154V192.984C422.154 193.472 422.234 193.816 422.394 194.016C422.562 194.216 422.806 194.316 423.126 194.316C423.35 194.316 423.562 194.276 423.762 194.196C423.97 194.116 424.198 193.98 424.446 193.788L424.878 194.448C424.75 194.56 424.61 194.66 424.458 194.748C424.306 194.836 424.15 194.912 423.99 194.976C423.83 195.032 423.67 195.076 423.51 195.108C423.35 195.14 423.202 195.156 423.066 195.156C422.77 195.156 422.506 195.116 422.274 195.036C422.042 194.964 421.846 194.844 421.686 194.676C421.534 194.508 421.418 194.288 421.338 194.016C421.258 193.736 421.218 193.392 421.218 192.984V187.404H420.162V186.6ZM432.278 194.244C432.134 194.372 431.962 194.492 431.762 194.604C431.57 194.716 431.358 194.812 431.126 194.892C430.894 194.972 430.65 195.032 430.394 195.072C430.146 195.12 429.894 195.144 429.638 195.144C429.158 195.144 428.734 195.072 428.366 194.928C427.998 194.776 427.69 194.564 427.442 194.292C427.194 194.012 427.006 193.68 426.878 193.296C426.75 192.912 426.686 192.48 426.686 192C426.686 191.496 426.754 191.048 426.89 190.656C427.034 190.264 427.238 189.936 427.502 189.672C427.766 189.408 428.086 189.208 428.462 189.072C428.838 188.928 429.258 188.856 429.722 188.856C430.058 188.856 430.39 188.9 430.718 188.988C431.046 189.076 431.334 189.244 431.582 189.492C431.838 189.732 432.034 190.068 432.17 190.5C432.306 190.924 432.354 191.476 432.314 192.156H427.67C427.67 192.876 427.862 193.416 428.246 193.776C428.638 194.128 429.158 194.304 429.806 194.304C430.022 194.304 430.234 194.28 430.442 194.232C430.658 194.176 430.862 194.112 431.054 194.04C431.246 193.968 431.414 193.888 431.558 193.8C431.71 193.712 431.826 193.632 431.906 193.56L432.278 194.244ZM429.746 189.648C429.482 189.648 429.23 189.676 428.99 189.732C428.758 189.788 428.55 189.884 428.366 190.02C428.19 190.148 428.042 190.32 427.922 190.536C427.81 190.744 427.738 191.004 427.706 191.316H431.438C431.398 190.788 431.226 190.38 430.922 190.092C430.626 189.796 430.234 189.648 429.746 189.648ZM438.309 197.544C437.773 197.408 437.269 197.204 436.797 196.932C436.333 196.668 435.925 196.32 435.573 195.888C435.229 195.456 434.953 194.928 434.745 194.304C434.545 193.68 434.445 192.94 434.445 192.084C434.445 191.236 434.549 190.496 434.757 189.864C434.965 189.224 435.245 188.684 435.597 188.244C435.949 187.796 436.357 187.44 436.821 187.176C437.293 186.904 437.789 186.712 438.309 186.6L438.609 187.356C438.137 187.492 437.705 187.672 437.313 187.896C436.921 188.112 436.581 188.404 436.293 188.772C436.013 189.132 435.793 189.584 435.633 190.128C435.481 190.664 435.405 191.316 435.405 192.084C435.405 192.86 435.497 193.524 435.681 194.076C435.873 194.62 436.121 195.072 436.425 195.432C436.737 195.8 437.081 196.084 437.457 196.284C437.841 196.492 438.225 196.636 438.609 196.716L438.309 197.544ZM442.036 196.716C442.42 196.636 442.8 196.492 443.176 196.284C443.56 196.084 443.904 195.8 444.208 195.432C444.52 195.072 444.768 194.62 444.952 194.076C445.144 193.524 445.24 192.86 445.24 192.084C445.24 191.316 445.16 190.664 445 190.128C444.848 189.584 444.628 189.132 444.34 188.772C444.06 188.404 443.724 188.112 443.332 187.896C442.94 187.672 442.508 187.492 442.036 187.356L442.336 186.6C442.856 186.712 443.348 186.904 443.812 187.176C444.284 187.44 444.696 187.796 445.048 188.244C445.4 188.684 445.68 189.224 445.888 189.864C446.096 190.496 446.2 191.236 446.2 192.084C446.2 192.94 446.096 193.68 445.888 194.304C445.688 194.928 445.412 195.456 445.06 195.888C444.716 196.32 444.308 196.668 443.836 196.932C443.372 197.204 442.872 197.408 442.336 197.544L442.036 196.716Z" fill="white"/>
<path d="M368.415 173.6H370.287V176.744H370.347C370.595 176.464 370.883 176.248 371.211 176.096C371.539 175.936 371.947 175.856 372.435 175.856C372.819 175.856 373.151 175.896 373.431 175.976C373.719 176.056 373.951 176.196 374.127 176.396C374.311 176.596 374.447 176.872 374.535 177.224C374.623 177.568 374.667 178.008 374.667 178.544V182H373.731V178.724C373.731 178.38 373.711 178.08 373.671 177.824C373.631 177.568 373.551 177.356 373.431 177.188C373.319 177.012 373.163 176.88 372.963 176.792C372.763 176.704 372.507 176.66 372.195 176.66C371.979 176.66 371.767 176.7 371.559 176.78C371.351 176.852 371.159 176.956 370.983 177.092C370.815 177.22 370.667 177.38 370.539 177.572C370.419 177.756 370.335 177.96 370.287 178.184V182H369.363V174.404H368.415V173.6ZM376.823 182V181.196H378.911V176.804H376.823V176H379.871V181.196H381.911V182H376.823ZM378.587 174.296C378.587 174.08 378.659 173.896 378.803 173.744C378.947 173.584 379.131 173.504 379.355 173.504C379.587 173.504 379.779 173.584 379.931 173.744C380.091 173.896 380.171 174.08 380.171 174.296C380.171 174.504 380.091 174.68 379.931 174.824C379.779 174.968 379.587 175.04 379.355 175.04C379.131 175.04 378.947 174.968 378.803 174.824C378.659 174.68 378.587 174.504 378.587 174.296ZM383.046 173.6H384.99V178.568H385.65L388.014 176H389.142L386.49 178.844L388.674 181.196H389.454V182H388.218L385.65 179.288H384.99V182H384.066V174.404H383.046V173.6ZM396.301 181.244C396.157 181.372 395.985 181.492 395.785 181.604C395.593 181.716 395.381 181.812 395.149 181.892C394.917 181.972 394.673 182.032 394.417 182.072C394.169 182.12 393.917 182.144 393.661 182.144C393.181 182.144 392.757 182.072 392.389 181.928C392.021 181.776 391.713 181.564 391.465 181.292C391.217 181.012 391.029 180.68 390.901 180.296C390.773 179.912 390.709 179.48 390.709 179C390.709 178.496 390.777 178.048 390.913 177.656C391.057 177.264 391.261 176.936 391.525 176.672C391.789 176.408 392.109 176.208 392.485 176.072C392.861 175.928 393.281 175.856 393.745 175.856C394.081 175.856 394.413 175.9 394.741 175.988C395.069 176.076 395.357 176.244 395.605 176.492C395.861 176.732 396.057 177.068 396.193 177.5C396.329 177.924 396.377 178.476 396.337 179.156H391.693C391.693 179.876 391.885 180.416 392.269 180.776C392.661 181.128 393.181 181.304 393.829 181.304C394.045 181.304 394.257 181.28 394.465 181.232C394.681 181.176 394.885 181.112 395.077 181.04C395.269 180.968 395.437 180.888 395.581 180.8C395.733 180.712 395.849 180.632 395.929 180.56L396.301 181.244ZM393.769 176.648C393.505 176.648 393.253 176.676 393.013 176.732C392.781 176.788 392.573 176.884 392.389 177.02C392.213 177.148 392.065 177.32 391.945 177.536C391.833 177.744 391.761 178.004 391.729 178.316H395.461C395.421 177.788 395.249 177.38 394.945 177.092C394.649 176.796 394.257 176.648 393.769 176.648ZM402.404 180.38C402.404 180.124 402.304 179.928 402.104 179.792C401.904 179.648 401.656 179.536 401.36 179.456C401.064 179.368 400.74 179.288 400.388 179.216C400.044 179.144 399.724 179.048 399.428 178.928C399.132 178.808 398.884 178.648 398.684 178.448C398.484 178.24 398.384 177.952 398.384 177.584C398.384 177.28 398.448 177.02 398.576 176.804C398.712 176.588 398.888 176.412 399.104 176.276C399.32 176.132 399.572 176.028 399.86 175.964C400.148 175.892 400.448 175.856 400.76 175.856C401.32 175.856 401.8 175.928 402.2 176.072C402.608 176.208 402.932 176.352 403.172 176.504L402.788 177.26C402.524 177.116 402.236 176.98 401.924 176.852C401.62 176.716 401.236 176.648 400.772 176.648C400.596 176.648 400.42 176.668 400.244 176.708C400.076 176.74 399.92 176.792 399.776 176.864C399.64 176.936 399.528 177.032 399.44 177.152C399.36 177.264 399.32 177.404 399.32 177.572C399.32 177.78 399.42 177.94 399.62 178.052C399.82 178.164 400.068 178.26 400.364 178.34C400.66 178.412 400.98 178.484 401.324 178.556C401.676 178.62 402 178.716 402.296 178.844C402.592 178.972 402.84 179.144 403.04 179.36C403.24 179.576 403.34 179.868 403.34 180.236C403.34 180.788 403.12 181.244 402.68 181.604C402.248 181.964 401.596 182.144 400.724 182.144C400.46 182.144 400.2 182.12 399.944 182.072C399.688 182.024 399.448 181.96 399.224 181.88C399 181.8 398.796 181.712 398.612 181.616C398.428 181.512 398.276 181.408 398.156 181.304L398.636 180.524C398.732 180.62 398.86 180.72 399.02 180.824C399.18 180.92 399.356 181.008 399.548 181.088C399.74 181.168 399.944 181.232 400.16 181.28C400.384 181.328 400.608 181.352 400.832 181.352C401.048 181.352 401.248 181.336 401.432 181.304C401.624 181.264 401.792 181.208 401.936 181.136C402.08 181.056 402.192 180.956 402.272 180.836C402.36 180.708 402.404 180.556 402.404 180.38ZM409.828 178.148H406.06V182H405.064V173.6H406.06V177.26H409.828V173.6H410.824V182H409.828V178.148ZM417.887 181.244C417.743 181.372 417.571 181.492 417.371 181.604C417.179 181.716 416.967 181.812 416.735 181.892C416.503 181.972 416.259 182.032 416.003 182.072C415.755 182.12 415.503 182.144 415.247 182.144C414.767 182.144 414.343 182.072 413.975 181.928C413.607 181.776 413.299 181.564 413.051 181.292C412.803 181.012 412.615 180.68 412.487 180.296C412.359 179.912 412.295 179.48 412.295 179C412.295 178.496 412.363 178.048 412.499 177.656C412.643 177.264 412.847 176.936 413.111 176.672C413.375 176.408 413.695 176.208 414.071 176.072C414.447 175.928 414.867 175.856 415.331 175.856C415.667 175.856 415.999 175.9 416.327 175.988C416.655 176.076 416.943 176.244 417.191 176.492C417.447 176.732 417.643 177.068 417.779 177.5C417.915 177.924 417.963 178.476 417.923 179.156H413.279C413.279 179.876 413.471 180.416 413.855 180.776C414.247 181.128 414.767 181.304 415.415 181.304C415.631 181.304 415.843 181.28 416.051 181.232C416.267 181.176 416.471 181.112 416.663 181.04C416.855 180.968 417.023 180.888 417.167 180.8C417.319 180.712 417.435 180.632 417.515 180.56L417.887 181.244ZM415.355 176.648C415.091 176.648 414.839 176.676 414.599 176.732C414.367 176.788 414.159 176.884 413.975 177.02C413.799 177.148 413.651 177.32 413.531 177.536C413.419 177.744 413.347 178.004 413.315 178.316H417.047C417.007 177.788 416.835 177.38 416.531 177.092C416.235 176.796 415.843 176.648 415.355 176.648ZM420.03 176.468C420.374 176.268 420.762 176.124 421.194 176.036C421.626 175.948 422.05 175.904 422.466 175.904C422.874 175.904 423.206 175.968 423.462 176.096C423.726 176.224 423.93 176.392 424.074 176.6C424.226 176.8 424.326 177.032 424.374 177.296C424.43 177.552 424.458 177.812 424.458 178.076C424.458 178.38 424.45 178.704 424.434 179.048C424.418 179.392 424.406 179.736 424.398 180.08C424.398 180.48 424.422 180.86 424.47 181.22H425.274V182H423.678L423.57 181.1H423.51C423.462 181.172 423.39 181.264 423.294 181.376C423.198 181.488 423.07 181.6 422.91 181.712C422.758 181.816 422.57 181.908 422.346 181.988C422.122 182.068 421.858 182.108 421.554 182.108C420.962 182.108 420.494 181.956 420.15 181.652C419.806 181.348 419.634 180.932 419.634 180.404C419.634 179.996 419.722 179.656 419.898 179.384C420.082 179.112 420.342 178.904 420.678 178.76C421.014 178.616 421.418 178.532 421.89 178.508C422.37 178.484 422.906 178.516 423.498 178.604C423.538 178.236 423.542 177.932 423.51 177.692C423.486 177.444 423.422 177.248 423.318 177.104C423.222 176.96 423.082 176.86 422.898 176.804C422.722 176.74 422.502 176.708 422.238 176.708C421.878 176.708 421.534 176.76 421.206 176.864C420.878 176.96 420.586 177.06 420.33 177.164L420.03 176.468ZM421.794 181.304C422.018 181.304 422.226 181.268 422.418 181.196C422.61 181.124 422.778 181.032 422.922 180.92C423.066 180.808 423.186 180.688 423.282 180.56C423.378 180.424 423.45 180.296 423.498 180.176V179.336C423.082 179.264 422.698 179.228 422.346 179.228C421.994 179.228 421.69 179.268 421.434 179.348C421.178 179.42 420.978 179.536 420.834 179.696C420.69 179.856 420.618 180.064 420.618 180.32C420.618 180.584 420.706 180.816 420.882 181.016C421.066 181.208 421.37 181.304 421.794 181.304ZM430.118 173.6H432.062V179.948C432.062 180.02 432.066 180.112 432.074 180.224C432.082 180.328 432.09 180.44 432.098 180.56C432.114 180.68 432.13 180.8 432.146 180.92C432.162 181.032 432.178 181.132 432.194 181.22H432.998V182H431.402L431.282 181.076H431.234C431.058 181.38 430.794 181.636 430.442 181.844C430.098 182.044 429.698 182.144 429.242 182.144C428.338 182.144 427.67 181.892 427.238 181.388C426.814 180.876 426.602 180.084 426.602 179.012C426.602 178.508 426.674 178.064 426.818 177.68C426.962 177.288 427.166 176.964 427.43 176.708C427.702 176.444 428.026 176.244 428.402 176.108C428.778 175.972 429.198 175.904 429.662 175.904C429.83 175.904 429.978 175.908 430.106 175.916C430.242 175.924 430.366 175.936 430.478 175.952C430.59 175.968 430.694 175.992 430.79 176.024C430.894 176.048 431.006 176.076 431.126 176.108V174.404H430.118V173.6ZM429.398 181.34C429.886 181.34 430.27 181.216 430.55 180.968C430.83 180.712 431.022 180.332 431.126 179.828V177.044C430.95 176.924 430.75 176.836 430.526 176.78C430.31 176.724 430.022 176.696 429.662 176.696C429.022 176.696 428.518 176.884 428.15 177.26C427.782 177.628 427.598 178.212 427.598 179.012C427.598 179.34 427.626 179.648 427.682 179.936C427.746 180.216 427.846 180.46 427.982 180.668C428.126 180.876 428.314 181.04 428.546 181.16C428.778 181.28 429.062 181.34 429.398 181.34ZM434.385 182V181.196H436.473V176.804H434.385V176H437.433V181.196H439.473V182H434.385ZM436.149 174.296C436.149 174.08 436.221 173.896 436.365 173.744C436.509 173.584 436.693 173.504 436.917 173.504C437.149 173.504 437.341 173.584 437.493 173.744C437.653 173.896 437.733 174.08 437.733 174.296C437.733 174.504 437.653 174.68 437.493 174.824C437.341 174.968 437.149 175.04 436.917 175.04C436.693 175.04 436.509 174.968 436.365 174.824C436.221 174.68 436.149 174.504 436.149 174.296ZM441.436 178.1C441.436 178.028 441.432 177.936 441.424 177.824C441.424 177.704 441.42 177.584 441.412 177.464C441.404 177.336 441.392 177.212 441.376 177.092C441.368 176.972 441.356 176.868 441.34 176.78H440.536V176H442.144L442.252 176.972H442.312C442.392 176.836 442.496 176.704 442.624 176.576C442.76 176.44 442.916 176.32 443.092 176.216C443.268 176.104 443.464 176.016 443.68 175.952C443.896 175.888 444.124 175.856 444.364 175.856C444.732 175.856 445.056 175.896 445.336 175.976C445.624 176.056 445.86 176.2 446.044 176.408C446.236 176.608 446.38 176.884 446.476 177.236C446.572 177.58 446.62 178.02 446.62 178.556V182H445.684V178.736C445.684 178.072 445.576 177.572 445.36 177.236C445.144 176.9 444.752 176.732 444.184 176.732C443.976 176.732 443.772 176.776 443.572 176.864C443.38 176.944 443.204 177.052 443.044 177.188C442.884 177.324 442.744 177.484 442.624 177.668C442.504 177.844 442.416 178.032 442.36 178.232V182H441.436V178.1ZM453.804 182.3C453.804 182.676 453.732 183.004 453.588 183.284C453.444 183.572 453.244 183.808 452.988 183.992C452.74 184.176 452.448 184.312 452.112 184.4C451.776 184.496 451.412 184.544 451.02 184.544C450.548 184.544 450.136 184.496 449.784 184.4C449.432 184.304 449.128 184.18 448.872 184.028L449.328 183.176C449.4 183.24 449.492 183.3 449.604 183.356C449.724 183.42 449.86 183.476 450.012 183.524C450.164 183.58 450.324 183.624 450.492 183.656C450.668 183.688 450.84 183.704 451.008 183.704C451.36 183.704 451.652 183.672 451.884 183.608C452.124 183.544 452.316 183.444 452.46 183.308C452.604 183.172 452.708 182.996 452.772 182.78C452.836 182.564 452.868 182.3 452.868 181.988V181.316H452.82C452.636 181.58 452.4 181.784 452.112 181.928C451.824 182.072 451.452 182.144 450.996 182.144C450.084 182.144 449.412 181.892 448.98 181.388C448.556 180.876 448.344 180.084 448.344 179.012C448.344 177.988 448.616 177.216 449.16 176.696C449.704 176.168 450.512 175.904 451.584 175.904C452.08 175.904 452.5 175.94 452.844 176.012C453.196 176.076 453.516 176.16 453.804 176.264V182.3ZM451.128 181.34C451.616 181.34 452 181.216 452.28 180.968C452.56 180.712 452.756 180.324 452.868 179.804V176.96C452.516 176.792 452.024 176.708 451.392 176.708C450.752 176.708 450.248 176.896 449.88 177.272C449.512 177.648 449.328 178.224 449.328 179C449.328 179.344 449.36 179.66 449.424 179.948C449.488 180.228 449.588 180.472 449.724 180.68C449.868 180.888 450.052 181.052 450.276 181.172C450.508 181.284 450.792 181.34 451.128 181.34Z" fill="#FF7575"/>
<rect x="318" y="106" width="60" height="25" fill="#C44F59"/>
<path d="M332.176 114.2H338.392V115.908H334.094V118.33H338.084V120.038H334.094V124H332.176V114.2ZM344.995 121.83H342.069L341.397 124H339.479L342.643 114.2H344.561L347.711 124H345.695L344.995 121.83ZM342.517 120.29H344.617L343.623 117.014H343.497L342.517 120.29ZM348.545 122.292H351.023V115.908H348.545V114.2H355.433V115.908H352.941V122.292H355.433V124H348.545V122.292ZM361.98 120.01H363.716V124H357.276V114.2H359.194V122.292H361.98V120.01Z" fill="white"/>
<path d="M207 231H279.299V119H318" stroke="#C44F59" stroke-width="2" stroke-linecap="round" stroke-linejoin="round"/>
<path fill-rule="evenodd" clip-rule="evenodd" d="M221 270.399C221 274.602 218.363 278.079 214.933 278.657V278.742L213.921 278.742H183.079L182.067 278.742V278.657C178.637 278.079 176 274.602 176 270.399C176 265.791 179.169 262.056 183.079 262.056C184.718 262.056 186.227 262.713 187.427 263.815C188.308 259.871 191.008 257 194.202 257C195.923 257 197.5 257.833 198.727 259.218C199.961 257.835 201.558 257 203.303 257C206.44 257 209.1 259.696 210.029 263.429C211.146 262.561 212.484 262.056 213.921 262.056C217.831 262.056 221 265.791 221 270.399Z" fill="#56BE7B"/>
<path d="M187 172C187 170.343 188.343 169 190 169V169C191.657 169 193 170.343 193 172V279H187V172Z" fill="#524D4D"/>
<path d="M246.539 218.661C247.108 218.014 246.649 217 245.788 217H145.775C145.514 217 145.264 217.102 145.077 217.284L131.735 230.284C131.332 230.676 131.332 231.324 131.735 231.716L145.077 244.716C145.264 244.898 145.514 245 145.775 245H245.788C246.649 245 247.108 243.986 246.539 243.339L236.265 231.661C235.933 231.283 235.933 230.717 236.265 230.339L246.539 218.661Z" fill="#EEC991"/>
<path d="M160.558 235H159.601L155.709 229.004H155.67C155.68 229.163 155.691 229.346 155.704 229.551C155.717 229.753 155.727 229.969 155.733 230.2C155.743 230.428 155.748 230.661 155.748 230.898V235H154.977V227.861H155.929L159.806 233.838H159.84C159.833 233.724 159.825 233.563 159.815 233.354C159.806 233.143 159.796 232.917 159.786 232.676C159.78 232.432 159.776 232.205 159.776 231.997V227.861H160.558V235ZM166.998 232.314C166.998 232.754 166.941 233.146 166.827 233.491C166.713 233.836 166.549 234.128 166.334 234.365C166.119 234.603 165.859 234.785 165.553 234.912C165.25 235.036 164.907 235.098 164.522 235.098C164.164 235.098 163.836 235.036 163.536 234.912C163.24 234.785 162.983 234.603 162.765 234.365C162.55 234.128 162.382 233.836 162.262 233.491C162.145 233.146 162.086 232.754 162.086 232.314C162.086 231.729 162.185 231.23 162.384 230.82C162.582 230.407 162.866 230.093 163.233 229.878C163.604 229.66 164.046 229.551 164.557 229.551C165.045 229.551 165.471 229.66 165.836 229.878C166.204 230.096 166.489 230.412 166.69 230.825C166.896 231.235 166.998 231.732 166.998 232.314ZM162.926 232.314C162.926 232.744 162.983 233.117 163.097 233.433C163.211 233.748 163.386 233.993 163.624 234.165C163.862 234.338 164.168 234.424 164.542 234.424C164.913 234.424 165.217 234.338 165.455 234.165C165.696 233.993 165.873 233.748 165.987 233.433C166.101 233.117 166.158 232.744 166.158 232.314C166.158 231.888 166.101 231.52 165.987 231.211C165.873 230.898 165.698 230.658 165.46 230.488C165.222 230.319 164.915 230.234 164.537 230.234C163.98 230.234 163.572 230.418 163.312 230.786C163.054 231.154 162.926 231.663 162.926 232.314ZM171.808 227.402V229.673C171.808 229.803 171.804 229.935 171.798 230.068C171.791 230.199 171.78 230.319 171.764 230.43H171.817C171.928 230.241 172.068 230.083 172.237 229.956C172.41 229.826 172.605 229.728 172.823 229.663C173.041 229.595 173.272 229.561 173.517 229.561C173.946 229.561 174.304 229.629 174.591 229.766C174.881 229.902 175.097 230.114 175.24 230.4C175.387 230.687 175.46 231.058 175.46 231.514V235H174.659V231.567C174.659 231.121 174.557 230.788 174.352 230.566C174.15 230.345 173.839 230.234 173.419 230.234C173.022 230.234 172.704 230.311 172.467 230.464C172.232 230.614 172.063 230.835 171.959 231.128C171.858 231.421 171.808 231.779 171.808 232.202V235H170.997V227.402H171.808ZM177.94 229.648V235H177.13V229.648H177.94ZM177.545 227.646C177.678 227.646 177.792 227.69 177.887 227.778C177.984 227.863 178.033 227.996 178.033 228.179C178.033 228.358 177.984 228.491 177.887 228.579C177.792 228.667 177.678 228.711 177.545 228.711C177.405 228.711 177.288 228.667 177.193 228.579C177.102 228.491 177.057 228.358 177.057 228.179C177.057 227.996 177.102 227.863 177.193 227.778C177.288 227.69 177.405 227.646 177.545 227.646ZM180.465 227.402V231.348C180.465 231.478 180.46 231.637 180.45 231.826C180.44 232.012 180.432 232.176 180.426 232.319H180.46C180.528 232.235 180.628 232.109 180.758 231.943C180.891 231.777 181.004 231.644 181.095 231.543L182.872 229.648H183.824L181.671 231.934L183.98 235H183.004L181.114 232.466L180.465 233.062V235H179.659V227.402H180.465ZM186.974 229.551C187.429 229.551 187.82 229.652 188.146 229.854C188.471 230.055 188.72 230.339 188.893 230.703C189.065 231.064 189.151 231.488 189.151 231.973V232.476H185.455C185.465 233.104 185.621 233.582 185.924 233.911C186.227 234.24 186.653 234.404 187.203 234.404C187.542 234.404 187.841 234.373 188.102 234.312C188.362 234.25 188.632 234.159 188.912 234.038V234.751C188.642 234.871 188.373 234.959 188.106 235.015C187.843 235.07 187.53 235.098 187.169 235.098C186.655 235.098 186.205 234.993 185.821 234.785C185.44 234.574 185.144 234.264 184.933 233.857C184.721 233.451 184.615 232.952 184.615 232.363C184.615 231.787 184.711 231.289 184.903 230.869C185.099 230.446 185.372 230.12 185.724 229.893C186.078 229.665 186.495 229.551 186.974 229.551ZM186.964 230.215C186.531 230.215 186.186 230.356 185.929 230.64C185.672 230.923 185.519 231.318 185.47 231.826H188.302C188.299 231.507 188.248 231.227 188.15 230.986C188.056 230.742 187.911 230.553 187.716 230.42C187.521 230.283 187.27 230.215 186.964 230.215ZM193.99 233.535C193.99 233.877 193.904 234.165 193.731 234.399C193.562 234.631 193.318 234.805 192.999 234.922C192.683 235.039 192.306 235.098 191.866 235.098C191.492 235.098 191.168 235.068 190.895 235.01C190.621 234.951 190.382 234.868 190.177 234.761V234.014C190.395 234.121 190.655 234.219 190.958 234.307C191.261 234.395 191.57 234.438 191.886 234.438C192.348 234.438 192.683 234.364 192.892 234.214C193.1 234.064 193.204 233.861 193.204 233.604C193.204 233.457 193.162 233.328 193.077 233.218C192.996 233.104 192.857 232.995 192.662 232.891C192.467 232.783 192.197 232.666 191.852 232.539C191.51 232.409 191.214 232.28 190.963 232.153C190.715 232.023 190.523 231.865 190.387 231.68C190.253 231.494 190.187 231.253 190.187 230.957C190.187 230.505 190.369 230.158 190.733 229.917C191.101 229.673 191.583 229.551 192.179 229.551C192.501 229.551 192.802 229.583 193.082 229.648C193.365 229.71 193.629 229.795 193.873 229.902L193.6 230.552C193.378 230.457 193.142 230.378 192.892 230.312C192.641 230.247 192.385 230.215 192.125 230.215C191.751 230.215 191.463 230.277 191.261 230.4C191.062 230.524 190.963 230.693 190.963 230.908C190.963 231.074 191.008 231.211 191.1 231.318C191.194 231.426 191.344 231.527 191.549 231.621C191.754 231.715 192.024 231.826 192.359 231.953C192.695 232.077 192.984 232.205 193.229 232.339C193.473 232.469 193.66 232.629 193.79 232.817C193.924 233.003 193.99 233.242 193.99 233.535ZM200.274 230.283H198.941V235H198.131V230.283H197.184V229.893L198.131 229.624V229.268C198.131 228.818 198.198 228.454 198.331 228.174C198.465 227.891 198.658 227.682 198.912 227.549C199.166 227.415 199.475 227.349 199.84 227.349C200.045 227.349 200.232 227.367 200.401 227.402C200.574 227.438 200.725 227.479 200.855 227.524L200.646 228.164C200.535 228.128 200.41 228.096 200.27 228.066C200.133 228.034 199.993 228.018 199.85 228.018C199.54 228.018 199.311 228.118 199.161 228.32C199.015 228.519 198.941 228.831 198.941 229.258V229.648H200.274V230.283ZM205.875 232.314C205.875 232.754 205.818 233.146 205.704 233.491C205.59 233.836 205.426 234.128 205.211 234.365C204.996 234.603 204.736 234.785 204.43 234.912C204.127 235.036 203.784 235.098 203.399 235.098C203.041 235.098 202.713 235.036 202.413 234.912C202.117 234.785 201.86 234.603 201.642 234.365C201.427 234.128 201.259 233.836 201.139 233.491C201.021 233.146 200.963 232.754 200.963 232.314C200.963 231.729 201.062 231.23 201.261 230.82C201.459 230.407 201.743 230.093 202.11 229.878C202.481 229.66 202.923 229.551 203.434 229.551C203.922 229.551 204.348 229.66 204.713 229.878C205.081 230.096 205.366 230.412 205.567 230.825C205.772 231.235 205.875 231.732 205.875 232.314ZM201.803 232.314C201.803 232.744 201.86 233.117 201.974 233.433C202.088 233.748 202.263 233.993 202.501 234.165C202.739 234.338 203.045 234.424 203.419 234.424C203.79 234.424 204.094 234.338 204.332 234.165C204.573 233.993 204.75 233.748 204.864 233.433C204.978 233.117 205.035 232.744 205.035 232.314C205.035 231.888 204.978 231.52 204.864 231.211C204.75 230.898 204.575 230.658 204.337 230.488C204.099 230.319 203.792 230.234 203.414 230.234C202.857 230.234 202.449 230.418 202.188 230.786C201.931 231.154 201.803 231.663 201.803 232.314ZM211.695 229.648V235H211.031L210.914 234.248H210.87C210.759 234.434 210.616 234.59 210.44 234.717C210.265 234.844 210.066 234.938 209.845 235C209.627 235.065 209.394 235.098 209.146 235.098C208.723 235.098 208.368 235.029 208.082 234.893C207.796 234.756 207.579 234.544 207.433 234.258C207.289 233.971 207.218 233.604 207.218 233.154V229.648H208.038V233.096C208.038 233.542 208.139 233.875 208.341 234.097C208.543 234.315 208.85 234.424 209.264 234.424C209.661 234.424 209.977 234.349 210.211 234.199C210.449 234.049 210.619 233.83 210.724 233.54C210.828 233.247 210.88 232.889 210.88 232.466V229.648H211.695ZM215.943 229.551C216.578 229.551 217.058 229.707 217.384 230.02C217.709 230.329 217.872 230.827 217.872 231.514V235H217.071V231.567C217.071 231.121 216.969 230.788 216.764 230.566C216.562 230.345 216.251 230.234 215.831 230.234C215.239 230.234 214.822 230.402 214.581 230.737C214.34 231.073 214.22 231.559 214.22 232.197V235H213.409V229.648H214.063L214.186 230.42H214.229C214.343 230.231 214.488 230.073 214.664 229.946C214.84 229.816 215.037 229.718 215.255 229.653C215.473 229.585 215.702 229.551 215.943 229.551ZM221.446 235.098C220.769 235.098 220.232 234.867 219.835 234.404C219.441 233.942 219.244 233.255 219.244 232.344C219.244 231.423 219.446 230.728 219.85 230.259C220.253 229.787 220.79 229.551 221.461 229.551C221.744 229.551 221.992 229.588 222.203 229.663C222.415 229.738 222.597 229.839 222.75 229.966C222.903 230.09 223.032 230.231 223.136 230.391H223.194C223.181 230.29 223.168 230.151 223.155 229.976C223.142 229.8 223.136 229.657 223.136 229.546V227.402H223.946V235H223.292L223.17 234.238H223.136C223.035 234.398 222.906 234.543 222.75 234.673C222.597 234.803 222.413 234.907 222.198 234.985C221.987 235.06 221.736 235.098 221.446 235.098ZM221.573 234.424C222.146 234.424 222.551 234.261 222.789 233.936C223.027 233.61 223.146 233.127 223.146 232.485V232.339C223.146 231.659 223.032 231.136 222.804 230.771C222.579 230.407 222.169 230.225 221.573 230.225C221.075 230.225 220.702 230.417 220.455 230.801C220.208 231.182 220.084 231.702 220.084 232.363C220.084 233.021 220.206 233.529 220.45 233.887C220.698 234.245 221.072 234.424 221.573 234.424Z" fill="#4A4545"/>
<path d="M152.882 181.505C152.491 180.839 152.972 180 153.745 180H217.168C217.499 180 217.808 180.163 217.994 180.436L226.508 192.893C226.741 193.233 226.741 193.681 226.508 194.022L217.994 206.479C217.808 206.752 217.499 206.915 217.168 206.915H153.745C152.972 206.915 152.491 206.076 152.882 205.409L159.587 193.963C159.77 193.651 159.77 193.264 159.587 192.952L152.882 181.505Z" fill="#EEC991"/>
<path d="M182.168 193.421C182.168 193.971 182.098 194.472 181.958 194.925C181.818 195.374 181.61 195.761 181.333 196.087C181.06 196.409 180.719 196.658 180.312 196.834C179.906 197.01 179.434 197.098 178.896 197.098C178.343 197.098 177.86 197.01 177.446 196.834C177.036 196.658 176.694 196.408 176.421 196.082C176.151 195.757 175.947 195.368 175.811 194.915C175.677 194.463 175.61 193.961 175.61 193.411C175.61 192.682 175.731 192.042 175.972 191.492C176.213 190.942 176.577 190.514 177.065 190.208C177.557 189.902 178.172 189.749 178.911 189.749C179.618 189.749 180.212 189.9 180.693 190.203C181.178 190.506 181.545 190.932 181.792 191.482C182.043 192.029 182.168 192.675 182.168 193.421ZM176.484 193.421C176.484 194.026 176.571 194.55 176.743 194.993C176.916 195.436 177.179 195.778 177.534 196.019C177.892 196.259 178.346 196.38 178.896 196.38C179.45 196.38 179.902 196.259 180.254 196.019C180.609 195.778 180.871 195.436 181.04 194.993C181.209 194.55 181.294 194.026 181.294 193.421C181.294 192.5 181.1 191.78 180.713 191.263C180.329 190.742 179.728 190.481 178.911 190.481C178.358 190.481 177.902 190.6 177.544 190.838C177.186 191.076 176.919 191.414 176.743 191.854C176.571 192.29 176.484 192.812 176.484 193.421ZM188.252 194.314C188.252 194.754 188.195 195.146 188.081 195.491C187.967 195.836 187.803 196.128 187.588 196.365C187.373 196.603 187.113 196.785 186.807 196.912C186.504 197.036 186.16 197.098 185.776 197.098C185.418 197.098 185.09 197.036 184.79 196.912C184.494 196.785 184.237 196.603 184.019 196.365C183.804 196.128 183.636 195.836 183.516 195.491C183.398 195.146 183.34 194.754 183.34 194.314C183.34 193.729 183.439 193.23 183.638 192.82C183.836 192.407 184.119 192.093 184.487 191.878C184.858 191.66 185.299 191.551 185.811 191.551C186.299 191.551 186.725 191.66 187.09 191.878C187.458 192.096 187.743 192.412 187.944 192.825C188.149 193.235 188.252 193.732 188.252 194.314ZM184.18 194.314C184.18 194.744 184.237 195.117 184.351 195.433C184.465 195.748 184.64 195.993 184.878 196.165C185.116 196.338 185.422 196.424 185.796 196.424C186.167 196.424 186.471 196.338 186.709 196.165C186.95 195.993 187.127 195.748 187.241 195.433C187.355 195.117 187.412 194.744 187.412 194.314C187.412 193.888 187.355 193.52 187.241 193.211C187.127 192.898 186.951 192.658 186.714 192.488C186.476 192.319 186.169 192.234 185.791 192.234C185.234 192.234 184.826 192.418 184.565 192.786C184.308 193.154 184.18 193.663 184.18 194.314ZM192.168 191.551C192.835 191.551 193.368 191.78 193.765 192.239C194.162 192.698 194.36 193.388 194.36 194.31C194.36 194.918 194.269 195.429 194.087 195.843C193.905 196.256 193.647 196.569 193.315 196.78C192.987 196.992 192.598 197.098 192.148 197.098C191.865 197.098 191.616 197.06 191.401 196.985C191.187 196.91 191.003 196.81 190.85 196.683C190.697 196.556 190.57 196.417 190.469 196.268H190.41C190.42 196.395 190.431 196.548 190.444 196.727C190.461 196.906 190.469 197.062 190.469 197.195V199.393H189.653V191.648H190.322L190.43 192.439H190.469C190.573 192.277 190.7 192.129 190.85 191.995C190.999 191.858 191.182 191.751 191.396 191.673C191.615 191.591 191.872 191.551 192.168 191.551ZM192.026 192.234C191.655 192.234 191.356 192.306 191.128 192.449C190.903 192.592 190.739 192.807 190.635 193.094C190.531 193.377 190.475 193.733 190.469 194.163V194.319C190.469 194.772 190.518 195.154 190.615 195.467C190.716 195.779 190.881 196.017 191.108 196.18C191.34 196.342 191.649 196.424 192.036 196.424C192.368 196.424 192.645 196.334 192.866 196.155C193.088 195.976 193.252 195.727 193.359 195.408C193.47 195.086 193.525 194.716 193.525 194.3C193.525 193.668 193.402 193.167 193.154 192.796C192.91 192.422 192.534 192.234 192.026 192.234ZM199.238 195.535C199.238 195.877 199.152 196.165 198.979 196.399C198.81 196.631 198.566 196.805 198.247 196.922C197.931 197.039 197.554 197.098 197.114 197.098C196.74 197.098 196.416 197.068 196.143 197.01C195.869 196.951 195.63 196.868 195.425 196.761V196.014C195.643 196.121 195.903 196.219 196.206 196.307C196.509 196.395 196.818 196.438 197.134 196.438C197.596 196.438 197.931 196.364 198.14 196.214C198.348 196.064 198.452 195.861 198.452 195.604C198.452 195.457 198.41 195.328 198.325 195.218C198.244 195.104 198.105 194.995 197.91 194.891C197.715 194.783 197.445 194.666 197.1 194.539C196.758 194.409 196.462 194.28 196.211 194.153C195.964 194.023 195.771 193.865 195.635 193.68C195.501 193.494 195.435 193.253 195.435 192.957C195.435 192.505 195.617 192.158 195.981 191.917C196.349 191.673 196.831 191.551 197.427 191.551C197.749 191.551 198.05 191.583 198.33 191.648C198.613 191.71 198.877 191.795 199.121 191.902L198.848 192.552C198.626 192.457 198.39 192.378 198.14 192.312C197.889 192.247 197.633 192.215 197.373 192.215C196.999 192.215 196.711 192.277 196.509 192.4C196.31 192.524 196.211 192.693 196.211 192.908C196.211 193.074 196.257 193.211 196.348 193.318C196.442 193.426 196.592 193.527 196.797 193.621C197.002 193.715 197.272 193.826 197.607 193.953C197.943 194.077 198.232 194.205 198.477 194.339C198.721 194.469 198.908 194.629 199.038 194.817C199.172 195.003 199.238 195.242 199.238 195.535ZM201.274 195.018H200.742L200.518 189.861H201.499L201.274 195.018ZM200.42 196.492C200.42 196.264 200.475 196.103 200.586 196.009C200.697 195.911 200.835 195.862 201.001 195.862C201.164 195.862 201.3 195.911 201.411 196.009C201.525 196.103 201.582 196.264 201.582 196.492C201.582 196.717 201.525 196.881 201.411 196.985C201.3 197.086 201.164 197.137 201.001 197.137C200.835 197.137 200.697 197.086 200.586 196.985C200.475 196.881 200.42 196.717 200.42 196.492Z" fill="#4A4545"/>
<path fill-rule="evenodd" clip-rule="evenodd" d="M173 272.471C173 275.606 174.873 278.148 177.184 278.148H193.32V277.927C195.396 277.57 197 275.224 197 272.383C197 269.296 195.106 266.793 192.769 266.793C191.225 266.793 189.873 267.887 189.135 269.521C188.722 266.936 187.028 265 185 265C182.924 265 181.198 267.029 180.838 269.705C180.123 267.968 178.754 266.793 177.184 266.793C174.873 266.793 173 269.335 173 272.471Z" fill="#65DC90"/>
<line x1="133" y1="278.5" x2="240" y2="278.5" stroke="#56BE7B"/>
<defs>
<linearGradient id="paint0_linear_27_57" x1="390.5" y1="81" x2="390.5" y2="223" gradientUnits="userSpaceOnUse">
<stop stop-color="#132846"/>
<stop offset="1" stop-color="#482762"/>
</linearGradient>
</defs>
</svg>
