<svg width="496" height="320" viewBox="0 0 496 320" fill="none" xmlns="http://www.w3.org/2000/svg">
<rect width="496" height="320" fill="white"/>
<path d="M0 5.00001C0 2.23858 2.23858 0 5 0H372C374.761 0 377 2.23858 377 5V313C377 315.761 374.761 318 372 318H5.00001C2.23859 318 0 315.761 0 313V5.00001Z" fill="#DFDFDF"/>
<path d="M2 31H375V312.71C375 314.367 373.657 315.71 372 315.71H4.99999C3.34314 315.71 2 314.367 2 312.71V31Z" fill="#F7F5F4"/>
<rect x="293" y="81" width="195" height="142" rx="5" fill="url(#paint0_linear_27_57)"/>
<g style="mix-blend-mode:multiply">
<rect x="290" y="86" width="193" height="140" rx="4" stroke="#5B3BBC" stroke-width="2"/>
</g>
<path d="M2 7C2 4.23858 4.23858 2 7 2H372C374.761 2 377 4.23858 377 7V31H2V7Z" fill="#DFDFDF"/>
<circle cx="16.5" cy="16.5" r="4.5" fill="#808080"/>
<circle cx="31.5" cy="16.5" r="4.5" fill="#BDBDBD"/>
<circle cx="46.5" cy="16.5" r="4.5" fill="#A4A4A4"/>
<rect x="17" y="53" width="20" height="4" fill="#DFDFDF"/>
<rect x="42" y="53" width="20" height="4" fill="#DFDFDF"/>
<rect x="67" y="53" width="20" height="4" fill="#DFDFDF"/>
<rect x="319" y="53" width="18" height="5" rx="1" fill="#65DC90"/>
<rect x="342" y="53" width="18" height="5" rx="1" fill="#65DC90"/>
<path d="M181.064 56.7811C181.411 55.9776 182.551 55.9776 182.899 56.7811L187.962 68.4748H176L181.064 56.7811Z" fill="#65DC90"/>
<path d="M191.629 46.7597C192.293 45.0647 194.691 45.0647 195.354 46.7597L203.852 68.4748H183.132L191.629 46.7597Z" fill="#65DC90"/>
<rect x="115" y="110" width="150" height="24" rx="5" fill="#DFDFDF"/>
<path d="M242 110H260C262.761 110 265 112.239 265 115V129C265 131.761 262.761 134 260 134H242V110Z" fill="#F3592A"/>
<path d="M257 120.5C257 122.985 254.985 125 252.5 125C250.015 125 248 122.985 248 120.5C248 118.015 250.015 116 252.5 116C254.985 116 257 118.015 257 120.5ZM249.004 120.5C249.004 122.431 250.569 123.996 252.5 123.996C254.431 123.996 255.996 122.431 255.996 120.5C255.996 118.569 254.431 117.004 252.5 117.004C250.569 117.004 249.004 118.569 249.004 120.5Z" fill="white"/>
<line x1="255.014" y1="124.075" x2="259.052" y2="128.513" stroke="white" stroke-linecap="round"/>
<path d="M321.6 151.036C322.032 151.036 322.456 151.148 322.872 151.372C323.288 151.596 323.608 151.916 323.832 152.332C324.064 152.74 324.18 153.168 324.18 153.616C324.18 154.328 323.928 154.936 323.424 155.44C322.92 155.944 322.312 156.196 321.6 156.196C320.888 156.196 320.28 155.944 319.776 155.44C319.272 154.936 319.02 154.328 319.02 153.616C319.02 153.168 319.136 152.74 319.368 152.332C319.6 151.916 319.92 151.596 320.328 151.372C320.744 151.148 321.168 151.036 321.6 151.036ZM333.807 155.68H335.175V149.92H334.023V151.372H332.703V148.6H339.279V151.372H337.959V149.92H336.819V155.68H338.175V157H333.807V155.68ZM340.006 154C340.006 153.496 340.082 153.048 340.234 152.656C340.386 152.264 340.602 151.932 340.882 151.66C341.162 151.388 341.494 151.184 341.878 151.048C342.27 150.904 342.706 150.832 343.186 150.832C343.69 150.832 344.138 150.908 344.53 151.06C344.93 151.212 345.266 151.428 345.538 151.708C345.81 151.98 346.014 152.312 346.15 152.704C346.294 153.096 346.366 153.528 346.366 154C346.366 154.504 346.29 154.952 346.138 155.344C345.986 155.736 345.77 156.068 345.49 156.34C345.21 156.612 344.874 156.82 344.482 156.964C344.098 157.1 343.666 157.168 343.186 157.168C342.682 157.168 342.23 157.092 341.83 156.94C341.438 156.788 341.106 156.576 340.834 156.304C340.562 156.024 340.354 155.688 340.21 155.296C340.074 154.904 340.006 154.472 340.006 154ZM341.614 154C341.614 154.264 341.65 154.508 341.722 154.732C341.794 154.956 341.898 155.152 342.034 155.32C342.17 155.488 342.334 155.62 342.526 155.716C342.718 155.804 342.938 155.848 343.186 155.848C343.65 155.848 344.026 155.7 344.314 155.404C344.61 155.108 344.758 154.64 344.758 154C344.758 153.448 344.622 153.004 344.35 152.668C344.078 152.324 343.69 152.152 343.186 152.152C342.962 152.152 342.754 152.188 342.562 152.26C342.37 152.324 342.202 152.432 342.058 152.584C341.922 152.736 341.814 152.928 341.734 153.16C341.654 153.392 341.614 153.672 341.614 154ZM353.141 157C353.141 157.432 353.065 157.808 352.913 158.128C352.769 158.448 352.565 158.712 352.301 158.92C352.045 159.136 351.737 159.292 351.377 159.388C351.025 159.492 350.637 159.544 350.213 159.544C349.925 159.544 349.653 159.52 349.397 159.472C349.149 159.432 348.917 159.376 348.701 159.304C348.493 159.232 348.309 159.152 348.149 159.064C347.989 158.984 347.861 158.904 347.765 158.824L348.365 157.72C348.557 157.848 348.785 157.968 349.049 158.08C349.321 158.2 349.661 158.26 350.069 158.26C350.573 158.26 350.957 158.144 351.221 157.912C351.485 157.68 351.617 157.348 351.617 156.916V156.532H351.569C351.425 156.724 351.213 156.868 350.933 156.964C350.653 157.052 350.329 157.096 349.961 157.096C349.577 157.096 349.221 157.036 348.893 156.916C348.573 156.796 348.293 156.616 348.053 156.376C347.813 156.128 347.625 155.816 347.489 155.44C347.361 155.064 347.297 154.624 347.297 154.12C347.297 153.592 347.373 153.124 347.525 152.716C347.685 152.308 347.905 151.968 348.185 151.696C348.473 151.416 348.813 151.208 349.205 151.072C349.605 150.928 350.049 150.856 350.537 150.856C350.793 150.856 351.049 150.868 351.305 150.892C351.561 150.908 351.801 150.932 352.025 150.964C352.257 150.996 352.469 151.036 352.661 151.084C352.853 151.124 353.013 151.168 353.141 151.216V157ZM350.261 155.848C350.565 155.848 350.837 155.78 351.077 155.644C351.325 155.508 351.493 155.304 351.581 155.032V152.332C351.469 152.284 351.309 152.248 351.101 152.224C350.901 152.192 350.709 152.176 350.525 152.176C350.301 152.176 350.089 152.212 349.889 152.284C349.697 152.356 349.525 152.472 349.373 152.632C349.229 152.784 349.113 152.98 349.025 153.22C348.945 153.452 348.905 153.732 348.905 154.06C348.905 154.348 348.941 154.604 349.013 154.828C349.085 155.052 349.185 155.24 349.313 155.392C349.441 155.544 349.585 155.66 349.745 155.74C349.905 155.812 350.077 155.848 350.261 155.848ZM360.337 157C360.337 157.432 360.261 157.808 360.109 158.128C359.965 158.448 359.761 158.712 359.497 158.92C359.241 159.136 358.933 159.292 358.573 159.388C358.221 159.492 357.833 159.544 357.409 159.544C357.121 159.544 356.849 159.52 356.593 159.472C356.345 159.432 356.113 159.376 355.897 159.304C355.689 159.232 355.505 159.152 355.345 159.064C355.185 158.984 355.057 158.904 354.961 158.824L355.561 157.72C355.753 157.848 355.981 157.968 356.245 158.08C356.517 158.2 356.857 158.26 357.265 158.26C357.769 158.26 358.153 158.144 358.417 157.912C358.681 157.68 358.813 157.348 358.813 156.916V156.532H358.765C358.621 156.724 358.409 156.868 358.129 156.964C357.849 157.052 357.525 157.096 357.157 157.096C356.773 157.096 356.417 157.036 356.089 156.916C355.769 156.796 355.489 156.616 355.249 156.376C355.009 156.128 354.821 155.816 354.685 155.44C354.557 155.064 354.493 154.624 354.493 154.12C354.493 153.592 354.569 153.124 354.721 152.716C354.881 152.308 355.101 151.968 355.381 151.696C355.669 151.416 356.009 151.208 356.401 151.072C356.801 150.928 357.245 150.856 357.733 150.856C357.989 150.856 358.245 150.868 358.501 150.892C358.757 150.908 358.997 150.932 359.221 150.964C359.453 150.996 359.665 151.036 359.857 151.084C360.049 151.124 360.209 151.168 360.337 151.216V157ZM357.457 155.848C357.761 155.848 358.033 155.78 358.273 155.644C358.521 155.508 358.689 155.304 358.777 155.032V152.332C358.665 152.284 358.505 152.248 358.297 152.224C358.097 152.192 357.905 152.176 357.721 152.176C357.497 152.176 357.285 152.212 357.085 152.284C356.893 152.356 356.721 152.472 356.569 152.632C356.425 152.784 356.309 152.98 356.221 153.22C356.141 153.452 356.101 153.732 356.101 154.06C356.101 154.348 356.137 154.604 356.209 154.828C356.281 155.052 356.381 155.24 356.509 155.392C356.637 155.544 356.781 155.66 356.941 155.74C357.101 155.812 357.273 155.848 357.457 155.848ZM362.216 148.6H364.772V154.144C364.772 154.76 364.848 155.188 365 155.428C365.152 155.668 365.396 155.788 365.732 155.788C365.98 155.788 366.184 155.764 366.344 155.716C366.504 155.66 366.664 155.584 366.824 155.488L367.412 156.568C367.276 156.656 367.14 156.74 367.004 156.82C366.868 156.892 366.724 156.952 366.572 157C366.42 157.056 366.252 157.096 366.068 157.12C365.892 157.152 365.692 157.168 365.468 157.168C364.716 157.168 364.152 156.976 363.776 156.592C363.4 156.208 363.212 155.664 363.212 154.96V149.92H362.216V148.6ZM374.775 156.364C374.671 156.46 374.535 156.556 374.367 156.652C374.207 156.74 374.015 156.824 373.791 156.904C373.575 156.984 373.335 157.048 373.071 157.096C372.807 157.144 372.527 157.168 372.231 157.168C371.719 157.168 371.259 157.096 370.851 156.952C370.451 156.808 370.111 156.6 369.831 156.328C369.551 156.048 369.335 155.716 369.183 155.332C369.039 154.94 368.967 154.496 368.967 154C368.967 153.472 369.051 153.012 369.219 152.62C369.387 152.22 369.615 151.888 369.903 151.624C370.199 151.36 370.543 151.164 370.935 151.036C371.327 150.9 371.751 150.832 372.207 150.832C372.511 150.832 372.823 150.872 373.143 150.952C373.471 151.032 373.771 151.172 374.043 151.372C374.315 151.564 374.535 151.824 374.703 152.152C374.879 152.48 374.967 152.896 374.967 153.4C374.967 153.744 374.927 154.116 374.847 154.516H370.527C370.535 154.772 370.587 154.988 370.683 155.164C370.787 155.34 370.919 155.484 371.079 155.596C371.247 155.708 371.435 155.792 371.643 155.848C371.859 155.896 372.087 155.92 372.327 155.92C372.807 155.92 373.199 155.864 373.503 155.752C373.815 155.64 374.067 155.504 374.259 155.344L374.775 156.364ZM372.183 152.08C371.975 152.08 371.779 152.108 371.595 152.164C371.411 152.22 371.243 152.304 371.091 152.416C370.947 152.52 370.827 152.652 370.731 152.812C370.635 152.972 370.579 153.152 370.563 153.352H373.515C373.515 152.96 373.403 152.652 373.179 152.428C372.963 152.196 372.631 152.08 372.183 152.08ZM387.714 153.484H385.002V157H383.358V148.6H385.002V152.02H387.714V148.6H389.358V157H387.714V153.484ZM390.661 155.68H392.773V152.32H390.661V151H394.333V155.68H396.553V157H390.661V155.68ZM392.485 149.368C392.485 149.12 392.577 148.908 392.761 148.732C392.945 148.556 393.201 148.468 393.529 148.468C393.865 148.468 394.133 148.556 394.333 148.732C394.533 148.908 394.633 149.12 394.633 149.368C394.633 149.624 394.533 149.836 394.333 150.004C394.133 150.164 393.865 150.244 393.529 150.244C393.201 150.244 392.945 150.164 392.761 150.004C392.577 149.836 392.485 149.624 392.485 149.368ZM397.148 148.6H399.692V153.388H400.052L402.02 151H403.856L401.432 153.736L403.004 155.68H404.12V157H402.176L400.112 154.516H399.692V157H398.132V149.92H397.148V148.6ZM410.752 156.364C410.648 156.46 410.512 156.556 410.344 156.652C410.184 156.74 409.992 156.824 409.768 156.904C409.552 156.984 409.312 157.048 409.048 157.096C408.784 157.144 408.504 157.168 408.208 157.168C407.696 157.168 407.236 157.096 406.828 156.952C406.428 156.808 406.088 156.6 405.808 156.328C405.528 156.048 405.312 155.716 405.16 155.332C405.016 154.94 404.944 154.496 404.944 154C404.944 153.472 405.028 153.012 405.196 152.62C405.364 152.22 405.592 151.888 405.88 151.624C406.176 151.36 406.52 151.164 406.912 151.036C407.304 150.9 407.728 150.832 408.184 150.832C408.488 150.832 408.8 150.872 409.12 150.952C409.448 151.032 409.748 151.172 410.02 151.372C410.292 151.564 410.512 151.824 410.68 152.152C410.856 152.48 410.944 152.896 410.944 153.4C410.944 153.744 410.904 154.116 410.824 154.516H406.504C406.512 154.772 406.564 154.988 406.66 155.164C406.764 155.34 406.896 155.484 407.056 155.596C407.224 155.708 407.412 155.792 407.62 155.848C407.836 155.896 408.064 155.92 408.304 155.92C408.784 155.92 409.176 155.864 409.48 155.752C409.792 155.64 410.044 155.504 410.236 155.344L410.752 156.364ZM408.16 152.08C407.952 152.08 407.756 152.108 407.572 152.164C407.388 152.22 407.22 152.304 407.068 152.416C406.924 152.52 406.804 152.652 406.708 152.812C406.612 152.972 406.556 153.152 406.54 153.352H409.492C409.492 152.96 409.38 152.652 409.156 152.428C408.94 152.196 408.608 152.08 408.16 152.08ZM416.363 155.344C416.363 155.184 416.263 155.056 416.063 154.96C415.871 154.864 415.631 154.776 415.343 154.696C415.055 154.616 414.739 154.536 414.395 154.456C414.051 154.368 413.735 154.252 413.447 154.108C413.159 153.956 412.915 153.768 412.715 153.544C412.523 153.312 412.427 153.016 412.427 152.656C412.427 152.36 412.491 152.1 412.619 151.876C412.755 151.652 412.935 151.464 413.159 151.312C413.391 151.152 413.663 151.032 413.975 150.952C414.295 150.872 414.639 150.832 415.007 150.832C415.399 150.832 415.743 150.86 416.039 150.916C416.335 150.972 416.591 151.04 416.807 151.12C417.031 151.2 417.219 151.292 417.371 151.396C417.531 151.492 417.667 151.58 417.779 151.66L417.119 152.728C416.999 152.656 416.859 152.584 416.699 152.512C416.547 152.432 416.383 152.36 416.207 152.296C416.039 152.232 415.859 152.18 415.667 152.14C415.483 152.1 415.299 152.08 415.115 152.08C414.779 152.08 414.507 152.124 414.299 152.212C414.091 152.3 413.987 152.436 413.987 152.62C413.987 152.764 414.083 152.88 414.275 152.968C414.475 153.056 414.719 153.14 415.007 153.22C415.295 153.292 415.611 153.372 415.955 153.46C416.299 153.548 416.615 153.664 416.903 153.808C417.191 153.944 417.431 154.124 417.623 154.348C417.823 154.572 417.923 154.86 417.923 155.212C417.923 155.82 417.699 156.3 417.251 156.652C416.811 156.996 416.155 157.168 415.283 157.168C414.595 157.168 413.999 157.068 413.495 156.868C412.999 156.66 412.599 156.42 412.295 156.148L413.015 155.02C413.119 155.108 413.255 155.208 413.423 155.32C413.599 155.424 413.795 155.52 414.011 155.608C414.227 155.696 414.455 155.772 414.695 155.836C414.943 155.892 415.187 155.92 415.427 155.92C415.683 155.92 415.903 155.876 416.087 155.788C416.271 155.7 416.363 155.552 416.363 155.344ZM430.898 153.58H432.386V157H426.866V148.6H428.51V155.536H430.898V153.58ZM433.833 155.68H435.945V152.32H433.833V151H437.505V155.68H439.725V157H433.833V155.68ZM435.657 149.368C435.657 149.12 435.749 148.908 435.933 148.732C436.117 148.556 436.373 148.468 436.701 148.468C437.037 148.468 437.305 148.556 437.505 148.732C437.705 148.908 437.805 149.12 437.805 149.368C437.805 149.624 437.705 149.836 437.505 150.004C437.305 150.164 437.037 150.244 436.701 150.244C436.373 150.244 436.117 150.164 435.933 150.004C435.749 149.836 435.657 149.624 435.657 149.368ZM445.144 155.344C445.144 155.184 445.044 155.056 444.844 154.96C444.652 154.864 444.412 154.776 444.124 154.696C443.836 154.616 443.52 154.536 443.176 154.456C442.832 154.368 442.516 154.252 442.228 154.108C441.94 153.956 441.696 153.768 441.496 153.544C441.304 153.312 441.208 153.016 441.208 152.656C441.208 152.36 441.272 152.1 441.4 151.876C441.536 151.652 441.716 151.464 441.94 151.312C442.172 151.152 442.444 151.032 442.756 150.952C443.076 150.872 443.42 150.832 443.788 150.832C444.18 150.832 444.524 150.86 444.82 150.916C445.116 150.972 445.372 151.04 445.588 151.12C445.812 151.2 446 151.292 446.152 151.396C446.312 151.492 446.448 151.58 446.56 151.66L445.9 152.728C445.78 152.656 445.64 152.584 445.48 152.512C445.328 152.432 445.164 152.36 444.988 152.296C444.82 152.232 444.64 152.18 444.448 152.14C444.264 152.1 444.08 152.08 443.896 152.08C443.56 152.08 443.288 152.124 443.08 152.212C442.872 152.3 442.768 152.436 442.768 152.62C442.768 152.764 442.864 152.88 443.056 152.968C443.256 153.056 443.5 153.14 443.788 153.22C444.076 153.292 444.392 153.372 444.736 153.46C445.08 153.548 445.396 153.664 445.684 153.808C445.972 153.944 446.212 154.124 446.404 154.348C446.604 154.572 446.704 154.86 446.704 155.212C446.704 155.82 446.48 156.3 446.032 156.652C445.592 156.996 444.936 157.168 444.064 157.168C443.376 157.168 442.78 157.068 442.276 156.868C441.78 156.66 441.38 156.42 441.076 156.148L441.796 155.02C441.9 155.108 442.036 155.208 442.204 155.32C442.38 155.424 442.576 155.52 442.792 155.608C443.008 155.696 443.236 155.772 443.476 155.836C443.724 155.892 443.968 155.92 444.208 155.92C444.464 155.92 444.684 155.876 444.868 155.788C445.052 155.7 445.144 155.552 445.144 155.344ZM448.908 152.32H447.72V151H448.908V149.632L450.468 149.188V151H453.612V152.32H450.468V154.036C450.468 154.652 450.584 155.1 450.816 155.38C451.048 155.652 451.372 155.788 451.788 155.788C452.004 155.788 452.2 155.764 452.376 155.716C452.552 155.66 452.708 155.592 452.844 155.512C452.988 155.432 453.116 155.344 453.228 155.248C453.348 155.152 453.456 155.064 453.552 154.984L454.272 156.064C454.136 156.224 453.964 156.372 453.756 156.508C453.556 156.636 453.336 156.752 453.096 156.856C452.864 156.952 452.62 157.028 452.364 157.084C452.108 157.14 451.856 157.168 451.608 157.168C450.712 157.168 450.036 156.92 449.58 156.424C449.132 155.92 448.908 155.124 448.908 154.036V152.32Z" fill="#FF7575"/>
<path d="M324.348 181.244C324.204 181.372 324.032 181.492 323.832 181.604C323.64 181.716 323.428 181.812 323.196 181.892C322.964 181.972 322.72 182.032 322.464 182.072C322.216 182.12 321.964 182.144 321.708 182.144C321.228 182.144 320.804 182.072 320.436 181.928C320.068 181.776 319.76 181.564 319.512 181.292C319.264 181.012 319.076 180.68 318.948 180.296C318.82 179.912 318.756 179.48 318.756 179C318.756 178.496 318.824 178.048 318.96 177.656C319.104 177.264 319.308 176.936 319.572 176.672C319.836 176.408 320.156 176.208 320.532 176.072C320.908 175.928 321.328 175.856 321.792 175.856C322.128 175.856 322.46 175.9 322.788 175.988C323.116 176.076 323.404 176.244 323.652 176.492C323.908 176.732 324.104 177.068 324.24 177.5C324.376 177.924 324.424 178.476 324.384 179.156H319.74C319.74 179.876 319.932 180.416 320.316 180.776C320.708 181.128 321.228 181.304 321.876 181.304C322.092 181.304 322.304 181.28 322.512 181.232C322.728 181.176 322.932 181.112 323.124 181.04C323.316 180.968 323.484 180.888 323.628 180.8C323.78 180.712 323.896 180.632 323.976 180.56L324.348 181.244ZM321.816 176.648C321.552 176.648 321.3 176.676 321.06 176.732C320.828 176.788 320.62 176.884 320.436 177.02C320.26 177.148 320.112 177.32 319.992 177.536C319.88 177.744 319.808 178.004 319.776 178.316H323.508C323.468 177.788 323.296 177.38 322.992 177.092C322.696 176.796 322.304 176.648 321.816 176.648ZM328.231 178.928L325.915 176H327.115L328.843 178.256L330.619 176H331.699L329.383 178.88L331.843 182H330.691L328.783 179.54L326.839 182H325.747L328.231 178.928ZM333.543 178.1C333.543 178.028 333.539 177.936 333.531 177.824C333.531 177.704 333.527 177.584 333.519 177.464C333.511 177.336 333.499 177.212 333.483 177.092C333.475 176.972 333.463 176.868 333.447 176.78H332.643V176H334.239L334.359 176.84H334.419C334.635 176.56 334.907 176.328 335.235 176.144C335.571 175.952 335.979 175.856 336.459 175.856C337.315 175.856 337.959 176.092 338.391 176.564C338.823 177.036 339.039 177.808 339.039 178.88C339.039 179.384 338.963 179.84 338.811 180.248C338.667 180.648 338.459 180.988 338.187 181.268C337.915 181.548 337.587 181.764 337.203 181.916C336.819 182.068 336.395 182.144 335.931 182.144C335.763 182.144 335.611 182.136 335.475 182.12C335.347 182.112 335.227 182.096 335.115 182.072C335.011 182.056 334.907 182.032 334.803 182C334.699 181.968 334.587 181.928 334.467 181.88V184.4H333.543V178.1ZM336.303 176.732C336.063 176.732 335.835 176.776 335.619 176.864C335.411 176.952 335.223 177.068 335.055 177.212C334.895 177.356 334.763 177.516 334.659 177.692C334.555 177.868 334.491 178.044 334.467 178.22V180.956C334.643 181.076 334.839 181.172 335.055 181.244C335.279 181.308 335.571 181.34 335.931 181.34C336.571 181.34 337.083 181.132 337.467 180.716C337.851 180.292 338.043 179.676 338.043 178.868C338.043 178.188 337.907 177.664 337.635 177.296C337.371 176.92 336.927 176.732 336.303 176.732ZM345.934 181.244C345.79 181.372 345.618 181.492 345.418 181.604C345.226 181.716 345.014 181.812 344.782 181.892C344.55 181.972 344.306 182.032 344.05 182.072C343.802 182.12 343.55 182.144 343.294 182.144C342.814 182.144 342.39 182.072 342.022 181.928C341.654 181.776 341.346 181.564 341.098 181.292C340.85 181.012 340.662 180.68 340.534 180.296C340.406 179.912 340.342 179.48 340.342 179C340.342 178.496 340.41 178.048 340.546 177.656C340.69 177.264 340.894 176.936 341.158 176.672C341.422 176.408 341.742 176.208 342.118 176.072C342.494 175.928 342.914 175.856 343.378 175.856C343.714 175.856 344.046 175.9 344.374 175.988C344.702 176.076 344.99 176.244 345.238 176.492C345.494 176.732 345.69 177.068 345.826 177.5C345.962 177.924 346.01 178.476 345.97 179.156H341.326C341.326 179.876 341.518 180.416 341.902 180.776C342.294 181.128 342.814 181.304 343.462 181.304C343.678 181.304 343.89 181.28 344.098 181.232C344.314 181.176 344.518 181.112 344.71 181.04C344.902 180.968 345.07 180.888 345.214 180.8C345.366 180.712 345.482 180.632 345.562 180.56L345.934 181.244ZM343.402 176.648C343.138 176.648 342.886 176.676 342.646 176.732C342.414 176.788 342.206 176.884 342.022 177.02C341.846 177.148 341.698 177.32 341.578 177.536C341.466 177.744 341.394 178.004 341.362 178.316H345.094C345.054 177.788 344.882 177.38 344.578 177.092C344.282 176.796 343.89 176.648 343.402 176.648ZM352.049 176.924C351.865 176.86 351.665 176.808 351.449 176.768C351.241 176.72 351.033 176.696 350.825 176.696C350.041 176.696 349.457 176.88 349.073 177.248C348.689 177.616 348.497 178.2 348.497 179C348.497 179.352 348.553 179.668 348.665 179.948C348.777 180.22 348.937 180.452 349.145 180.644C349.353 180.836 349.601 180.984 349.889 181.088C350.185 181.192 350.509 181.244 350.861 181.244C351.237 181.244 351.601 181.18 351.953 181.052C352.313 180.924 352.613 180.756 352.853 180.548L353.273 181.244C353.161 181.34 353.021 181.44 352.853 181.544C352.685 181.648 352.489 181.748 352.265 181.844C352.049 181.932 351.805 182.004 351.533 182.06C351.269 182.116 350.981 182.144 350.669 182.144C350.149 182.144 349.689 182.072 349.289 181.928C348.897 181.776 348.569 181.564 348.305 181.292C348.041 181.012 347.841 180.68 347.705 180.296C347.569 179.904 347.501 179.472 347.501 179C347.501 178.496 347.569 178.048 347.705 177.656C347.849 177.264 348.053 176.936 348.317 176.672C348.581 176.408 348.901 176.208 349.277 176.072C349.653 175.928 350.073 175.856 350.537 175.856C351.129 175.856 351.609 175.908 351.977 176.012C352.353 176.116 352.669 176.232 352.925 176.36L352.913 176.396V178.064H352.049V176.924ZM354.349 176H355.777V174.812L356.713 174.548V176H359.917V176.804H356.713V179.636C356.713 180.22 356.853 180.652 357.133 180.932C357.421 181.212 357.829 181.352 358.357 181.352C358.717 181.352 359.029 181.284 359.293 181.148C359.565 181.012 359.809 180.864 360.025 180.704L360.337 181.412C360.057 181.636 359.721 181.816 359.329 181.952C358.945 182.088 358.549 182.156 358.141 182.156C357.821 182.156 357.517 182.108 357.229 182.012C356.949 181.924 356.701 181.784 356.485 181.592C356.269 181.4 356.097 181.156 355.969 180.86C355.841 180.556 355.777 180.196 355.777 179.78V176.804H354.349V176ZM366.356 184.544C365.82 184.408 365.316 184.204 364.844 183.932C364.38 183.668 363.972 183.32 363.62 182.888C363.276 182.456 363 181.928 362.792 181.304C362.592 180.68 362.492 179.94 362.492 179.084C362.492 178.236 362.596 177.496 362.804 176.864C363.012 176.224 363.292 175.684 363.644 175.244C363.996 174.796 364.404 174.44 364.868 174.176C365.34 173.904 365.836 173.712 366.356 173.6L366.656 174.356C366.184 174.492 365.752 174.672 365.36 174.896C364.968 175.112 364.628 175.404 364.34 175.772C364.06 176.132 363.84 176.584 363.68 177.128C363.528 177.664 363.452 178.316 363.452 179.084C363.452 179.86 363.544 180.524 363.728 181.076C363.92 181.62 364.168 182.072 364.472 182.432C364.784 182.8 365.128 183.084 365.504 183.284C365.888 183.492 366.272 183.636 366.656 183.716L366.356 184.544ZM456.427 183.716C456.811 183.636 457.191 183.492 457.567 183.284C457.951 183.084 458.295 182.8 458.599 182.432C458.911 182.072 459.159 181.62 459.343 181.076C459.535 180.524 459.631 179.86 459.631 179.084C459.631 178.316 459.551 177.664 459.391 177.128C459.239 176.584 459.019 176.132 458.731 175.772C458.451 175.404 458.115 175.112 457.723 174.896C457.331 174.672 456.899 174.492 456.427 174.356L456.727 173.6C457.247 173.712 457.739 173.904 458.203 174.176C458.675 174.44 459.087 174.796 459.439 175.244C459.791 175.684 460.071 176.224 460.279 176.864C460.487 177.496 460.591 178.236 460.591 179.084C460.591 179.94 460.487 180.68 460.279 181.304C460.079 181.928 459.803 182.456 459.451 182.888C459.107 183.32 458.699 183.668 458.227 183.932C457.763 184.204 457.263 184.408 456.727 184.544L456.427 183.716ZM349.577 194.34C349.577 194.084 349.649 193.888 349.793 193.752C349.937 193.608 350.129 193.536 350.369 193.536C350.625 193.536 350.825 193.608 350.969 193.752C351.113 193.888 351.185 194.084 351.185 194.34C351.185 194.572 351.113 194.764 350.969 194.916C350.825 195.068 350.625 195.144 350.369 195.144C350.129 195.144 349.937 195.068 349.793 194.916C349.649 194.764 349.577 194.572 349.577 194.34ZM354.349 189H355.777V187.812L356.713 187.548V189H359.917V189.804H356.713V192.636C356.713 193.22 356.853 193.652 357.133 193.932C357.421 194.212 357.829 194.352 358.357 194.352C358.717 194.352 359.029 194.284 359.293 194.148C359.565 194.012 359.809 193.864 360.025 193.704L360.337 194.412C360.057 194.636 359.721 194.816 359.329 194.952C358.945 195.088 358.549 195.156 358.141 195.156C357.821 195.156 357.517 195.108 357.229 195.012C356.949 194.924 356.701 194.784 356.485 194.592C356.269 194.4 356.097 194.156 355.969 193.86C355.841 193.556 355.777 193.196 355.777 192.78V189.804H354.349V189ZM361.856 192C361.856 191.032 362.108 190.268 362.612 189.708C363.116 189.14 363.836 188.856 364.772 188.856C365.276 188.856 365.708 188.94 366.068 189.108C366.436 189.268 366.74 189.488 366.98 189.768C367.22 190.048 367.396 190.38 367.508 190.764C367.628 191.148 367.688 191.56 367.688 192C367.688 192.48 367.624 192.916 367.496 193.308C367.368 193.692 367.18 194.02 366.932 194.292C366.684 194.564 366.376 194.776 366.008 194.928C365.648 195.072 365.236 195.144 364.772 195.144C364.276 195.144 363.844 195.064 363.476 194.904C363.108 194.736 362.804 194.512 362.564 194.232C362.324 193.952 362.144 193.62 362.024 193.236C361.912 192.852 361.856 192.44 361.856 192ZM362.852 192C362.852 192.28 362.884 192.56 362.948 192.84C363.02 193.12 363.132 193.372 363.284 193.596C363.436 193.82 363.632 194 363.872 194.136C364.12 194.272 364.42 194.34 364.772 194.34C365.412 194.34 365.892 194.144 366.212 193.752C366.54 193.352 366.704 192.768 366.704 192C366.704 191.712 366.668 191.432 366.596 191.16C366.532 190.88 366.42 190.628 366.26 190.404C366.108 190.18 365.908 190 365.66 189.864C365.42 189.728 365.124 189.66 364.772 189.66C364.132 189.66 363.652 189.856 363.332 190.248C363.012 190.64 362.852 191.224 362.852 192ZM374.631 188.52C374.631 188.72 374.599 188.924 374.535 189.132C374.471 189.34 374.375 189.536 374.247 189.72C374.119 189.896 373.955 190.052 373.755 190.188C373.555 190.324 373.319 190.428 373.047 190.5V190.548C373.287 190.588 373.515 190.656 373.731 190.752C373.955 190.848 374.151 190.98 374.319 191.148C374.487 191.316 374.623 191.52 374.727 191.76C374.831 192 374.883 192.284 374.883 192.612C374.883 193.044 374.791 193.42 374.607 193.74C374.431 194.052 374.195 194.308 373.899 194.508C373.611 194.708 373.279 194.856 372.903 194.952C372.527 195.048 372.143 195.096 371.751 195.096C371.615 195.096 371.455 195.096 371.271 195.096C371.087 195.096 370.895 195.088 370.695 195.072C370.495 195.064 370.295 195.048 370.095 195.024C369.895 195.008 369.719 194.98 369.567 194.94V186.672C369.863 186.624 370.207 186.584 370.599 186.552C370.991 186.52 371.419 186.504 371.883 186.504C372.195 186.504 372.511 186.532 372.831 186.588C373.159 186.636 373.455 186.736 373.719 186.888C373.983 187.032 374.199 187.236 374.367 187.5C374.543 187.764 374.631 188.104 374.631 188.52ZM371.847 194.232C372.103 194.232 372.351 194.2 372.591 194.136C372.831 194.072 373.043 193.976 373.227 193.848C373.411 193.72 373.555 193.56 373.659 193.368C373.771 193.176 373.827 192.948 373.827 192.684C373.827 192.356 373.759 192.092 373.623 191.892C373.495 191.692 373.323 191.536 373.107 191.424C372.899 191.312 372.663 191.236 372.399 191.196C372.135 191.156 371.871 191.136 371.607 191.136H370.563V194.148C370.619 194.164 370.699 194.176 370.803 194.184C370.907 194.192 371.019 194.2 371.139 194.208C371.259 194.216 371.383 194.224 371.511 194.232C371.639 194.232 371.751 194.232 371.847 194.232ZM371.187 190.296C371.323 190.296 371.487 190.292 371.679 190.284C371.871 190.276 372.031 190.264 372.159 190.248C372.351 190.184 372.531 190.108 372.699 190.02C372.867 189.924 373.015 189.812 373.143 189.684C373.279 189.556 373.383 189.412 373.455 189.252C373.535 189.092 373.575 188.916 373.575 188.724C373.575 188.46 373.523 188.24 373.419 188.064C373.323 187.888 373.191 187.748 373.023 187.644C372.855 187.54 372.663 187.468 372.447 187.428C372.231 187.388 372.011 187.368 371.787 187.368C371.523 187.368 371.279 187.376 371.055 187.392C370.839 187.4 370.675 187.416 370.563 187.44V190.296H371.187ZM381.911 194.244C381.767 194.372 381.595 194.492 381.395 194.604C381.203 194.716 380.991 194.812 380.759 194.892C380.527 194.972 380.283 195.032 380.027 195.072C379.779 195.12 379.527 195.144 379.271 195.144C378.791 195.144 378.367 195.072 377.999 194.928C377.631 194.776 377.323 194.564 377.075 194.292C376.827 194.012 376.639 193.68 376.511 193.296C376.383 192.912 376.319 192.48 376.319 192C376.319 191.496 376.387 191.048 376.523 190.656C376.667 190.264 376.871 189.936 377.135 189.672C377.399 189.408 377.719 189.208 378.095 189.072C378.471 188.928 378.891 188.856 379.355 188.856C379.691 188.856 380.023 188.9 380.351 188.988C380.679 189.076 380.967 189.244 381.215 189.492C381.471 189.732 381.667 190.068 381.803 190.5C381.939 190.924 381.987 191.476 381.947 192.156H377.303C377.303 192.876 377.495 193.416 377.879 193.776C378.271 194.128 378.791 194.304 379.439 194.304C379.655 194.304 379.867 194.28 380.075 194.232C380.291 194.176 380.495 194.112 380.687 194.04C380.879 193.968 381.047 193.888 381.191 193.8C381.343 193.712 381.459 193.632 381.539 193.56L381.911 194.244ZM379.379 189.648C379.115 189.648 378.863 189.676 378.623 189.732C378.391 189.788 378.183 189.884 377.999 190.02C377.823 190.148 377.675 190.32 377.555 190.536C377.443 190.744 377.371 191.004 377.339 191.316H381.071C381.031 190.788 380.859 190.38 380.555 190.092C380.259 189.796 379.867 189.648 379.379 189.648ZM386.382 193.764H386.514L388.794 186.6H389.79L386.97 195H385.806L382.926 186.6H384.018L386.382 193.764ZM391.213 195V194.196H393.301V189.804H391.213V189H394.261V194.196H396.301V195H391.213ZM392.977 187.296C392.977 187.08 393.049 186.896 393.193 186.744C393.337 186.584 393.521 186.504 393.745 186.504C393.977 186.504 394.169 186.584 394.321 186.744C394.481 186.896 394.561 187.08 394.561 187.296C394.561 187.504 394.481 187.68 394.321 187.824C394.169 187.968 393.977 188.04 393.745 188.04C393.521 188.04 393.337 187.968 393.193 187.824C393.049 187.68 392.977 187.504 392.977 187.296ZM402.404 193.38C402.404 193.124 402.304 192.928 402.104 192.792C401.904 192.648 401.656 192.536 401.36 192.456C401.064 192.368 400.74 192.288 400.388 192.216C400.044 192.144 399.724 192.048 399.428 191.928C399.132 191.808 398.884 191.648 398.684 191.448C398.484 191.24 398.384 190.952 398.384 190.584C398.384 190.28 398.448 190.02 398.576 189.804C398.712 189.588 398.888 189.412 399.104 189.276C399.32 189.132 399.572 189.028 399.86 188.964C400.148 188.892 400.448 188.856 400.76 188.856C401.32 188.856 401.8 188.928 402.2 189.072C402.608 189.208 402.932 189.352 403.172 189.504L402.788 190.26C402.524 190.116 402.236 189.98 401.924 189.852C401.62 189.716 401.236 189.648 400.772 189.648C400.596 189.648 400.42 189.668 400.244 189.708C400.076 189.74 399.92 189.792 399.776 189.864C399.64 189.936 399.528 190.032 399.44 190.152C399.36 190.264 399.32 190.404 399.32 190.572C399.32 190.78 399.42 190.94 399.62 191.052C399.82 191.164 400.068 191.26 400.364 191.34C400.66 191.412 400.98 191.484 401.324 191.556C401.676 191.62 402 191.716 402.296 191.844C402.592 191.972 402.84 192.144 403.04 192.36C403.24 192.576 403.34 192.868 403.34 193.236C403.34 193.788 403.12 194.244 402.68 194.604C402.248 194.964 401.596 195.144 400.724 195.144C400.46 195.144 400.2 195.12 399.944 195.072C399.688 195.024 399.448 194.96 399.224 194.88C399 194.8 398.796 194.712 398.612 194.616C398.428 194.512 398.276 194.408 398.156 194.304L398.636 193.524C398.732 193.62 398.86 193.72 399.02 193.824C399.18 193.92 399.356 194.008 399.548 194.088C399.74 194.168 399.944 194.232 400.16 194.28C400.384 194.328 400.608 194.352 400.832 194.352C401.048 194.352 401.248 194.336 401.432 194.304C401.624 194.264 401.792 194.208 401.936 194.136C402.08 194.056 402.192 193.956 402.272 193.836C402.36 193.708 402.404 193.556 402.404 193.38ZM405.604 195V194.196H407.692V189.804H405.604V189H408.652V194.196H410.692V195H405.604ZM407.368 187.296C407.368 187.08 407.44 186.896 407.584 186.744C407.728 186.584 407.912 186.504 408.136 186.504C408.368 186.504 408.56 186.584 408.712 186.744C408.872 186.896 408.952 187.08 408.952 187.296C408.952 187.504 408.872 187.68 408.712 187.824C408.56 187.968 408.368 188.04 408.136 188.04C407.912 188.04 407.728 187.968 407.584 187.824C407.44 187.68 407.368 187.504 407.368 187.296ZM411.563 186.6H413.483V189.684H413.543C413.751 189.42 414.019 189.216 414.347 189.072C414.675 188.928 415.031 188.856 415.415 188.856C417.175 188.856 418.055 189.872 418.055 191.904C418.055 192.936 417.771 193.728 417.203 194.28C416.635 194.824 415.827 195.096 414.779 195.096C414.283 195.096 413.835 195.048 413.435 194.952C413.035 194.856 412.743 194.744 412.559 194.616V187.404H411.563V186.6ZM415.295 189.66C414.815 189.66 414.427 189.796 414.131 190.068C413.835 190.34 413.619 190.724 413.483 191.22V193.98C413.667 194.076 413.887 194.152 414.143 194.208C414.399 194.264 414.667 194.292 414.947 194.292C415.267 194.292 415.555 194.248 415.811 194.16C416.075 194.064 416.299 193.92 416.483 193.728C416.667 193.528 416.807 193.276 416.903 192.972C417.007 192.668 417.059 192.308 417.059 191.892C417.059 191.588 417.027 191.3 416.963 191.028C416.899 190.756 416.795 190.52 416.651 190.32C416.515 190.112 416.335 189.952 416.111 189.84C415.887 189.72 415.615 189.66 415.295 189.66ZM420.162 186.6H422.154V192.984C422.154 193.472 422.234 193.816 422.394 194.016C422.562 194.216 422.806 194.316 423.126 194.316C423.35 194.316 423.562 194.276 423.762 194.196C423.97 194.116 424.198 193.98 424.446 193.788L424.878 194.448C424.75 194.56 424.61 194.66 424.458 194.748C424.306 194.836 424.15 194.912 423.99 194.976C423.83 195.032 423.67 195.076 423.51 195.108C423.35 195.14 423.202 195.156 423.066 195.156C422.77 195.156 422.506 195.116 422.274 195.036C422.042 194.964 421.846 194.844 421.686 194.676C421.534 194.508 421.418 194.288 421.338 194.016C421.258 193.736 421.218 193.392 421.218 192.984V187.404H420.162V186.6ZM432.278 194.244C432.134 194.372 431.962 194.492 431.762 194.604C431.57 194.716 431.358 194.812 431.126 194.892C430.894 194.972 430.65 195.032 430.394 195.072C430.146 195.12 429.894 195.144 429.638 195.144C429.158 195.144 428.734 195.072 428.366 194.928C427.998 194.776 427.69 194.564 427.442 194.292C427.194 194.012 427.006 193.68 426.878 193.296C426.75 192.912 426.686 192.48 426.686 192C426.686 191.496 426.754 191.048 426.89 190.656C427.034 190.264 427.238 189.936 427.502 189.672C427.766 189.408 428.086 189.208 428.462 189.072C428.838 188.928 429.258 188.856 429.722 188.856C430.058 188.856 430.39 188.9 430.718 188.988C431.046 189.076 431.334 189.244 431.582 189.492C431.838 189.732 432.034 190.068 432.17 190.5C432.306 190.924 432.354 191.476 432.314 192.156H427.67C427.67 192.876 427.862 193.416 428.246 193.776C428.638 194.128 429.158 194.304 429.806 194.304C430.022 194.304 430.234 194.28 430.442 194.232C430.658 194.176 430.862 194.112 431.054 194.04C431.246 193.968 431.414 193.888 431.558 193.8C431.71 193.712 431.826 193.632 431.906 193.56L432.278 194.244ZM429.746 189.648C429.482 189.648 429.23 189.676 428.99 189.732C428.758 189.788 428.55 189.884 428.366 190.02C428.19 190.148 428.042 190.32 427.922 190.536C427.81 190.744 427.738 191.004 427.706 191.316H431.438C431.398 190.788 431.226 190.38 430.922 190.092C430.626 189.796 430.234 189.648 429.746 189.648ZM438.309 197.544C437.773 197.408 437.269 197.204 436.797 196.932C436.333 196.668 435.925 196.32 435.573 195.888C435.229 195.456 434.953 194.928 434.745 194.304C434.545 193.68 434.445 192.94 434.445 192.084C434.445 191.236 434.549 190.496 434.757 189.864C434.965 189.224 435.245 188.684 435.597 188.244C435.949 187.796 436.357 187.44 436.821 187.176C437.293 186.904 437.789 186.712 438.309 186.6L438.609 187.356C438.137 187.492 437.705 187.672 437.313 187.896C436.921 188.112 436.581 188.404 436.293 188.772C436.013 189.132 435.793 189.584 435.633 190.128C435.481 190.664 435.405 191.316 435.405 192.084C435.405 192.86 435.497 193.524 435.681 194.076C435.873 194.62 436.121 195.072 436.425 195.432C436.737 195.8 437.081 196.084 437.457 196.284C437.841 196.492 438.225 196.636 438.609 196.716L438.309 197.544ZM442.036 196.716C442.42 196.636 442.8 196.492 443.176 196.284C443.56 196.084 443.904 195.8 444.208 195.432C444.52 195.072 444.768 194.62 444.952 194.076C445.144 193.524 445.24 192.86 445.24 192.084C445.24 191.316 445.16 190.664 445 190.128C444.848 189.584 444.628 189.132 444.34 188.772C444.06 188.404 443.724 188.112 443.332 187.896C442.94 187.672 442.508 187.492 442.036 187.356L442.336 186.6C442.856 186.712 443.348 186.904 443.812 187.176C444.284 187.44 444.696 187.796 445.048 188.244C445.4 188.684 445.68 189.224 445.888 189.864C446.096 190.496 446.2 191.236 446.2 192.084C446.2 192.94 446.096 193.68 445.888 194.304C445.688 194.928 445.412 195.456 445.06 195.888C444.716 196.32 444.308 196.668 443.836 196.932C443.372 197.204 442.872 197.408 442.336 197.544L442.036 196.716Z" fill="white"/>
<path d="M368.415 173.6H370.287V176.744H370.347C370.595 176.464 370.883 176.248 371.211 176.096C371.539 175.936 371.947 175.856 372.435 175.856C372.819 175.856 373.151 175.896 373.431 175.976C373.719 176.056 373.951 176.196 374.127 176.396C374.311 176.596 374.447 176.872 374.535 177.224C374.623 177.568 374.667 178.008 374.667 178.544V182H373.731V178.724C373.731 178.38 373.711 178.08 373.671 177.824C373.631 177.568 373.551 177.356 373.431 177.188C373.319 177.012 373.163 176.88 372.963 176.792C372.763 176.704 372.507 176.66 372.195 176.66C371.979 176.66 371.767 176.7 371.559 176.78C371.351 176.852 371.159 176.956 370.983 177.092C370.815 177.22 370.667 177.38 370.539 177.572C370.419 177.756 370.335 177.96 370.287 178.184V182H369.363V174.404H368.415V173.6ZM376.823 182V181.196H378.911V176.804H376.823V176H379.871V181.196H381.911V182H376.823ZM378.587 174.296C378.587 174.08 378.659 173.896 378.803 173.744C378.947 173.584 379.131 173.504 379.355 173.504C379.587 173.504 379.779 173.584 379.931 173.744C380.091 173.896 380.171 174.08 380.171 174.296C380.171 174.504 380.091 174.68 379.931 174.824C379.779 174.968 379.587 175.04 379.355 175.04C379.131 175.04 378.947 174.968 378.803 174.824C378.659 174.68 378.587 174.504 378.587 174.296ZM383.046 173.6H384.99V178.568H385.65L388.014 176H389.142L386.49 178.844L388.674 181.196H389.454V182H388.218L385.65 179.288H384.99V182H384.066V174.404H383.046V173.6ZM396.301 181.244C396.157 181.372 395.985 181.492 395.785 181.604C395.593 181.716 395.381 181.812 395.149 181.892C394.917 181.972 394.673 182.032 394.417 182.072C394.169 182.12 393.917 182.144 393.661 182.144C393.181 182.144 392.757 182.072 392.389 181.928C392.021 181.776 391.713 181.564 391.465 181.292C391.217 181.012 391.029 180.68 390.901 180.296C390.773 179.912 390.709 179.48 390.709 179C390.709 178.496 390.777 178.048 390.913 177.656C391.057 177.264 391.261 176.936 391.525 176.672C391.789 176.408 392.109 176.208 392.485 176.072C392.861 175.928 393.281 175.856 393.745 175.856C394.081 175.856 394.413 175.9 394.741 175.988C395.069 176.076 395.357 176.244 395.605 176.492C395.861 176.732 396.057 177.068 396.193 177.5C396.329 177.924 396.377 178.476 396.337 179.156H391.693C391.693 179.876 391.885 180.416 392.269 180.776C392.661 181.128 393.181 181.304 393.829 181.304C394.045 181.304 394.257 181.28 394.465 181.232C394.681 181.176 394.885 181.112 395.077 181.04C395.269 180.968 395.437 180.888 395.581 180.8C395.733 180.712 395.849 180.632 395.929 180.56L396.301 181.244ZM393.769 176.648C393.505 176.648 393.253 176.676 393.013 176.732C392.781 176.788 392.573 176.884 392.389 177.02C392.213 177.148 392.065 177.32 391.945 177.536C391.833 177.744 391.761 178.004 391.729 178.316H395.461C395.421 177.788 395.249 177.38 394.945 177.092C394.649 176.796 394.257 176.648 393.769 176.648ZM402.404 180.38C402.404 180.124 402.304 179.928 402.104 179.792C401.904 179.648 401.656 179.536 401.36 179.456C401.064 179.368 400.74 179.288 400.388 179.216C400.044 179.144 399.724 179.048 399.428 178.928C399.132 178.808 398.884 178.648 398.684 178.448C398.484 178.24 398.384 177.952 398.384 177.584C398.384 177.28 398.448 177.02 398.576 176.804C398.712 176.588 398.888 176.412 399.104 176.276C399.32 176.132 399.572 176.028 399.86 175.964C400.148 175.892 400.448 175.856 400.76 175.856C401.32 175.856 401.8 175.928 402.2 176.072C402.608 176.208 402.932 176.352 403.172 176.504L402.788 177.26C402.524 177.116 402.236 176.98 401.924 176.852C401.62 176.716 401.236 176.648 400.772 176.648C400.596 176.648 400.42 176.668 400.244 176.708C400.076 176.74 399.92 176.792 399.776 176.864C399.64 176.936 399.528 177.032 399.44 177.152C399.36 177.264 399.32 177.404 399.32 177.572C399.32 177.78 399.42 177.94 399.62 178.052C399.82 178.164 400.068 178.26 400.364 178.34C400.66 178.412 400.98 178.484 401.324 178.556C401.676 178.62 402 178.716 402.296 178.844C402.592 178.972 402.84 179.144 403.04 179.36C403.24 179.576 403.34 179.868 403.34 180.236C403.34 180.788 403.12 181.244 402.68 181.604C402.248 181.964 401.596 182.144 400.724 182.144C400.46 182.144 400.2 182.12 399.944 182.072C399.688 182.024 399.448 181.96 399.224 181.88C399 181.8 398.796 181.712 398.612 181.616C398.428 181.512 398.276 181.408 398.156 181.304L398.636 180.524C398.732 180.62 398.86 180.72 399.02 180.824C399.18 180.92 399.356 181.008 399.548 181.088C399.74 181.168 399.944 181.232 400.16 181.28C400.384 181.328 400.608 181.352 400.832 181.352C401.048 181.352 401.248 181.336 401.432 181.304C401.624 181.264 401.792 181.208 401.936 181.136C402.08 181.056 402.192 180.956 402.272 180.836C402.36 180.708 402.404 180.556 402.404 180.38ZM409.828 178.148H406.06V182H405.064V173.6H406.06V177.26H409.828V173.6H410.824V182H409.828V178.148ZM417.887 181.244C417.743 181.372 417.571 181.492 417.371 181.604C417.179 181.716 416.967 181.812 416.735 181.892C416.503 181.972 416.259 182.032 416.003 182.072C415.755 182.12 415.503 182.144 415.247 182.144C414.767 182.144 414.343 182.072 413.975 181.928C413.607 181.776 413.299 181.564 413.051 181.292C412.803 181.012 412.615 180.68 412.487 180.296C412.359 179.912 412.295 179.48 412.295 179C412.295 178.496 412.363 178.048 412.499 177.656C412.643 177.264 412.847 176.936 413.111 176.672C413.375 176.408 413.695 176.208 414.071 176.072C414.447 175.928 414.867 175.856 415.331 175.856C415.667 175.856 415.999 175.9 416.327 175.988C416.655 176.076 416.943 176.244 417.191 176.492C417.447 176.732 417.643 177.068 417.779 177.5C417.915 177.924 417.963 178.476 417.923 179.156H413.279C413.279 179.876 413.471 180.416 413.855 180.776C414.247 181.128 414.767 181.304 415.415 181.304C415.631 181.304 415.843 181.28 416.051 181.232C416.267 181.176 416.471 181.112 416.663 181.04C416.855 180.968 417.023 180.888 417.167 180.8C417.319 180.712 417.435 180.632 417.515 180.56L417.887 181.244ZM415.355 176.648C415.091 176.648 414.839 176.676 414.599 176.732C414.367 176.788 414.159 176.884 413.975 177.02C413.799 177.148 413.651 177.32 413.531 177.536C413.419 177.744 413.347 178.004 413.315 178.316H417.047C417.007 177.788 416.835 177.38 416.531 177.092C416.235 176.796 415.843 176.648 415.355 176.648ZM420.03 176.468C420.374 176.268 420.762 176.124 421.194 176.036C421.626 175.948 422.05 175.904 422.466 175.904C422.874 175.904 423.206 175.968 423.462 176.096C423.726 176.224 423.93 176.392 424.074 176.6C424.226 176.8 424.326 177.032 424.374 177.296C424.43 177.552 424.458 177.812 424.458 178.076C424.458 178.38 424.45 178.704 424.434 179.048C424.418 179.392 424.406 179.736 424.398 180.08C424.398 180.48 424.422 180.86 424.47 181.22H425.274V182H423.678L423.57 181.1H423.51C423.462 181.172 423.39 181.264 423.294 181.376C423.198 181.488 423.07 181.6 422.91 181.712C422.758 181.816 422.57 181.908 422.346 181.988C422.122 182.068 421.858 182.108 421.554 182.108C420.962 182.108 420.494 181.956 420.15 181.652C419.806 181.348 419.634 180.932 419.634 180.404C419.634 179.996 419.722 179.656 419.898 179.384C420.082 179.112 420.342 178.904 420.678 178.76C421.014 178.616 421.418 178.532 421.89 178.508C422.37 178.484 422.906 178.516 423.498 178.604C423.538 178.236 423.542 177.932 423.51 177.692C423.486 177.444 423.422 177.248 423.318 177.104C423.222 176.96 423.082 176.86 422.898 176.804C422.722 176.74 422.502 176.708 422.238 176.708C421.878 176.708 421.534 176.76 421.206 176.864C420.878 176.96 420.586 177.06 420.33 177.164L420.03 176.468ZM421.794 181.304C422.018 181.304 422.226 181.268 422.418 181.196C422.61 181.124 422.778 181.032 422.922 180.92C423.066 180.808 423.186 180.688 423.282 180.56C423.378 180.424 423.45 180.296 423.498 180.176V179.336C423.082 179.264 422.698 179.228 422.346 179.228C421.994 179.228 421.69 179.268 421.434 179.348C421.178 179.42 420.978 179.536 420.834 179.696C420.69 179.856 420.618 180.064 420.618 180.32C420.618 180.584 420.706 180.816 420.882 181.016C421.066 181.208 421.37 181.304 421.794 181.304ZM430.118 173.6H432.062V179.948C432.062 180.02 432.066 180.112 432.074 180.224C432.082 180.328 432.09 180.44 432.098 180.56C432.114 180.68 432.13 180.8 432.146 180.92C432.162 181.032 432.178 181.132 432.194 181.22H432.998V182H431.402L431.282 181.076H431.234C431.058 181.38 430.794 181.636 430.442 181.844C430.098 182.044 429.698 182.144 429.242 182.144C428.338 182.144 427.67 181.892 427.238 181.388C426.814 180.876 426.602 180.084 426.602 179.012C426.602 178.508 426.674 178.064 426.818 177.68C426.962 177.288 427.166 176.964 427.43 176.708C427.702 176.444 428.026 176.244 428.402 176.108C428.778 175.972 429.198 175.904 429.662 175.904C429.83 175.904 429.978 175.908 430.106 175.916C430.242 175.924 430.366 175.936 430.478 175.952C430.59 175.968 430.694 175.992 430.79 176.024C430.894 176.048 431.006 176.076 431.126 176.108V174.404H430.118V173.6ZM429.398 181.34C429.886 181.34 430.27 181.216 430.55 180.968C430.83 180.712 431.022 180.332 431.126 179.828V177.044C430.95 176.924 430.75 176.836 430.526 176.78C430.31 176.724 430.022 176.696 429.662 176.696C429.022 176.696 428.518 176.884 428.15 177.26C427.782 177.628 427.598 178.212 427.598 179.012C427.598 179.34 427.626 179.648 427.682 179.936C427.746 180.216 427.846 180.46 427.982 180.668C428.126 180.876 428.314 181.04 428.546 181.16C428.778 181.28 429.062 181.34 429.398 181.34ZM434.385 182V181.196H436.473V176.804H434.385V176H437.433V181.196H439.473V182H434.385ZM436.149 174.296C436.149 174.08 436.221 173.896 436.365 173.744C436.509 173.584 436.693 173.504 436.917 173.504C437.149 173.504 437.341 173.584 437.493 173.744C437.653 173.896 437.733 174.08 437.733 174.296C437.733 174.504 437.653 174.68 437.493 174.824C437.341 174.968 437.149 175.04 436.917 175.04C436.693 175.04 436.509 174.968 436.365 174.824C436.221 174.68 436.149 174.504 436.149 174.296ZM441.436 178.1C441.436 178.028 441.432 177.936 441.424 177.824C441.424 177.704 441.42 177.584 441.412 177.464C441.404 177.336 441.392 177.212 441.376 177.092C441.368 176.972 441.356 176.868 441.34 176.78H440.536V176H442.144L442.252 176.972H442.312C442.392 176.836 442.496 176.704 442.624 176.576C442.76 176.44 442.916 176.32 443.092 176.216C443.268 176.104 443.464 176.016 443.68 175.952C443.896 175.888 444.124 175.856 444.364 175.856C444.732 175.856 445.056 175.896 445.336 175.976C445.624 176.056 445.86 176.2 446.044 176.408C446.236 176.608 446.38 176.884 446.476 177.236C446.572 177.58 446.62 178.02 446.62 178.556V182H445.684V178.736C445.684 178.072 445.576 177.572 445.36 177.236C445.144 176.9 444.752 176.732 444.184 176.732C443.976 176.732 443.772 176.776 443.572 176.864C443.38 176.944 443.204 177.052 443.044 177.188C442.884 177.324 442.744 177.484 442.624 177.668C442.504 177.844 442.416 178.032 442.36 178.232V182H441.436V178.1ZM453.804 182.3C453.804 182.676 453.732 183.004 453.588 183.284C453.444 183.572 453.244 183.808 452.988 183.992C452.74 184.176 452.448 184.312 452.112 184.4C451.776 184.496 451.412 184.544 451.02 184.544C450.548 184.544 450.136 184.496 449.784 184.4C449.432 184.304 449.128 184.18 448.872 184.028L449.328 183.176C449.4 183.24 449.492 183.3 449.604 183.356C449.724 183.42 449.86 183.476 450.012 183.524C450.164 183.58 450.324 183.624 450.492 183.656C450.668 183.688 450.84 183.704 451.008 183.704C451.36 183.704 451.652 183.672 451.884 183.608C452.124 183.544 452.316 183.444 452.46 183.308C452.604 183.172 452.708 182.996 452.772 182.78C452.836 182.564 452.868 182.3 452.868 181.988V181.316H452.82C452.636 181.58 452.4 181.784 452.112 181.928C451.824 182.072 451.452 182.144 450.996 182.144C450.084 182.144 449.412 181.892 448.98 181.388C448.556 180.876 448.344 180.084 448.344 179.012C448.344 177.988 448.616 177.216 449.16 176.696C449.704 176.168 450.512 175.904 451.584 175.904C452.08 175.904 452.5 175.94 452.844 176.012C453.196 176.076 453.516 176.16 453.804 176.264V182.3ZM451.128 181.34C451.616 181.34 452 181.216 452.28 180.968C452.56 180.712 452.756 180.324 452.868 179.804V176.96C452.516 176.792 452.024 176.708 451.392 176.708C450.752 176.708 450.248 176.896 449.88 177.272C449.512 177.648 449.328 178.224 449.328 179C449.328 179.344 449.36 179.66 449.424 179.948C449.488 180.228 449.588 180.472 449.724 180.68C449.868 180.888 450.052 181.052 450.276 181.172C450.508 181.284 450.792 181.34 451.128 181.34Z" fill="#FF7575"/>
<rect x="318" y="106" width="60" height="25" fill="#C44F59"/>
<path d="M332.176 114.2H338.392V115.908H334.094V118.33H338.084V120.038H334.094V124H332.176V114.2ZM344.995 121.83H342.069L341.397 124H339.479L342.643 114.2H344.561L347.711 124H345.695L344.995 121.83ZM342.517 120.29H344.617L343.623 117.014H343.497L342.517 120.29ZM348.545 122.292H351.023V115.908H348.545V114.2H355.433V115.908H352.941V122.292H355.433V124H348.545V122.292ZM361.98 120.01H363.716V124H357.276V114.2H359.194V122.292H361.98V120.01Z" fill="white"/>
<path d="M207 231H279.299V119H318" stroke="#C44F59" stroke-width="2" stroke-linecap="round" stroke-linejoin="round"/>
<path fill-rule="evenodd" clip-rule="evenodd" d="M221 270.399C221 274.602 218.363 278.079 214.933 278.657V278.742L213.921 278.742H183.079L182.067 278.742V278.657C178.637 278.079 176 274.602 176 270.399C176 265.791 179.169 262.056 183.079 262.056C184.718 262.056 186.227 262.713 187.427 263.815C188.308 259.871 191.008 257 194.202 257C195.923 257 197.5 257.833 198.727 259.218C199.961 257.835 201.558 257 203.303 257C206.44 257 209.1 259.696 210.029 263.429C211.146 262.561 212.484 262.056 213.921 262.056C217.831 262.056 221 265.791 221 270.399Z" fill="#56BE7B"/>
<path d="M187 172C187 170.343 188.343 169 190 169V169C191.657 169 193 170.343 193 172V279H187V172Z" fill="#524D4D"/>
<path d="M246.539 218.661C247.108 218.014 246.649 217 245.788 217H145.775C145.514 217 145.264 217.102 145.077 217.284L131.735 230.284C131.332 230.676 131.332 231.324 131.735 231.716L145.077 244.716C145.264 244.898 145.514 245 145.775 245H245.788C246.649 245 247.108 243.986 246.539 243.339L236.265 231.661C235.933 231.283 235.933 230.717 236.265 230.339L246.539 218.661Z" fill="#EEC991"/>
<path d="M149.601 234.59L149.791 224.453H150.582L155.372 233.55V232.393C155.372 229.443 155.426 226.792 155.533 224.438L156.368 224.6C156.476 226.719 156.563 230.21 156.632 235.073C156.427 235.161 156.212 235.205 155.987 235.205C155.655 235.205 155.309 235.107 154.947 234.912C154.352 233.994 153.609 232.651 152.721 230.884C151.842 229.116 151.217 227.905 150.846 227.251C150.855 227.915 150.86 229.126 150.86 230.884C150.87 232.642 150.89 233.975 150.919 234.883C150.831 235.186 150.66 235.337 150.406 235.337C150.23 235.337 150.06 235.264 149.894 235.117C149.737 234.971 149.64 234.795 149.601 234.59ZM157.833 231.88C157.833 231.489 157.872 231.055 157.95 230.576C158.038 230.098 158.165 229.595 158.331 229.067C158.497 228.54 158.746 228.101 159.078 227.749C159.41 227.397 159.796 227.222 160.235 227.222C161.173 227.222 161.925 227.646 162.491 228.496C163.058 229.336 163.341 230.273 163.341 231.309C163.341 231.748 163.292 232.188 163.194 232.627C163.106 233.057 162.965 233.481 162.77 233.901C162.574 234.321 162.291 234.673 161.92 234.956C161.559 235.229 161.134 235.386 160.646 235.425C159.747 235.308 159.054 234.927 158.565 234.282C158.077 233.628 157.833 232.827 157.833 231.88ZM160.323 227.983C159.981 228.022 159.693 228.335 159.459 228.921C159.225 229.507 159.073 230.078 159.005 230.635C158.937 231.182 158.902 231.665 158.902 232.085C158.902 232.632 159.068 233.14 159.4 233.608C159.742 234.067 160.123 234.297 160.543 234.297C160.846 234.297 161.119 234.18 161.363 233.945C161.607 233.711 161.798 233.423 161.935 233.081C162.081 232.729 162.188 232.378 162.257 232.026C162.335 231.675 162.374 231.362 162.374 231.089C162.374 230.288 162.193 229.59 161.832 228.994C161.471 228.398 160.968 228.062 160.323 227.983ZM168.79 224.453L169.552 224.629C169.581 225.029 169.601 225.669 169.61 226.548C169.63 227.427 169.649 228.032 169.669 228.364C170.196 227.808 170.831 227.529 171.573 227.529C172.237 227.529 172.809 227.764 173.287 228.232C173.775 228.701 174.02 229.326 174.02 230.107V234.927C173.893 234.985 173.731 235.015 173.536 235.015C173.321 235.015 173.126 234.995 172.95 234.956C172.95 234.878 172.95 234.761 172.95 234.604C172.96 234.438 172.965 234.316 172.965 234.238C172.965 233.857 172.95 233.203 172.921 232.275C172.892 231.338 172.877 230.557 172.877 229.932C172.73 229.033 172.276 228.584 171.515 228.584C171.183 228.584 170.855 228.677 170.533 228.862C170.211 229.038 169.977 229.248 169.83 229.492C169.859 230.107 169.879 231.035 169.889 232.275C169.898 233.516 169.913 234.409 169.933 234.956C169.698 234.995 169.498 235.015 169.332 235.015C169.088 235.015 168.883 234.985 168.717 234.927C168.736 234.448 168.746 233.691 168.746 232.656C168.746 232.197 168.741 231.357 168.731 230.137C168.722 228.906 168.717 227.852 168.717 226.973C168.727 226.084 168.751 225.244 168.79 224.453ZM175.543 227.471L176.217 227.617C176.295 228.418 176.363 229.678 176.422 231.396C176.48 233.105 176.52 234.165 176.539 234.575C176.451 234.878 176.28 235.029 176.026 235.029C175.851 235.029 175.68 234.961 175.514 234.824C175.357 234.678 175.26 234.502 175.221 234.297C175.24 233.896 175.279 232.856 175.338 231.177C175.396 229.487 175.465 228.252 175.543 227.471ZM175.748 224.849C176.012 224.849 176.231 224.966 176.407 225.2C176.583 225.425 176.671 225.684 176.671 225.977C176.671 226.191 176.617 226.367 176.51 226.504C176.412 226.631 176.275 226.694 176.1 226.694C175.826 226.694 175.611 226.582 175.455 226.357C175.299 226.133 175.221 225.869 175.221 225.566C175.221 225.352 175.265 225.181 175.353 225.054C175.45 224.917 175.582 224.849 175.748 224.849ZM183.219 235L181.871 234.971C181.51 234.609 181.012 234.028 180.377 233.228C179.752 232.417 179.356 231.919 179.19 231.733V234.751C179.103 235.044 178.932 235.19 178.678 235.19C178.502 235.19 178.331 235.122 178.165 234.985C178.009 234.839 177.911 234.663 177.872 234.458C177.901 233.452 177.916 231.782 177.916 229.448C177.916 227.114 177.936 225.439 177.975 224.424L178.868 224.614C178.878 225.005 178.893 225.806 178.912 227.017C178.941 228.228 178.966 229.131 178.985 229.727L182.545 227.119L182.794 227.778C181.866 228.452 180.777 229.404 179.527 230.635C179.791 230.918 180.372 231.611 181.271 232.715C182.179 233.809 182.828 234.57 183.219 235ZM189.063 233.579L189.21 234.224C188.78 234.38 188.141 234.556 187.291 234.751C186.451 234.937 185.826 235.029 185.416 235.029C184.996 235.029 184.63 234.893 184.317 234.619C184.005 234.336 183.771 233.979 183.614 233.55C183.458 233.11 183.341 232.681 183.263 232.261C183.194 231.831 183.16 231.411 183.16 231.001C183.16 228.56 184.264 227.339 186.471 227.339C186.998 227.339 187.462 227.51 187.862 227.852C188.263 228.184 188.463 228.618 188.463 229.155C188.463 229.448 188.38 229.707 188.214 229.932C188.058 230.156 187.862 230.337 187.628 230.474C187.403 230.601 187.11 230.718 186.749 230.825C186.397 230.933 186.085 231.011 185.812 231.06C185.538 231.108 185.211 231.162 184.83 231.221C184.449 231.279 184.186 231.323 184.039 231.353C184.049 231.636 184.063 231.885 184.083 232.1C184.112 232.314 184.161 232.549 184.229 232.803C184.308 233.047 184.405 233.252 184.522 233.418C184.649 233.574 184.82 233.706 185.035 233.813C185.25 233.921 185.504 233.975 185.797 233.975C186.148 233.975 186.578 233.945 187.086 233.887C187.594 233.818 188.043 233.75 188.434 233.682C188.834 233.613 189.044 233.579 189.063 233.579ZM184.098 230.444C185.426 230.063 186.515 229.663 187.364 229.243C187.296 228.921 187.203 228.687 187.086 228.54C186.969 228.394 186.793 228.32 186.559 228.32C185.963 228.32 185.421 228.525 184.933 228.936C184.454 229.346 184.176 229.849 184.098 230.444ZM194.308 227.939L194.161 228.525C193.214 228.135 192.477 227.939 191.949 227.939C191.48 227.939 191.148 228.013 190.953 228.159C190.768 228.296 190.675 228.594 190.675 229.053C190.675 229.424 190.807 229.731 191.07 229.976C191.344 230.22 191.671 230.415 192.052 230.562C192.433 230.698 192.813 230.85 193.194 231.016C193.585 231.172 193.912 231.406 194.176 231.719C194.449 232.031 194.586 232.417 194.586 232.876C194.586 233.501 194.356 234.048 193.897 234.517C193.438 234.985 192.843 235.225 192.11 235.234C191.573 235.234 191.07 235.122 190.602 234.897C190.133 234.673 189.762 234.39 189.488 234.048L189.913 233.608C190.03 233.657 190.201 233.735 190.426 233.843C190.66 233.95 190.826 234.023 190.924 234.062C191.021 234.092 191.163 234.126 191.349 234.165C191.544 234.204 191.749 234.224 191.964 234.224C192.423 234.224 192.799 234.121 193.092 233.916C193.385 233.711 193.531 233.423 193.531 233.052C193.531 232.808 193.463 232.603 193.326 232.437C193.189 232.261 193.009 232.119 192.784 232.012C192.56 231.904 192.311 231.802 192.037 231.704C191.773 231.606 191.505 231.499 191.231 231.382C190.968 231.255 190.724 231.108 190.499 230.942C190.274 230.767 190.094 230.532 189.957 230.239C189.82 229.946 189.752 229.6 189.752 229.199C189.752 228.613 189.908 228.125 190.221 227.734C190.543 227.334 190.992 227.134 191.568 227.134C191.793 227.134 192.047 227.168 192.33 227.236C192.613 227.305 192.838 227.368 193.004 227.427C193.17 227.485 193.414 227.583 193.736 227.72C194.068 227.847 194.259 227.92 194.308 227.939ZM203.448 228.599L203.58 229.272C203.375 229.302 203.033 229.336 202.555 229.375C202.076 229.414 201.72 229.453 201.485 229.492C201.485 232.002 201.515 233.823 201.573 234.956C201.456 235.337 201.261 235.527 200.987 235.527C200.86 235.527 200.738 235.474 200.621 235.366C200.514 235.259 200.44 235.122 200.401 234.956C200.401 234.663 200.416 233.867 200.445 232.568C200.484 231.27 200.504 230.264 200.504 229.551L199.391 229.507C199.371 229.312 199.361 228.984 199.361 228.525C199.459 228.545 199.645 228.569 199.918 228.599C200.191 228.628 200.377 228.647 200.475 228.657C200.504 228.345 200.519 227.9 200.519 227.324C200.519 226.211 200.611 225.449 200.797 225.039C200.982 224.629 201.427 224.424 202.13 224.424C202.882 224.424 203.497 224.565 203.976 224.849L203.888 225.376C203.761 225.376 203.561 225.366 203.287 225.347C203.023 225.317 202.823 225.303 202.687 225.303C202.286 225.303 201.983 225.391 201.778 225.566C201.573 225.742 201.471 226.079 201.471 226.577C201.471 226.733 201.471 226.904 201.471 227.09C201.48 227.266 201.485 227.378 201.485 227.427C201.485 227.788 201.48 228.184 201.471 228.613C201.627 228.613 201.842 228.618 202.115 228.628C202.398 228.638 202.604 228.643 202.73 228.643C202.975 228.643 203.214 228.628 203.448 228.599ZM204.034 231.88C204.034 231.489 204.073 231.055 204.151 230.576C204.239 230.098 204.366 229.595 204.532 229.067C204.698 228.54 204.947 228.101 205.279 227.749C205.611 227.397 205.997 227.222 206.437 227.222C207.374 227.222 208.126 227.646 208.692 228.496C209.259 229.336 209.542 230.273 209.542 231.309C209.542 231.748 209.493 232.188 209.396 232.627C209.308 233.057 209.166 233.481 208.971 233.901C208.775 234.321 208.492 234.673 208.121 234.956C207.76 235.229 207.335 235.386 206.847 235.425C205.948 235.308 205.255 234.927 204.767 234.282C204.278 233.628 204.034 232.827 204.034 231.88ZM206.524 227.983C206.183 228.022 205.895 228.335 205.66 228.921C205.426 229.507 205.274 230.078 205.206 230.635C205.138 231.182 205.104 231.665 205.104 232.085C205.104 232.632 205.27 233.14 205.602 233.608C205.943 234.067 206.324 234.297 206.744 234.297C207.047 234.297 207.32 234.18 207.564 233.945C207.809 233.711 207.999 233.423 208.136 233.081C208.282 232.729 208.39 232.378 208.458 232.026C208.536 231.675 208.575 231.362 208.575 231.089C208.575 230.288 208.395 229.59 208.033 228.994C207.672 228.398 207.169 228.062 206.524 227.983ZM215.079 227.646L215.782 227.778V227.925C215.782 228.589 215.821 229.712 215.899 231.294C215.987 232.876 216.065 234.097 216.134 234.956C215.938 235.034 215.753 235.073 215.577 235.073C215.421 235.073 215.245 235.049 215.05 235L214.933 234.619C214.308 234.971 213.712 235.146 213.146 235.146C212.726 235.146 212.359 235.049 212.047 234.854C211.744 234.658 211.51 234.419 211.344 234.136C211.178 233.843 211.046 233.486 210.948 233.066C210.851 232.637 210.787 232.251 210.758 231.909C210.738 231.558 210.729 231.167 210.729 230.737C210.729 229.487 210.807 228.34 210.963 227.295L211.622 227.441C211.69 227.764 211.725 228.115 211.725 228.496C211.725 228.711 211.71 229.082 211.681 229.609C211.661 230.137 211.651 230.537 211.651 230.811C211.651 231.289 211.671 231.704 211.71 232.056C211.759 232.397 211.842 232.734 211.959 233.066C212.086 233.389 212.276 233.638 212.53 233.813C212.784 233.989 213.102 234.077 213.482 234.077C213.912 234.077 214.376 233.979 214.874 233.784C214.894 233.423 214.913 232.5 214.933 231.016C214.952 229.521 215.001 228.398 215.079 227.646ZM218.316 229.141L218.375 234.941C218.229 235.02 218.053 235.059 217.848 235.059C217.691 235.059 217.516 235.034 217.32 234.985C217.35 234.37 217.369 233.159 217.379 231.353C217.389 229.546 217.428 228.208 217.496 227.339L218.155 227.485L218.199 228.306C218.717 227.759 219.312 227.485 219.986 227.485C220.328 227.485 220.602 227.51 220.807 227.559C221.012 227.607 221.207 227.729 221.393 227.925C221.588 228.11 221.734 228.359 221.832 228.672C221.93 228.984 222.018 229.434 222.096 230.02C222.174 230.596 222.228 231.274 222.257 232.056C222.296 232.827 222.32 233.804 222.33 234.985C222.271 235.005 222.159 235.015 221.993 235.015C221.642 235.015 221.368 234.971 221.173 234.883C221.134 234.727 221.114 234.468 221.114 234.106C221.114 233.921 221.119 233.574 221.129 233.066C221.148 232.549 221.158 232.148 221.158 231.865C221.158 231.396 221.139 230.986 221.1 230.635C221.07 230.283 221.007 229.937 220.909 229.595C220.821 229.253 220.68 228.989 220.484 228.804C220.299 228.618 220.064 228.525 219.781 228.525C219.459 228.525 219.205 228.55 219.02 228.599C218.844 228.647 218.717 228.706 218.639 228.774C218.57 228.843 218.463 228.965 218.316 229.141ZM228.79 235.381L227.984 235.22C227.984 235.024 227.979 234.878 227.97 234.78C227.452 235.112 226.905 235.278 226.329 235.278C225.44 235.278 224.747 234.897 224.249 234.136C223.761 233.374 223.517 232.51 223.517 231.543C223.517 231.045 223.551 230.576 223.619 230.137C223.697 229.697 223.824 229.248 224 228.789C224.186 228.32 224.469 227.949 224.85 227.676C225.24 227.402 225.709 227.266 226.256 227.266C226.793 227.266 227.296 227.397 227.765 227.661C227.843 226.626 227.882 225.581 227.882 224.526C227.882 224.048 227.877 223.696 227.867 223.472C228.336 223.56 228.707 223.672 228.98 223.809L228.79 235.381ZM227.853 233.813L227.809 229.097C227.691 228.853 227.506 228.662 227.252 228.525C227.008 228.379 226.744 228.306 226.461 228.306C226.08 228.306 225.753 228.428 225.479 228.672C225.216 228.916 225.025 229.243 224.908 229.653C224.801 230.054 224.723 230.43 224.674 230.781C224.635 231.133 224.615 231.504 224.615 231.895C224.615 233.555 225.172 234.385 226.285 234.385C226.656 234.385 226.993 234.336 227.296 234.238C227.608 234.131 227.794 233.989 227.853 233.813Z" fill="#4A4545"/>
<path d="M152.855 181.496C152.474 180.829 152.955 180 153.723 180H218.131C218.466 180 218.778 180.167 218.964 180.445L227.63 193.445C227.854 193.781 227.854 194.219 227.63 194.555L218.964 207.555C218.778 207.833 218.466 208 218.131 208H153.723C152.955 208 152.474 207.171 152.855 206.504L159.716 194.496C159.892 194.189 159.892 193.811 159.716 193.504L152.855 181.496Z" fill="#EEC991"/>
<path d="M175.615 193.093C175.615 192.761 175.615 192.512 175.615 192.346C175.615 192.17 175.62 191.906 175.63 191.555C175.649 191.203 175.669 190.925 175.688 190.72C175.718 190.515 175.757 190.251 175.806 189.929C175.854 189.597 175.918 189.333 175.996 189.138C176.074 188.933 176.162 188.703 176.26 188.449C176.367 188.195 176.499 187.99 176.655 187.834C176.812 187.678 176.982 187.531 177.168 187.395C177.354 187.248 177.573 187.141 177.827 187.072C178.081 187.004 178.359 186.97 178.662 186.97C179.268 186.97 179.795 187.092 180.244 187.336C180.693 187.57 181.045 187.868 181.299 188.229C181.553 188.591 181.753 189.035 181.899 189.562C182.056 190.09 182.153 190.593 182.192 191.071C182.241 191.55 182.266 192.077 182.266 192.653C182.266 193.044 182.256 193.396 182.236 193.708C182.227 194.021 182.197 194.377 182.148 194.777C182.109 195.168 182.046 195.515 181.958 195.817C181.88 196.12 181.768 196.428 181.621 196.74C181.475 197.043 181.299 197.297 181.094 197.502C180.898 197.697 180.649 197.858 180.347 197.985C180.044 198.112 179.707 198.176 179.336 198.176C178.73 198.176 178.208 198.103 177.769 197.956C177.339 197.81 176.982 197.604 176.699 197.341C176.426 197.077 176.206 196.73 176.04 196.301C175.884 195.871 175.771 195.402 175.703 194.895C175.645 194.387 175.615 193.786 175.615 193.093ZM181.211 193.21C181.211 192.731 181.172 192.233 181.094 191.716C181.025 191.198 180.903 190.642 180.728 190.046C180.562 189.45 180.293 188.967 179.922 188.596C179.551 188.215 179.106 188.024 178.589 188.024C178.198 188.024 177.852 188.288 177.549 188.815C177.256 189.333 177.046 189.919 176.919 190.573C176.792 191.218 176.729 191.828 176.729 192.404C176.729 192.805 176.729 193.112 176.729 193.327C176.738 193.532 176.758 193.83 176.787 194.221C176.816 194.602 176.855 194.904 176.904 195.129C176.963 195.354 177.051 195.612 177.168 195.905C177.285 196.198 177.422 196.428 177.578 196.594C177.744 196.75 177.954 196.892 178.208 197.019C178.472 197.136 178.765 197.199 179.087 197.209C179.8 197.17 180.332 196.77 180.684 196.008C181.035 195.246 181.211 194.313 181.211 193.21ZM183.452 194.88C183.452 194.489 183.491 194.055 183.569 193.576C183.657 193.098 183.784 192.595 183.95 192.067C184.116 191.54 184.365 191.101 184.697 190.749C185.029 190.397 185.415 190.222 185.854 190.222C186.792 190.222 187.544 190.646 188.11 191.496C188.677 192.336 188.96 193.273 188.96 194.309C188.96 194.748 188.911 195.188 188.813 195.627C188.726 196.057 188.584 196.481 188.389 196.901C188.193 197.321 187.91 197.673 187.539 197.956C187.178 198.229 186.753 198.386 186.265 198.425C185.366 198.308 184.673 197.927 184.185 197.282C183.696 196.628 183.452 195.827 183.452 194.88ZM185.942 190.983C185.601 191.022 185.312 191.335 185.078 191.921C184.844 192.507 184.692 193.078 184.624 193.635C184.556 194.182 184.521 194.665 184.521 195.085C184.521 195.632 184.688 196.14 185.02 196.608C185.361 197.067 185.742 197.297 186.162 197.297C186.465 197.297 186.738 197.18 186.982 196.945C187.227 196.711 187.417 196.423 187.554 196.081C187.7 195.729 187.808 195.378 187.876 195.026C187.954 194.675 187.993 194.362 187.993 194.089C187.993 193.288 187.812 192.59 187.451 191.994C187.09 191.398 186.587 191.062 185.942 190.983ZM190.322 190.295L191.143 190.441C191.143 190.646 191.147 190.798 191.157 190.896C191.694 190.554 192.236 190.383 192.783 190.383C193.672 190.383 194.365 190.764 194.863 191.525C195.361 192.287 195.61 193.151 195.61 194.118C195.61 194.606 195.571 195.075 195.493 195.524C195.425 195.964 195.298 196.418 195.112 196.887C194.927 197.346 194.639 197.717 194.248 198C193.867 198.273 193.403 198.41 192.856 198.41C192.339 198.41 191.841 198.273 191.362 198C191.401 199.709 191.436 200.979 191.465 201.809C191.377 202.111 191.206 202.263 190.952 202.263C190.776 202.263 190.605 202.189 190.439 202.043C190.283 201.906 190.186 201.735 190.146 201.53L190.322 190.295ZM191.274 191.848L191.318 196.579C191.436 196.813 191.616 197.004 191.86 197.15C192.104 197.287 192.373 197.355 192.666 197.355C193.047 197.355 193.369 197.233 193.633 196.989C193.906 196.745 194.097 196.423 194.204 196.022C194.321 195.612 194.399 195.231 194.438 194.88C194.487 194.528 194.512 194.157 194.512 193.767C194.512 192.106 193.95 191.276 192.827 191.276C192.466 191.276 192.129 191.33 191.816 191.438C191.514 191.535 191.333 191.672 191.274 191.848ZM200.781 190.939L200.635 191.525C199.688 191.135 198.95 190.939 198.423 190.939C197.954 190.939 197.622 191.013 197.427 191.159C197.241 191.296 197.148 191.594 197.148 192.053C197.148 192.424 197.28 192.731 197.544 192.976C197.817 193.22 198.145 193.415 198.525 193.562C198.906 193.698 199.287 193.85 199.668 194.016C200.059 194.172 200.386 194.406 200.649 194.719C200.923 195.031 201.06 195.417 201.06 195.876C201.06 196.501 200.83 197.048 200.371 197.517C199.912 197.985 199.316 198.225 198.584 198.234C198.047 198.234 197.544 198.122 197.075 197.897C196.606 197.673 196.235 197.39 195.962 197.048L196.387 196.608C196.504 196.657 196.675 196.735 196.899 196.843C197.134 196.95 197.3 197.023 197.397 197.062C197.495 197.092 197.637 197.126 197.822 197.165C198.018 197.204 198.223 197.224 198.438 197.224C198.896 197.224 199.272 197.121 199.565 196.916C199.858 196.711 200.005 196.423 200.005 196.052C200.005 195.808 199.937 195.603 199.8 195.437C199.663 195.261 199.482 195.119 199.258 195.012C199.033 194.904 198.784 194.802 198.511 194.704C198.247 194.606 197.979 194.499 197.705 194.382C197.441 194.255 197.197 194.108 196.973 193.942C196.748 193.767 196.567 193.532 196.431 193.239C196.294 192.946 196.226 192.6 196.226 192.199C196.226 191.613 196.382 191.125 196.694 190.734C197.017 190.334 197.466 190.134 198.042 190.134C198.267 190.134 198.521 190.168 198.804 190.236C199.087 190.305 199.312 190.368 199.478 190.427C199.644 190.485 199.888 190.583 200.21 190.72C200.542 190.847 200.732 190.92 200.781 190.939ZM202.993 195.48L202.334 195.334C202.285 194.689 202.158 192.131 201.953 187.658C201.992 187.277 202.163 187.087 202.466 187.087C202.661 187.087 202.842 187.17 203.008 187.336C203.174 187.502 203.262 187.707 203.271 187.951C203.242 188.479 203.208 189.626 203.169 191.394C203.13 193.161 203.071 194.523 202.993 195.48ZM202.554 196.301C202.817 196.301 203.037 196.418 203.213 196.652C203.389 196.877 203.477 197.136 203.477 197.429C203.477 197.644 203.423 197.819 203.315 197.956C203.218 198.083 203.081 198.146 202.905 198.146C202.632 198.146 202.417 198.034 202.261 197.81C202.104 197.585 202.026 197.321 202.026 197.019C202.026 196.804 202.07 196.633 202.158 196.506C202.256 196.369 202.388 196.301 202.554 196.301Z" fill="#4A4545"/>
<path fill-rule="evenodd" clip-rule="evenodd" d="M173 272.471C173 275.606 174.873 278.148 177.184 278.148H193.32V277.927C195.396 277.57 197 275.224 197 272.383C197 269.296 195.106 266.793 192.769 266.793C191.225 266.793 189.873 267.887 189.135 269.521C188.722 266.936 187.028 265 185 265C182.924 265 181.198 267.029 180.838 269.705C180.123 267.968 178.754 266.793 177.184 266.793C174.873 266.793 173 269.335 173 272.471Z" fill="#65DC90"/>
<line x1="133" y1="278.5" x2="240" y2="278.5" stroke="#56BE7B"/>
<defs>
<linearGradient id="paint0_linear_27_57" x1="390.5" y1="81" x2="390.5" y2="223" gradientUnits="userSpaceOnUse">
<stop stop-color="#132846"/>
<stop offset="1" stop-color="#482762"/>
</linearGradient>
</defs>
</svg>
